<svg width="51" height="30" viewBox="0 0 51 30" fill="none" xmlns="http://www.w3.org/2000/svg">
<path d="M29.1305 28.9583C28.4905 28.9583 28.2082 28.7891 28.2835 28.4507L28.3583 28.2945C28.4139 28.1644 28.5652 27.9041 28.8121 27.5136C29.0857 27.1232 29.4416 26.6026 29.8798 25.9519C30.6854 24.7285 31.687 23.2839 32.8846 21.618C34.9086 18.7547 36.7785 16.1648 38.4942 13.8482C40.2099 11.5315 41.7685 9.50123 43.1701 7.75725C42.7655 8.01754 42.2739 8.36894 41.6954 8.81144C41.1227 9.22792 40.4393 9.72248 39.6451 10.2951C39.5802 10.3472 39.4944 10.3732 39.3878 10.3732C39.2278 10.3732 39.0422 10.3081 38.8312 10.178C38.6202 10.0478 38.5292 9.9177 38.5581 9.78755C38.6161 9.52726 39.5928 8.73336 41.4883 7.40585L44.8811 5.10224L46.2219 3.93091C46.8769 3.38429 47.4728 2.8637 48.0095 2.36914C48.5463 1.87458 49.021 1.41906 49.4337 1.00259C49.6053 0.95053 49.6911 0.9245 49.6911 0.9245C49.8778 0.9245 50.068 1.02862 50.2616 1.23686C50.4552 1.44509 50.5318 1.64031 50.4912 1.82252L50.4338 1.90061C50.1718 2.23899 49.8507 2.60341 49.4705 2.99385C49.096 3.35826 48.6329 3.76172 48.081 4.20422C47.8921 4.33437 47.6161 4.55562 47.2533 4.86797C47.1884 4.92003 46.7965 5.36253 46.0778 6.19548C45.3915 7.00239 44.7185 7.80931 44.0589 8.61622C43.4317 9.39711 42.7987 10.204 42.16 11.037C40.1405 13.6399 38.3159 16.0867 36.686 18.3773C35.0618 20.6419 33.6192 22.7503 32.3579 24.7025C31.9962 25.2491 31.4937 26.069 30.8503 27.1623C30.7831 27.3445 30.7054 27.5136 30.6173 27.6698C30.5292 27.826 30.4411 27.9822 30.353 28.1384C30.1595 28.5288 29.9148 28.7891 29.6192 28.9192C29.5334 28.9453 29.3705 28.9583 29.1305 28.9583Z" fill="#69552E"/>
<path d="M8.24002 29.0755C6.66669 29.0755 5.34027 28.685 4.26077 27.9041C3.18127 27.1232 2.42638 26.0821 1.9961 24.7806C1.59829 23.4531 1.57321 22.0084 1.92088 20.4467C1.99621 20.1083 2.07907 19.7959 2.16948 19.5096C2.29235 19.1973 2.40942 18.9109 2.52069 18.6506C5.65971 11.8569 10.385 7.04148 16.6966 4.20426C19.3307 3.03293 21.4744 2.44727 23.1277 2.44727C24.4877 2.44727 25.7307 2.73359 26.8565 3.30624C27.9824 3.87889 28.9285 4.65977 29.695 5.6489C30.4882 6.63802 31.0257 7.75729 31.3075 9.0067C31.6219 10.2301 31.6313 11.5055 31.3358 12.833C31.243 13.2495 31.1237 13.666 30.9776 14.0825C30.8316 14.4989 30.656 14.9284 30.4508 15.3709C29.7704 16.7505 28.6343 18.2602 27.0426 19.9001C25.8694 21.0974 24.5802 22.2167 23.1751 23.2579C21.7758 24.273 20.2767 25.1971 18.678 26.03C15.2706 27.8 12.098 28.8152 9.16002 29.0755L9.16871 29.0364C9.05625 29.0624 8.92002 29.0755 8.76002 29.0755C8.62669 29.0755 8.45335 29.0755 8.24002 29.0755ZM8.51816 27.826C10.0915 27.826 11.863 27.4746 13.8328 26.7718C15.8026 26.0691 17.7741 25.119 19.7473 23.9216C21.7472 22.7243 23.5285 21.3707 25.0913 19.861C27.6951 17.3882 29.2577 14.9805 29.7792 12.6378C30.0342 11.4925 30.0404 10.3863 29.798 9.31906C29.5822 8.25185 29.1537 7.30177 28.5125 6.46882C27.8979 5.63588 27.1257 4.97213 26.1958 4.47757C25.2659 3.98301 24.2142 3.73573 23.0409 3.73573C21.4676 3.73573 19.4955 4.26933 17.1246 5.33654C11.1619 8.04361 6.72298 12.6508 3.8077 19.1582C3.69063 19.4445 3.57356 19.7309 3.45649 20.0172C3.37188 20.2775 3.2977 20.5508 3.23396 20.8371C2.93845 22.1646 2.9519 23.362 3.27433 24.4292C3.62922 25.4704 4.2438 26.3033 5.11806 26.928C6.02479 27.5267 7.15816 27.826 8.51816 27.826Z" fill="#69552E"/>
</svg>
