<svg width="61" height="28" viewBox="0 0 61 28" fill="none" xmlns="http://www.w3.org/2000/svg">
<path d="M44.1393 27.5484C40.9659 27.5484 37.4981 27.0148 33.7356 25.9476L33.7269 25.9866C31.9149 26.8195 30.3955 27.236 29.1688 27.236C28.4488 27.236 27.8198 27.0668 27.2818 26.7284C26.5954 26.338 26.3217 25.8304 26.4608 25.2057C26.5825 24.6591 26.961 24.2166 27.5963 23.8782C28.0809 23.6179 28.6432 23.4878 29.2832 23.4878C29.7899 23.4878 31.2896 23.8782 33.7825 24.6591L34.0485 24.542L34.2746 24.4248C44.6764 18.9066 51.7356 13.9089 55.4522 9.43182C57.125 7.42755 58.1034 5.78769 58.3874 4.51225C58.8104 2.61209 57.7285 1.66201 55.1418 1.66201C53.4352 1.66201 51.5633 2.10452 49.5263 2.98952C47.64 3.79643 45.9016 4.83762 44.311 6.11306C44.0188 6.34733 43.6531 6.67269 43.2137 7.08917C42.7801 7.47961 42.2729 7.96116 41.6921 8.53381C41.5449 8.71601 41.3513 8.80712 41.1113 8.80712C40.6579 8.80712 40.4805 8.58586 40.579 8.14336C40.608 8.01322 40.6874 7.89608 40.8173 7.79196C42.715 5.73563 45.0041 4.01769 47.6846 2.63812C50.5482 1.15444 53.1666 0.412598 55.54 0.412598C56.98 0.412598 58.0705 0.724951 58.8114 1.34966C59.6416 2.05246 59.9061 3.08062 59.6047 4.43416C59.2339 6.10005 58.1576 8.0002 56.3758 10.1346C52.5177 14.7679 45.5651 19.7655 35.5182 25.1276C38.7843 25.9085 41.6974 26.299 44.2574 26.299C48.8707 26.299 51.3257 25.453 51.6224 23.7611L51.6345 23.5268C51.7446 23.0322 52.0263 22.785 52.4797 22.785C52.8797 22.785 53.013 23.0843 52.8798 23.683C52.3061 26.2599 49.3926 27.5484 44.1393 27.5484ZM29.3756 25.9476C30.069 25.9476 30.88 25.7784 31.8086 25.44C30.5529 24.9714 29.7251 24.7372 29.3251 24.7372C28.6051 24.7372 28.2016 24.9324 28.1147 25.3228C28.022 25.7393 28.4423 25.9476 29.3756 25.9476Z" fill="#69552E"/>
<path d="M8.90653 27.5874C7.33319 27.5874 6.00678 27.197 4.92728 26.4161C3.84777 25.6352 3.09289 24.594 2.66261 23.2926C2.26479 21.965 2.23972 20.5204 2.58738 18.9586C2.66271 18.6203 2.74558 18.3079 2.83598 18.0216C2.95885 17.7092 3.07592 17.4229 3.1872 17.1626C6.32621 10.3689 11.0515 5.55344 17.3631 2.71622C19.9972 1.54489 22.1409 0.959229 23.7942 0.959229C25.1542 0.959229 26.3972 1.24555 27.523 1.8182C28.6489 2.39085 29.595 3.17174 30.3615 4.16086C31.1547 5.14998 31.6922 6.26925 31.974 7.51867C32.2884 8.74205 32.2978 10.0175 32.0023 11.345C31.9095 11.7615 31.7902 12.1779 31.6441 12.5944C31.4981 13.0109 31.3225 13.4404 31.1173 13.8829C30.4369 15.2624 29.3008 16.7722 27.7091 18.412C26.5359 19.6094 25.2467 20.7286 23.8416 21.7698C22.4423 22.785 20.9432 23.709 19.3445 24.542C15.9371 26.312 12.7645 27.3271 9.82653 27.5874L9.83522 27.5484C9.72276 27.5744 9.58653 27.5874 9.42653 27.5874C9.29319 27.5874 9.11986 27.5874 8.90653 27.5874ZM9.18466 26.338C10.758 26.338 12.5296 25.9866 14.4993 25.2838C16.4691 24.581 18.4406 23.6309 20.4138 22.4336C22.4137 21.2362 24.195 19.8827 25.7578 18.373C28.3616 15.9002 29.9242 13.4924 30.4457 11.1498C30.7007 10.0045 30.7069 8.89823 30.4645 7.83102C30.2487 6.76381 29.8202 5.81373 29.179 4.98079C28.5644 4.14784 27.7922 3.48409 26.8623 2.98953C25.9324 2.49497 24.8807 2.24769 23.7074 2.24769C22.1341 2.24769 20.162 2.7813 17.7911 3.84851C11.8284 6.55557 7.38948 11.1628 4.47421 17.6702C4.35713 17.9565 4.24006 18.2428 4.12299 18.5292C4.03838 18.7894 3.9642 19.0628 3.90047 19.3491C3.60495 20.6766 3.61841 21.8739 3.94083 22.9412C4.29572 23.9823 4.9103 24.8153 5.78457 25.44C6.69129 26.0387 7.82466 26.338 9.18466 26.338Z" fill="#69552E"/>
</svg>
