<svg width="61" height="28" viewBox="0 0 61 28" fill="none" xmlns="http://www.w3.org/2000/svg">
<path d="M33.2395 27.646C32.0929 27.646 31.1102 27.5679 30.2917 27.4117C29.3456 27.2295 28.6087 26.826 28.0811 26.2013C27.586 25.5506 27.4456 24.7437 27.66 23.7806C27.7295 23.4682 27.8878 23.1168 28.1347 22.7264C28.3816 22.3359 28.6674 22.0106 28.992 21.7503C29.3224 21.4639 29.6209 21.3208 29.8876 21.3208C30.1542 21.3208 30.2586 21.4509 30.2007 21.7112C30.1717 21.8414 29.9775 22.1147 29.6181 22.5312C29.2588 22.9476 29.0298 23.3771 28.9313 23.8196C28.5431 25.5636 30.0023 26.4356 33.309 26.4356C34.2423 26.4356 35.1901 26.3705 36.1524 26.2404C37.1147 26.1102 38.0782 25.915 39.0428 25.6547C41.5668 24.9779 43.8508 24.0018 45.8947 22.7264C48.4464 21.0865 50.052 19.2644 50.7115 17.2602L50.7724 16.9869C51.1606 15.2429 50.6486 14.1887 49.2364 13.8243C46.789 14.9956 44.9119 15.5813 43.6053 15.5813C42.4853 15.5813 41.9716 15.373 42.0643 14.9566C42.0817 14.8785 42.1066 14.8264 42.1391 14.8004C42.5263 14.0195 43.3013 13.4729 44.4641 13.1605C46.42 12.6399 48.0159 12.4187 49.2519 12.4968C54.4075 9.58147 57.2751 6.82234 57.8545 4.21939C58.2717 2.34526 57.1737 1.4082 54.5603 1.4082C51.707 1.4082 48.8845 2.52747 46.0928 4.76601C45.9955 4.84409 45.8569 4.98726 45.6772 5.19549C45.5242 5.40373 45.3167 5.67704 45.0547 6.01542C44.7104 6.48396 44.1081 6.91344 43.2479 7.30388C43.1238 7.38197 42.9551 7.42102 42.7418 7.42102C42.1551 7.42102 41.9111 7.19977 42.0096 6.75727C42.0443 6.60109 42.1133 6.47094 42.2165 6.36682C46.0955 2.35828 50.2617 0.354004 54.715 0.354004C58.395 0.354004 59.9598 1.59041 59.4093 4.06321C58.7893 6.84837 55.8963 9.84176 50.7302 13.0434C52.2097 13.8243 52.7409 15.1518 52.3237 17.0259L52.2454 17.3773C51.2776 20.5269 48.5973 23.1038 44.2045 25.1081C40.4945 26.8 36.8395 27.646 33.2395 27.646Z" fill="#69552E"/>
<path d="M8.57352 27.2946C7.00018 27.2946 5.67377 26.9041 4.59427 26.1232C3.51477 25.3424 2.75988 24.3012 2.3296 22.9997C1.93178 21.6722 1.90671 20.2276 2.25437 18.6658C2.3297 18.3274 2.41257 18.0151 2.50297 17.7287C2.62584 17.4164 2.74291 17.1301 2.85419 16.8698C5.99321 10.0761 10.7185 5.26059 17.0301 2.42338C19.6642 1.25205 21.8079 0.666382 23.4612 0.666382C24.8212 0.666382 26.0642 0.952707 27.19 1.52536C28.3159 2.098 29.262 2.87889 30.0285 3.86801C30.8217 4.85713 31.3592 5.9764 31.641 7.22582C31.9554 8.44921 31.9648 9.72465 31.6692 11.0522C31.5765 11.4686 31.4572 11.8851 31.3111 12.3016C31.1651 12.718 30.9895 13.1475 30.7843 13.59C30.1039 14.9696 28.9678 16.4793 27.3761 18.1192C26.2028 19.3165 24.9137 20.4358 23.5086 21.477C22.1093 22.4921 20.6102 23.4162 19.0115 24.2491C15.6041 26.0191 12.4315 27.0343 9.49352 27.2946L9.50221 27.2555C9.38975 27.2816 9.25352 27.2946 9.09352 27.2946C8.96018 27.2946 8.78685 27.2946 8.57352 27.2946ZM8.85165 26.0452C10.425 26.0452 12.1965 25.6938 14.1663 24.991C16.1361 24.2882 18.1076 23.3381 20.0808 22.1407C22.0807 20.9434 23.862 19.5898 25.4248 18.0801C28.0286 15.6073 29.5912 13.1996 30.1127 10.8569C30.3677 9.71164 30.3739 8.60538 30.1315 7.53817C29.9157 6.47096 29.4872 5.52089 28.846 4.68794C28.2314 3.855 27.4592 3.19124 26.5293 2.69668C25.5994 2.20212 24.5477 1.95484 23.3744 1.95484C21.8011 1.95484 19.829 2.48845 17.458 3.55566C11.4954 6.26273 7.05648 10.87 4.1412 17.3773C4.02413 17.6637 3.90706 17.95 3.78998 18.2363C3.70537 18.4966 3.6312 18.7699 3.56746 19.0562C3.27194 20.3837 3.2854 21.5811 3.60783 22.6483C3.96271 23.6895 4.57729 24.5224 5.45156 25.1471C6.35829 25.7458 7.49165 26.0452 8.85165 26.0452Z" fill="#69552E"/>
</svg>
