<svg width="50" height="49" viewBox="0 0 50 49" fill="none" xmlns="http://www.w3.org/2000/svg">
<path d="M11.2698 48.93C9.26318 48.93 7.51318 48.79 6.01984 48.51C4.29318 48.1833 2.84651 47.46 1.67984 46.34C0.559844 45.1733 -0.000156257 43.7267 -0.000156257 42C-0.000156257 41.44 0.139844 40.81 0.419844 40.11C0.699844 39.41 1.07318 38.8267 1.53984 38.36C2.00651 37.8467 2.47318 37.59 2.93984 37.59C3.40651 37.59 3.63984 37.8233 3.63984 38.29C3.63984 38.5233 3.40651 39.0133 2.93984 39.76C2.47318 40.5067 2.23984 41.2767 2.23984 42.07C2.23984 45.1967 5.13318 46.76 10.9198 46.76C12.5532 46.76 14.1865 46.6433 15.8198 46.41C17.4532 46.1767 19.0632 45.8267 20.6498 45.36C24.8032 44.1467 28.4198 42.3967 31.4998 40.11C35.3265 37.17 37.4265 33.9033 37.7998 30.31V29.82C37.7998 26.6933 36.4932 24.8033 33.8798 24.15C30.0532 26.25 26.9965 27.3 24.7098 27.3C22.7498 27.3 21.7698 26.9267 21.7698 26.18C21.7698 26.04 21.7932 25.9467 21.8398 25.9C22.2132 24.5 23.3565 23.52 25.2698 22.96C28.4898 22.0267 31.1965 21.63 33.3898 21.77C41.2765 16.5433 45.2198 11.5967 45.2198 6.93001C45.2198 3.57001 42.9332 1.89001 38.3598 1.89001C33.3665 1.89001 28.8632 3.89667 24.8498 7.91001C24.7098 8.05001 24.5232 8.30667 24.2898 8.68001C24.1032 9.05334 23.8465 9.54334 23.5198 10.15C23.0998 10.99 22.2132 11.76 20.8598 12.46C20.6732 12.6 20.3932 12.67 20.0198 12.67C18.9932 12.67 18.4798 12.2733 18.4798 11.48C18.4798 11.2 18.5498 10.9667 18.6898 10.78C23.9165 3.59334 30.4265 6.79493e-06 38.2198 6.79493e-06C44.6598 6.79493e-06 47.8798 2.21667 47.8798 6.65001C47.8798 11.6433 43.9832 17.01 36.1898 22.75C39.0832 24.15 40.5298 26.53 40.5298 29.89V30.52C40.0632 36.1667 36.3765 40.7867 29.4698 44.38C23.6365 47.4133 17.5698 48.93 11.2698 48.93ZM47.5873 46.76C46.3273 46.76 45.6973 46.1767 45.6973 45.01C45.6973 43.75 46.2806 43.12 47.4473 43.12C48.7073 43.12 49.3373 43.7033 49.3373 44.87C49.3373 46.13 48.7539 46.76 47.5873 46.76Z" fill="#E6C37F"/>
</svg>
