<svg width="29" height="51" viewBox="0 0 29 51" fill="none" xmlns="http://www.w3.org/2000/svg">
<path d="M1.68004 50.2599C0.560039 50.2599 3.9123e-05 49.9566 3.9123e-05 49.3499L0.0700391 49.0699C0.116706 48.8366 0.280039 48.3699 0.560039 47.6699C0.886706 46.9699 1.30671 46.0366 1.82004 44.8699C2.75337 42.6766 3.94337 40.0866 5.39004 37.0999C7.81671 31.9666 10.08 27.3233 12.18 23.1699C14.28 19.0166 16.2167 15.3766 17.99 12.2499C17.3834 12.7166 16.66 13.3466 15.82 14.1399C14.98 14.8866 13.9767 15.7733 12.81 16.7999C12.7167 16.8933 12.5767 16.9399 12.39 16.9399C12.11 16.9399 11.76 16.8233 11.34 16.5899C10.92 16.3566 10.71 16.1233 10.71 15.8899C10.71 15.4233 12.11 13.9999 14.91 11.6199L19.95 7.48993L21.84 5.38993C22.7734 4.40993 23.6134 3.4766 24.36 2.58993C25.1067 1.70326 25.76 0.886595 26.32 0.13993C26.6 0.0465949 26.74 -7.25985e-05 26.74 -7.25985e-05C27.0667 -7.25985e-05 27.44 0.186594 27.86 0.559929C28.28 0.933263 28.49 1.28326 28.49 1.60993L28.42 1.74993C28.0934 2.3566 27.6734 3.00993 27.16 3.70993C26.6467 4.36326 25.9934 5.0866 25.2 5.87993C24.92 6.11326 24.5234 6.50993 24.01 7.06993C23.9167 7.16326 23.4034 7.9566 22.47 9.44993C21.5834 10.8966 20.72 12.3433 19.88 13.7899C19.0867 15.1899 18.2934 16.6366 17.5 18.1299C14.98 22.7966 12.74 27.1833 10.78 31.2899C8.82004 35.3499 7.11671 39.1299 5.67004 42.6299C5.25004 43.6099 4.69004 45.0799 3.99004 47.0399C3.94337 47.3666 3.87337 47.6699 3.78004 47.9499C3.68671 48.2299 3.59337 48.5099 3.50004 48.7899C3.31337 49.4899 2.98671 49.9566 2.52004 50.1899C2.38004 50.2366 2.10004 50.2599 1.68004 50.2599ZM22.639 48.9299C21.379 48.9299 20.749 48.3466 20.749 47.1799C20.749 45.9199 21.3324 45.2899 22.499 45.2899C23.759 45.2899 24.389 45.8733 24.389 47.0399C24.389 48.2999 23.8057 48.9299 22.639 48.9299Z" fill="#E8A390"/>
</svg>
