<svg width="59" height="49" viewBox="0 0 59 49" fill="none" xmlns="http://www.w3.org/2000/svg">
<path d="M31.8501 48.6499C26.2967 48.6499 20.0201 47.6933 13.0201 45.7799V45.8499C10.1734 47.3433 7.67674 48.0899 5.53008 48.0899C4.27008 48.0899 3.10341 47.7866 2.03008 47.1799C0.676745 46.4799 7.78809e-05 45.5699 7.78809e-05 44.4499C7.78809e-05 43.4699 0.490078 42.6766 1.47008 42.0699C2.21674 41.6033 3.15008 41.3699 4.27008 41.3699C5.15674 41.3699 7.93341 42.0699 12.6001 43.4699L13.0201 43.2599L13.3701 43.0499C29.4234 33.1566 39.8301 24.1966 44.5901 16.1699C46.7367 12.5766 47.8101 9.6366 47.8101 7.34993C47.8101 3.94326 45.5467 2.23993 41.0201 2.23993C38.0334 2.23993 34.9301 3.03326 31.7101 4.61993C28.7234 6.0666 26.0867 7.93326 23.8001 10.2199C23.3801 10.6399 22.8667 11.2233 22.2601 11.9699C21.6534 12.6699 20.9534 13.5333 20.1601 14.5599C19.9734 14.8866 19.6701 15.0499 19.2501 15.0499C18.4567 15.0499 18.0601 14.6533 18.0601 13.8599C18.0601 13.6266 18.1534 13.4166 18.3401 13.2299C20.8601 9.54326 24.1967 6.46326 28.3501 3.98993C32.7834 1.32993 37.0767 -7.00951e-05 41.2301 -7.00951e-05C43.7501 -7.00951e-05 45.7801 0.55993 47.3201 1.67993C49.0467 2.93993 49.9101 4.78326 49.9101 7.20993C49.9101 10.1966 48.7667 13.6033 46.4801 17.4299C41.5334 25.7366 31.3134 34.6966 15.8201 44.3099C21.8401 45.7099 27.0901 46.4099 31.5701 46.4099C39.6434 46.4099 43.6101 44.8933 43.4701 41.8599L43.4001 41.4399C43.4001 40.5533 43.7967 40.1099 44.5901 40.1099C45.2901 40.1099 45.6401 40.6466 45.6401 41.7199C45.6401 46.3399 41.0434 48.6499 31.8501 48.6499ZM5.39008 45.7799C6.60341 45.7799 7.95675 45.4766 9.45008 44.8699C7.07008 44.0299 5.53008 43.6099 4.83008 43.6099C3.57008 43.6099 2.94008 43.9599 2.94008 44.6599C2.94008 45.4066 3.75674 45.7799 5.39008 45.7799ZM56.3216 47.1799C55.0616 47.1799 54.4316 46.5966 54.4316 45.4299C54.4316 44.1699 55.015 43.5399 56.1816 43.5399C57.4416 43.5399 58.0716 44.1233 58.0716 45.2899C58.0716 46.5499 57.4883 47.1799 56.3216 47.1799Z" fill="#95B6C4"/>
</svg>
