<svg width="624" height="237" viewBox="0 0 624 237" fill="none" xmlns="http://www.w3.org/2000/svg">
<path d="M624.007 22.89C625.91 20.5861 627.621 19.1786 629.139 18.6675C630.724 18.1511 631.939 18.1534 632.786 18.6742C633.698 19.1899 634.133 20.0695 634.088 21.3133C634.11 22.5518 633.439 23.8122 632.075 25.0945C631.392 25.7357 630.402 26.6948 629.105 27.9719C627.883 29.1777 626.58 30.4878 625.197 31.9022C623.814 33.3165 622.502 34.6926 621.261 36.0305C620.096 37.2972 619.235 38.2788 618.676 38.9755C606.483 54.5568 595.195 69.773 584.814 84.6241C574.442 99.4093 565.231 113.189 557.181 125.964C558.264 126.205 559.357 126.609 560.46 127.175C561.639 127.669 562.704 128.499 563.657 129.664C567.278 127.291 571.033 124.678 574.919 121.826C578.815 118.909 582.583 115.969 586.222 113.006C589.928 110.038 593.382 107.22 596.586 104.553C599.798 101.82 602.537 99.4175 604.801 97.3463C607.132 95.2699 608.866 93.6974 610.003 92.6288C611.15 91.4941 611.505 91.0745 611.069 91.37C612.017 90.7079 612.714 90.4245 613.16 90.52C613.673 90.6101 613.997 90.8784 614.131 91.3248C614.341 91.6999 614.408 92.1515 614.334 92.6796C614.259 93.2077 614.137 93.609 613.966 93.8835C613.891 93.9547 613.166 94.6645 611.792 96.0128C610.428 97.2952 608.575 99.0075 606.235 101.15C603.895 103.292 601.147 105.761 597.991 108.555C594.845 111.283 591.486 114.126 587.913 117.083C584.349 119.974 580.653 122.876 576.823 125.789C573.003 128.635 569.249 131.248 565.561 133.627C566.116 135.28 566.415 137.346 566.459 139.823C566.569 142.294 566.32 145.219 565.711 148.596C565.271 151.241 564.196 154.198 562.485 157.466C560.765 160.8 558.674 164.195 556.214 167.653C553.753 171.11 551.074 174.487 548.176 177.783C545.278 181.079 542.427 184.045 539.622 186.681C536.752 189.322 534.079 191.49 531.604 193.187C529.121 194.949 527.072 195.958 525.458 196.216C522.031 196.747 520.039 195.729 519.482 193.161C518.859 190.6 519.353 186.873 520.965 181.981C522.577 177.089 525.141 171.273 528.657 164.534C532.107 157.801 536.159 150.53 540.812 142.722C539.339 142.447 538.117 141.792 537.146 140.759C536.099 139.797 535.796 138.221 536.237 136.033C536.632 134.174 538.075 132.331 540.569 130.502C542.995 128.68 546.448 127.266 550.928 126.26C555.336 119.255 559.958 112.136 564.793 104.901C569.694 97.6615 574.539 90.5895 579.328 83.6851C584.125 76.7148 588.815 70.0467 593.395 63.6809C598.042 57.3098 602.321 51.4574 606.23 46.1236C610.139 40.7898 613.622 36.1422 616.679 32.1809C619.746 28.1536 622.189 25.0566 624.007 22.89ZM561.038 136.333C558.458 137.841 556.011 139.111 553.697 140.142C551.316 141.178 549.105 141.939 547.064 142.426C543.102 149.07 539.646 155.151 536.696 160.671C533.68 166.195 531.256 171.02 529.424 175.146C527.516 179.344 526.214 182.743 525.517 185.343C524.745 188.015 524.664 189.751 525.274 190.552C525.598 191.048 526.651 190.802 528.434 189.813C530.15 188.83 532.241 187.294 534.705 185.207C537.093 183.192 539.708 180.734 542.55 177.834C545.316 175.005 547.981 171.956 550.547 168.686C553.037 165.488 555.213 162.183 557.075 158.773C558.938 155.363 560.188 152.098 560.826 148.98C561.361 146.131 561.611 143.664 561.577 141.578C561.601 139.552 561.421 137.804 561.038 136.333ZM543.152 138.72C544.089 137.21 545.025 135.7 545.962 134.19C546.898 132.681 547.873 131.135 548.885 129.554C546.902 130.102 545.137 130.959 543.592 132.125C542.047 133.291 541.201 134.63 541.052 136.143C540.904 137.656 541.604 138.515 543.152 138.72ZM550.257 137.279C551.651 136.713 553.098 136.011 554.596 135.175C556.085 134.405 557.66 133.498 559.319 132.454C558.718 131.587 558.024 130.924 557.234 130.464C556.511 129.998 555.775 129.632 555.024 129.365L550.257 137.279Z" fill="white"/>
<path d="M598.016 9.56338C597.649 11.2241 596.536 13.988 594.674 17.8552C592.813 21.7223 590.336 26.2254 587.243 31.3645C584.217 36.4983 580.674 42.0318 576.614 47.9649C572.564 53.832 568.129 59.6315 563.31 65.3634C558.556 71.09 553.522 76.4798 548.207 81.5326C542.892 86.5854 537.494 90.8288 532.014 94.2628C530.199 97.7999 528.574 101.159 527.138 104.34C525.769 107.516 524.665 110.442 523.826 113.119C522.997 115.73 522.471 118.056 522.248 120.097C522.025 122.138 522.219 123.787 522.83 125.045C523.832 127.25 525.605 128.188 528.15 127.857C530.76 127.521 533.74 126.438 537.087 124.608C540.444 122.712 543.971 120.313 547.668 117.411C551.431 114.504 554.966 111.582 558.273 108.645C561.589 105.643 564.474 102.903 566.927 100.425C569.457 97.8761 571.166 96.0118 572.056 94.8321C572.387 94.3491 572.781 94.1223 573.237 94.1517C573.759 94.1758 574.158 94.3729 574.435 94.7428C574.787 95.0415 574.987 95.4826 575.036 96.0662C575.085 96.6499 574.835 97.257 574.286 97.8877C573.339 99.0066 571.487 100.947 568.73 103.71C565.974 106.473 562.719 109.503 558.966 112.801C555.29 116.028 551.323 119.212 547.067 122.354C542.82 125.43 538.762 127.871 534.892 129.676C531.012 131.548 527.539 132.409 524.471 132.259C521.461 132.17 519.263 130.515 517.878 127.295C516.99 125.211 516.869 122.348 517.515 118.707C518.228 115.061 519.505 110.913 521.345 106.264C523.195 101.55 525.524 96.4707 528.331 91.0278C531.147 85.5189 534.244 79.89 537.62 74.1412C541.072 68.3211 544.69 62.488 548.474 56.6418C552.325 50.7904 556.176 45.1673 560.028 39.7727C563.947 34.3729 567.747 29.3414 571.43 24.6781C575.188 19.9436 578.659 15.8519 581.841 12.403C585.033 8.88801 587.856 6.1201 590.311 4.09922C592.775 2.01232 594.704 0.913948 596.1 0.804106C596.831 0.746569 597.359 0.966154 597.683 1.46285C598.073 1.95431 598.341 2.61865 598.485 3.45585C598.63 4.29306 598.623 5.27274 598.464 6.3949C598.381 7.44583 598.232 8.50199 598.016 9.56338ZM593.124 7.20679C592.45 7.32511 591.024 8.57966 588.846 10.9705C586.743 13.29 584.135 16.4 581.02 20.3006C577.905 24.2011 574.436 28.7497 570.612 33.9462C566.864 39.0716 563.003 44.5322 559.028 50.3281C555.12 56.1187 551.222 62.0718 547.334 68.1873C543.455 74.2367 539.894 80.1307 536.651 85.869C541.903 82.1919 547.039 77.708 552.059 72.4173C557.089 67.0606 561.795 61.4355 566.177 55.5423C570.626 49.6438 574.639 43.8122 578.214 38.0477C581.865 32.212 584.906 26.9792 587.335 22.3493C589.764 17.7194 591.503 14.0251 592.55 11.2664C593.607 8.44168 593.798 7.08848 593.124 7.20679Z" fill="white"/>
<path d="M497.83 86.3785C501.257 85.8477 503.746 86.3698 505.298 87.9449C506.85 89.5199 507.273 91.6407 506.567 94.3072C505.871 96.9078 504.576 99.3269 502.682 101.565C500.864 103.731 498.751 105.66 496.343 107.351C494.011 108.971 491.554 110.306 488.974 111.358C486.46 112.404 484.164 113.075 482.085 113.369C478.99 113.873 476.493 113.874 474.592 113.371C472.692 112.868 471.446 112.15 470.855 111.217C469.437 113.809 468.564 116.261 468.237 118.571C468.041 119.957 468.139 121.124 468.531 122.073C468.989 123.016 469.67 123.778 470.573 124.36C471.477 124.941 472.537 125.347 473.753 125.578C475.035 125.804 476.412 125.826 477.884 125.645C481.226 125.251 484.633 124.395 488.105 123.078C491.653 121.689 495.097 120.112 498.435 118.348C501.783 116.518 504.945 114.605 507.922 112.608C510.966 110.606 513.629 108.732 515.914 106.986C518.265 105.234 520.151 103.747 521.572 102.526C523.07 101.233 523.97 100.444 524.273 100.159C525.41 99.0907 526.358 98.4286 527.117 98.173C527.943 97.9122 528.498 97.9338 528.784 98.2377C529.136 98.5363 529.194 99.0539 528.958 99.7905C528.723 100.527 528.112 101.358 527.127 102.285C524.702 104.564 521.494 107.265 517.503 110.385C513.579 113.501 509.275 116.516 504.591 119.43C499.907 122.345 495.013 124.884 489.91 127.048C484.882 129.141 480.013 130.34 475.304 130.645C471.79 130.857 469.14 130.543 467.353 129.705C465.575 128.8 464.319 127.691 463.584 126.378C462.916 125.06 462.581 123.716 462.577 122.345C462.641 120.97 462.69 119.921 462.726 119.2C462.837 117.951 463.294 116.349 464.096 114.393C464.965 112.431 466.147 110.348 467.642 108.141C469.147 105.869 470.95 103.573 473.053 101.253C475.165 98.8675 477.476 96.6946 479.988 94.7345C482.576 92.7032 485.354 90.9506 488.323 89.4767C491.358 87.9976 494.527 86.9649 497.83 86.3785ZM496.817 91.4518C492.337 92.4571 488.021 94.396 483.869 97.2686C479.726 100.075 476.277 103.317 473.523 106.993C474.102 107.078 474.739 107.224 475.432 107.43C476.135 107.571 476.867 107.741 477.627 107.943C478.454 108.139 479.285 108.302 480.121 108.432C480.966 108.496 481.859 108.458 482.799 108.319C484.603 108.112 486.377 107.646 488.123 106.921C489.944 106.125 491.623 105.177 493.158 104.077C494.77 102.905 496.243 101.549 497.579 100.008C498.923 98.401 500.03 96.6168 500.899 94.6554C501.371 93.6391 501.302 92.7307 500.693 91.9301C500.083 91.1295 498.791 90.9701 496.817 91.4518Z" fill="white"/>
<path d="M435.813 88.42C437.85 86.5625 439.643 85.5076 441.19 85.2553C442.737 85.003 443.858 85.2085 444.553 85.8718C445.257 86.4691 445.392 87.3724 444.958 88.5815C444.591 89.7853 443.483 90.8843 441.633 91.8784C436.939 94.402 433.492 96.6967 431.294 98.7627C429.163 100.823 427.843 102.722 427.334 104.46C426.825 106.197 426.953 107.851 427.716 109.423C428.546 110.99 429.533 112.609 430.677 114.281C431.83 115.888 432.964 117.626 434.08 119.497C435.205 121.301 435.874 123.305 436.089 125.507C438.632 124.72 441.26 123.795 443.973 122.733C446.753 121.665 449.532 120.369 452.311 118.845C455.09 117.321 457.901 115.566 460.745 113.58C463.598 111.527 466.465 109.148 469.346 106.44C470.028 105.799 470.673 105.422 471.28 105.309C471.888 105.196 472.372 105.256 472.733 105.488C473.104 105.655 473.248 106.035 473.164 106.63C473.155 107.152 472.805 107.767 472.114 108.475C469.32 111.501 466.411 114.178 463.387 116.505C460.364 118.832 457.278 120.902 454.129 122.717C451.057 124.46 447.913 126.013 444.697 127.375C441.557 128.667 438.506 129.788 435.546 130.739C435.508 131.003 435.377 131.471 435.15 132.141C434.103 134.9 432.751 137.258 431.094 139.216C429.494 141.235 427.779 142.904 425.949 144.223C424.12 145.542 422.266 146.569 420.387 147.305C418.499 148.106 416.739 148.701 415.107 149.091C413.541 149.475 412.193 149.712 411.063 149.801C409.924 149.956 409.188 150.046 408.856 150.072C407.327 150.193 406.035 150.033 404.98 149.594C403.859 149.16 402.95 148.612 402.256 147.948C401.561 147.285 401.075 146.54 400.797 145.713C400.444 144.958 400.305 144.316 400.379 143.788C400.809 140.751 401.871 138.35 403.567 136.585C405.262 134.82 407.434 133.409 410.081 132.352C412.794 131.29 415.911 130.392 419.433 129.657C422.954 128.923 426.76 128.036 430.85 126.996C430.321 124.231 429.461 121.949 428.27 120.15C427.087 118.285 425.944 116.612 424.839 115.133C423.734 113.653 422.856 112.188 422.207 110.738C421.558 109.288 421.501 107.595 422.038 105.66C422.584 103.658 423.903 101.303 425.995 98.5923C428.087 95.8819 431.36 92.4911 435.813 88.42ZM409.1 144.864C411.18 145.026 413.297 144.697 415.45 143.874C417.595 143.118 419.61 142.111 421.497 140.853C423.45 139.589 425.156 138.215 426.615 136.729C428.149 135.173 429.309 133.711 430.094 132.343C426.668 133.331 423.461 134.171 420.471 134.863C417.548 135.55 414.952 136.244 412.684 136.945C410.483 137.64 408.733 138.398 407.434 139.218C406.077 139.978 405.32 140.918 405.161 142.041C404.919 143.757 406.231 144.698 409.1 144.864Z" fill="white"/>
<path d="M379.544 105.479C379.385 106.601 379.387 107.515 379.55 108.22C379.713 108.925 380.293 109.239 381.29 109.16C382.354 109.077 383.948 108.494 386.072 107.413C388.206 106.266 391.198 104.399 395.047 101.811C396.934 100.553 398.262 100.22 399.033 100.812C399.879 101.333 400.266 102.314 400.194 103.756C400.121 105.198 399.622 106.869 398.696 108.769C397.846 110.599 396.663 112.226 395.147 113.651C391.717 116.989 388.634 120.201 385.897 123.289C383.17 126.31 380.907 129.067 379.108 131.558C377.377 134.044 376.195 136.128 375.562 137.81C374.997 139.486 375.104 140.587 375.884 141.114C376.845 141.756 378.61 141.584 381.182 140.599C383.753 139.613 386.967 137.793 390.826 135.14C394.751 132.481 399.253 128.994 404.333 124.677C409.488 120.29 415.126 115.048 421.245 108.953C421.776 108.454 422.421 108.077 423.18 107.822C423.939 107.566 424.537 107.519 424.974 107.68C425.478 107.837 425.683 108.245 425.59 108.905C425.572 109.494 425.024 110.353 423.944 111.482C421.936 113.599 419.634 115.934 417.038 118.488C414.518 120.971 411.827 123.5 408.966 126.075C406.113 128.584 403.137 131.038 400.038 133.436C397.005 135.829 394.009 137.957 391.051 139.822C388.093 141.687 385.219 143.186 382.43 144.319C379.707 145.447 377.197 146.004 374.899 145.989C372.733 145.963 371.099 145.439 369.995 144.417C368.891 143.394 368.744 141.643 369.555 139.164C370.375 136.619 372.399 133.228 375.627 128.993C378.854 124.757 383.746 119.444 390.302 113.053C391.276 111.279 391.796 110.161 391.861 109.699C392.002 109.166 391.76 109.022 391.133 109.267C390.574 109.507 389.716 109.998 388.559 110.742C387.469 111.481 386.179 112.235 384.69 113.005C383.277 113.704 381.711 114.316 379.994 114.843C378.352 115.299 376.695 115.397 375.023 115.137C372.648 114.736 371.131 113.844 370.473 112.459C369.89 111.004 369.782 109.446 370.148 107.785C370.59 106.053 371.35 104.394 372.429 102.808C373.574 101.216 374.73 100.016 375.896 99.2061C377.347 98.2433 378.429 98.256 379.144 99.2442C379.934 100.161 380.067 102.239 379.544 105.479Z" fill="white"/>
<path d="M362.408 93.4136C363.699 93.1162 364.611 93.175 365.144 93.59C365.686 93.9389 366.005 94.4686 366.102 95.1791C366.208 95.8235 366.105 96.5496 365.794 97.3574C365.549 98.16 365.256 98.8357 364.916 99.3847C364.083 100.625 362.819 102.128 361.123 103.893C359.504 105.588 357.789 107.256 355.979 108.9C354.236 110.539 352.644 112.035 351.204 113.388C349.773 114.676 348.897 115.528 348.575 115.945C344.742 121.208 341.984 125.374 340.301 128.444C338.694 131.442 337.896 133.594 337.909 134.898C337.998 136.132 338.749 136.627 340.163 136.385C341.578 136.144 343.39 135.414 345.599 134.195C347.876 132.972 350.402 131.369 353.18 129.388C356.033 127.336 358.868 125.187 361.682 122.942C364.507 120.631 367.198 118.331 369.757 116.041C372.315 113.75 374.447 111.69 376.151 109.858C376.606 109.431 377.095 109.229 377.617 109.253C378.215 109.206 378.724 109.33 379.142 109.623C379.561 109.916 379.832 110.319 379.957 110.832C380.091 111.278 379.931 111.715 379.476 112.142C375.185 116.462 370.878 120.424 366.557 124.027C362.311 127.56 358.268 130.587 354.428 133.109C350.598 135.564 347.108 137.471 343.958 138.828C340.885 140.115 338.403 140.702 336.513 140.589C334.623 140.477 333.467 139.589 333.045 137.925C332.699 136.19 333.3 133.564 334.849 130.048C332.935 131.961 330.96 133.846 328.923 135.704C326.961 137.49 325.057 139.108 323.208 140.559C321.427 142.005 319.711 143.217 318.061 144.196C316.487 145.103 315.092 145.669 313.877 145.896C311.305 146.424 309.439 146.375 308.279 145.749C307.185 145.117 306.575 144.088 306.448 142.662C306.321 141.236 306.626 139.547 307.361 137.596C308.107 135.579 309.061 133.481 310.224 131.3C311.396 129.054 312.701 126.797 314.139 124.53C315.643 122.258 317.057 120.155 318.382 118.223C319.707 116.291 320.899 114.598 321.96 113.144C323.02 111.69 323.72 110.688 324.06 110.139C325.176 108.289 326.35 106.5 327.58 104.771C328.81 103.042 330.041 101.542 331.273 100.27C332.513 98.9322 333.745 97.8888 334.968 97.1398C336.258 96.3855 337.482 96.0933 338.641 96.2632C339.477 96.3932 339.901 96.8821 339.913 97.7298C339.991 98.5722 339.751 99.5702 339.194 100.724C338.703 101.872 338.007 103.069 337.108 104.315C336.219 105.494 335.324 106.479 334.423 107.268C333.002 108.489 331.434 110.049 329.72 111.946C328.081 113.772 326.42 115.763 324.735 117.919C323.049 120.075 321.393 122.262 319.765 124.479C318.137 126.696 316.689 128.801 315.421 130.793C314.163 132.72 313.132 134.433 312.329 135.932C311.601 137.361 311.195 138.372 311.111 138.966C310.916 140.809 311.261 141.859 312.144 142.115C313.037 142.306 314.148 142.121 315.476 141.56C316.814 140.932 318.179 140.107 319.573 139.083C321.032 138.054 322.203 137.211 323.085 136.555C324.999 135.098 327.155 133.101 329.551 130.563C331.948 128.024 334.32 125.422 336.669 122.757C339.017 120.092 341.143 117.607 343.046 115.303C345.025 112.928 346.484 111.214 347.421 110.161C347.913 109.47 348.401 108.811 348.884 108.186C349.442 107.489 350.039 106.757 350.673 105.989C351.875 104.458 353.007 102.966 354.067 101.511C355.127 100.057 356.13 98.7707 357.077 97.6518C358.024 96.5328 358.943 95.6119 359.834 94.8891C360.734 94.1002 361.592 93.6084 362.408 93.4136Z" fill="white"/>
<path d="M261.537 117.998C261.688 117.855 262.072 117.466 262.688 116.83C263.313 116.128 264.047 115.352 264.89 114.503C265.809 113.582 266.761 112.658 267.746 111.732C268.798 110.801 269.793 110.037 270.732 109.441C271.737 108.84 272.61 108.477 273.35 108.354C274.157 108.225 274.742 108.505 275.104 109.195C275.715 110.452 275.671 111.696 274.971 112.926C274.281 114.09 273.372 115.173 272.244 116.176C271.116 117.178 269.974 118.052 268.817 118.795C267.661 119.539 266.893 120.089 266.514 120.445C263.273 123.377 260.702 126.223 258.8 128.983C256.907 131.678 255.536 134.169 254.687 136.455C254.064 138.07 253.688 139.569 253.559 140.95C253.495 142.325 253.693 143.485 254.151 144.428C254.676 145.366 255.465 146.054 256.521 146.493C257.652 146.861 259.124 146.909 260.937 146.635C264.772 146.007 268.476 144.443 272.05 141.942C275.691 139.436 278.965 136.502 281.872 133.14C281.539 133.166 281.117 133.134 280.604 133.044C278.343 132.765 276.561 132.122 275.257 131.115C274.03 130.037 273.12 128.803 272.528 127.413C272.002 126.019 271.747 124.57 271.762 123.068C271.844 121.56 272.078 120.138 272.464 118.802C272.926 117.395 273.654 115.967 274.647 114.518C275.641 113.069 276.848 111.734 278.27 110.512C279.701 109.225 281.298 108.153 283.062 107.296C284.827 106.439 286.682 105.868 288.628 105.585C290.242 105.327 291.747 105.372 293.144 105.719C294.54 106.066 295.658 106.761 296.496 107.805C297.334 108.849 297.789 110.282 297.86 112.104C298.006 113.855 297.599 116.041 296.636 118.662C296.429 119.201 296.183 119.775 295.9 120.385C295.692 120.923 295.409 121.533 295.05 122.214C294.587 123.164 294.053 124.153 293.447 125.18C292.851 126.14 292.218 127.137 291.546 128.169C293.976 127.716 296.5 127.061 299.119 126.202C301.814 125.272 304.427 124.218 306.96 123.039C309.559 121.855 312.006 120.586 314.301 119.23C316.605 117.809 318.619 116.345 320.344 114.838C320.941 114.334 321.468 114.097 321.923 114.126C322.455 114.085 322.826 114.251 323.036 114.626C323.255 114.935 323.322 115.387 323.238 115.981C323.23 116.504 322.989 117.045 322.516 117.605C321.323 119.069 319.432 120.589 316.844 122.163C314.321 123.733 311.448 125.232 308.222 126.66C304.997 128.089 301.596 129.369 298.018 130.499C294.517 131.558 291.257 132.304 288.238 132.737C286.477 134.965 284.531 137.109 282.399 139.169C280.334 141.225 278.097 143.098 275.689 144.789C273.282 146.48 270.749 147.887 268.093 149.01C265.503 150.127 262.808 150.829 260.008 151.115C257.748 151.292 255.763 151.155 254.052 150.702C252.342 150.249 250.973 149.476 249.944 148.382C248.925 147.222 248.347 145.733 248.21 143.916C248.015 142.039 248.328 139.827 249.148 137.282C250.091 134.336 251.583 131.216 253.627 127.922C255.736 124.623 258.373 121.315 261.537 117.998ZM276.5 120.932C276.032 123.776 276.631 125.818 278.296 127.057C279.97 128.231 282.284 128.832 285.237 128.861C286.96 126.441 288.331 124.179 289.352 122.075C290.183 120.378 290.797 118.828 291.192 117.426C291.663 115.953 291.874 114.696 291.824 113.656C291.774 112.615 291.454 111.857 290.864 111.381C290.283 110.84 289.39 110.649 288.185 110.809C286.562 111.133 285.067 111.707 283.702 112.533C282.336 113.358 281.118 114.303 280.048 115.366C279.053 116.358 278.22 117.37 277.548 118.402C276.943 119.429 276.594 120.272 276.5 120.932Z" fill="white"/>
<path d="M225.651 140.6C222.091 145.319 218.581 150.393 215.118 155.822C211.656 161.252 208.137 166.849 204.561 172.613C208.796 172.41 212.62 173.023 216.032 174.452C219.511 175.875 221.93 178.524 223.288 182.399C223.948 184.24 224.042 185.897 223.571 187.37C223.166 188.838 222.518 189.934 221.627 190.657C220.803 191.374 219.911 191.64 218.951 191.455C217.982 191.335 217.263 190.608 216.795 189.274C216.163 187.235 215.47 185.397 214.716 183.759C213.953 182.187 212.99 180.86 211.829 179.776C210.734 178.687 209.37 177.881 207.735 177.357C206.167 176.827 204.262 176.586 202.021 176.632C199.051 181.369 196.085 186.074 193.124 190.746C190.163 195.417 187.202 199.861 184.24 204.076C181.202 208.362 178.144 212.323 175.067 215.96C171.98 219.662 168.859 222.91 165.703 225.705C162.548 228.499 159.372 230.739 156.176 232.427C152.904 234.186 149.602 235.229 146.269 235.557C143.469 235.842 141.322 235.685 139.83 235.084C138.271 234.489 137.144 233.631 136.448 232.511C135.676 231.462 135.255 230.255 135.185 228.89C135.116 227.524 135.131 226.25 135.233 225.067C135.502 222.239 136.434 219.131 138.031 215.741C139.552 212.423 141.713 208.989 144.515 205.44C147.242 201.961 150.491 198.507 154.262 195.077C158.033 191.647 162.227 188.478 166.845 185.568C171.396 182.665 176.357 180.12 181.726 177.935C187.02 175.821 192.562 174.275 198.352 173.298L199.876 172.982C201.985 169.683 204.019 166.455 205.977 163.298C207.935 160.141 209.77 157.157 211.482 154.346C213.261 151.53 214.874 148.955 216.321 146.622C217.777 144.223 219.092 142.128 220.266 140.339C217.641 142.634 215.096 144.597 212.631 146.227C210.166 147.857 208.026 148.809 206.213 149.082C202.977 149.663 200.725 149.318 199.459 148.047C198.259 146.771 197.69 144.988 197.751 142.698C197.812 140.409 198.299 137.89 199.214 135.142C200.138 132.327 201.129 129.736 202.186 127.369C203.254 124.935 204.194 122.935 205.006 121.37C205.886 119.799 206.283 119.083 206.198 119.22C206.614 118.6 207.177 117.641 207.886 116.345C208.671 114.978 209.588 113.6 210.639 112.212C211.756 110.819 213.012 109.61 214.405 108.587C215.808 107.497 217.369 106.918 219.087 106.848C220.141 106.83 220.812 107.201 221.098 107.962C221.452 108.718 221.554 109.623 221.404 110.68C221.255 111.736 220.977 112.769 220.571 113.78C220.232 114.786 219.897 115.531 219.565 116.014C218.827 117.051 217.956 118.099 216.952 119.157C215.948 120.215 214.949 121.24 213.954 122.232C212.969 123.158 212.097 123.978 211.339 124.69C210.581 125.402 210.041 125.967 209.719 126.384C207.8 129.734 206.425 132.485 205.594 134.64C204.773 136.728 204.307 138.396 204.196 139.645C204.001 141.488 204.265 142.642 204.988 143.108C205.777 143.568 206.751 143.654 207.909 143.367C209.067 143.081 210.29 142.56 211.58 141.806C212.879 140.985 213.969 140.247 214.851 139.59C216.396 138.424 218.007 137.024 219.684 135.391C221.427 133.753 223.075 132.089 224.629 130.4C226.248 128.706 227.764 127.053 229.175 125.44C230.586 123.828 231.836 122.424 232.925 121.229C233.909 119.846 234.723 118.737 235.367 117.903C236.02 117.003 236.436 116.383 236.616 116.043C236.947 115.56 237.449 114.802 238.12 113.77C238.801 112.672 239.592 111.5 240.491 110.255C241.466 108.938 242.478 107.585 243.529 106.197C244.646 104.803 245.745 103.542 246.825 102.413C247.904 101.283 248.956 100.352 249.98 99.6185C251.004 98.8852 251.943 98.5176 252.798 98.5156C254.042 98.5482 254.883 98.8736 255.321 99.4919C255.769 100.044 255.965 100.747 255.911 101.6C255.865 102.386 255.649 103.219 255.261 104.099C254.874 104.978 254.482 105.661 254.084 106.149C253.677 106.704 252.626 107.863 250.93 109.629C249.235 111.394 247.388 113.302 245.389 115.352C243.466 117.331 241.657 119.203 239.961 120.969C238.341 122.663 237.366 123.751 237.035 124.234C234.432 127.768 232.184 130.882 230.291 133.577C228.465 136.267 226.918 138.608 225.651 140.6ZM147.882 231.121C151.234 230.662 154.952 228.77 159.036 225.446C163.055 222.127 167.232 217.914 171.569 212.808C175.83 207.773 180.175 202.144 184.604 195.92C188.967 189.702 193.168 183.464 197.208 177.206C192.082 178.132 187.138 179.631 182.376 181.702C177.614 183.774 173.138 186.15 168.947 188.83C164.747 191.576 160.917 194.488 157.459 197.567C153.991 200.712 150.988 203.821 148.45 206.892C145.913 209.964 143.921 212.895 142.475 215.685C140.962 218.481 140.099 220.866 139.886 222.841C139.505 226.461 140.09 228.83 141.641 229.948C143.125 231.072 145.205 231.463 147.882 231.121Z" fill="white"/>
<path d="M142.873 114.314C146.3 113.783 148.789 114.305 150.341 115.88C151.893 117.455 152.316 119.576 151.61 122.243C150.914 124.843 149.619 127.262 147.725 129.5C145.907 131.667 143.794 133.596 141.386 135.287C139.054 136.906 136.597 138.242 134.017 139.293C131.503 140.34 129.207 141.01 127.128 141.304C124.033 141.809 121.536 141.81 119.635 141.306C117.735 140.803 116.489 140.085 115.898 139.153C114.48 141.745 113.607 144.196 113.28 146.506C113.084 147.893 113.182 149.06 113.574 150.008C114.032 150.951 114.713 151.714 115.616 152.295C116.52 152.877 117.58 153.283 118.796 153.514C120.078 153.739 121.455 153.761 122.927 153.58C126.269 153.187 129.676 152.331 133.148 151.013C136.696 149.624 140.14 148.048 143.478 146.284C146.826 144.454 149.988 142.54 152.965 140.544C156.009 138.542 158.672 136.668 160.957 134.921C163.308 133.17 165.194 131.683 166.615 130.461C168.113 129.169 169.013 128.38 169.316 128.095C170.453 127.026 171.401 126.364 172.16 126.109C172.986 125.848 173.541 125.869 173.827 126.173C174.179 126.472 174.237 126.989 174.001 127.726C173.766 128.463 173.155 129.294 172.17 130.22C169.744 132.5 166.537 135.2 162.546 138.321C158.622 141.437 154.318 144.452 149.634 147.366C144.95 150.28 140.056 152.82 134.953 154.984C129.925 157.077 125.056 158.276 120.347 158.581C116.833 158.792 114.183 158.479 112.396 157.64C110.618 156.736 109.362 155.627 108.627 154.314C107.959 152.996 107.624 151.651 107.62 150.281C107.683 148.905 107.733 147.857 107.769 147.136C107.88 145.887 108.337 144.284 109.139 142.328C110.008 140.367 111.19 138.283 112.685 136.077C114.19 133.804 115.993 131.508 118.096 129.189C120.208 126.803 122.519 124.63 125.031 122.67C127.619 120.639 130.397 118.886 133.366 117.412C136.401 115.933 139.57 114.9 142.873 114.314ZM141.86 119.387C137.38 120.393 133.064 122.332 128.912 125.204C124.769 128.011 121.32 131.252 118.565 134.928C119.145 135.013 119.782 135.159 120.475 135.366C121.178 135.506 121.91 135.677 122.67 135.878C123.497 136.074 124.328 136.237 125.164 136.367C126.009 136.431 126.902 136.394 127.842 136.255C129.646 136.047 131.42 135.581 133.166 134.856C134.987 134.06 136.666 133.112 138.201 132.012C139.813 130.841 141.286 129.485 142.622 127.944C143.966 126.337 145.073 124.552 145.942 122.591C146.414 121.575 146.345 120.666 145.736 119.866C145.126 119.065 143.834 118.906 141.86 119.387Z" fill="white"/>
<path d="M43.6012 87.4661C49.0037 83.1897 54.574 79.5855 60.3121 76.6534C66.126 73.6502 71.7375 71.3808 77.1467 69.8454C82.6316 68.2388 87.7101 67.4148 92.3822 67.3735C97.13 67.261 101.177 67.9216 104.523 69.3554C107.879 70.7232 110.329 72.9128 111.875 75.9244C113.487 78.9307 113.872 82.719 113.028 87.2894C112.053 92.3271 110.345 96.9654 107.905 101.204C105.541 105.372 102.835 109.175 99.7853 112.614C96.8116 115.981 93.6614 118.971 90.3345 121.582C87.0077 124.194 83.9363 126.394 81.1202 128.182C78.3135 129.905 75.919 131.268 73.9367 132.273C72.0302 133.206 70.9394 133.716 70.6642 133.803C70.7307 133.798 71.3621 133.748 72.5584 133.654C73.7547 133.56 75.1982 133.577 76.8888 133.705C78.6552 133.761 80.484 134.074 82.3752 134.644C84.3421 135.142 86.0583 136.018 87.5238 137.274C89.0651 138.458 90.1801 140.1 90.869 142.2C91.6243 144.294 91.7021 146.997 91.1023 150.308C90.2961 154.615 88.6726 158.659 86.2318 162.441C83.8667 166.152 81.0213 169.542 77.6956 172.61C74.427 175.74 70.8489 178.502 66.9612 180.897C63.1307 183.352 59.3562 185.412 55.6377 187.075C51.9099 188.804 48.4042 190.125 45.1207 191.036C41.8943 192.008 39.2557 192.542 37.2047 192.638C32.4382 192.883 28.359 192.681 24.9673 192.035C21.6327 191.448 18.8578 190.622 16.6425 189.557C14.4273 188.491 12.6581 187.292 11.3349 185.96C10.0781 184.623 9.11111 183.328 8.43383 182.076C7.81368 180.884 7.36957 179.842 7.1015 178.95C6.83344 178.057 6.64695 177.517 6.54203 177.329C6.32287 177.02 6.01279 176.424 5.6118 175.542C5.26794 174.72 4.96142 173.635 4.69224 172.285C4.42307 170.936 4.27693 169.413 4.25381 167.718C4.24003 165.957 4.51544 164.009 5.08003 161.876C5.37166 160.743 5.97693 159.717 6.89583 158.796C7.88119 157.87 8.89567 157.202 9.93926 156.794C10.9829 156.385 11.9512 156.276 12.8443 156.467C13.7374 156.658 14.2755 157.268 14.4584 158.298C14.6413 159.328 14.6493 160.666 14.4824 162.311C14.3913 163.885 14.2243 165.53 13.9816 167.246C13.8147 168.891 13.5953 170.442 13.3234 171.9C13.118 173.352 13.0304 174.436 13.0607 175.152C13.0525 175.674 13.0541 176.36 13.0657 177.207C13.1344 178.116 13.3599 179.077 13.7422 180.091C14.1816 181.167 14.8537 182.223 15.7583 183.262C16.663 184.3 17.9804 185.208 19.7107 185.986C21.4409 186.764 23.6264 187.342 26.2673 187.722C28.9653 188.162 32.3035 188.259 36.2818 188.011C39.5955 187.815 43.0172 187.089 46.5467 185.832C50.067 184.641 53.4724 183.1 56.763 181.21C60.12 179.314 63.3151 177.169 66.3481 174.776C69.3811 172.384 72.1337 169.882 74.6058 167.273C77.0687 164.729 79.1374 162.183 80.8121 159.636C82.4961 157.023 83.6676 154.549 84.3266 152.212C85.24 149.007 85.2432 146.429 84.3363 144.476C83.4388 142.458 81.9442 140.944 79.8525 139.934C77.7609 138.923 75.2192 138.307 72.2273 138.086C69.2448 137.799 66.0541 137.821 62.6552 138.154C59.3322 138.415 55.9858 138.842 52.616 139.434C49.2463 140.025 46.1331 140.662 43.2763 141.344C40.9602 145.638 39.1029 149.244 37.7046 152.161C36.3062 155.078 35.5505 156.704 35.4373 157.039C35.2017 157.776 34.7807 158.429 34.1743 158.999C33.5773 159.503 32.9704 159.844 32.3536 160.023C31.7461 160.136 31.1759 159.985 30.6431 159.57C30.1103 159.155 29.8283 158.362 29.7969 157.189C29.7749 155.951 30.2975 154.115 31.3647 151.681C32.5076 149.176 33.9538 146.385 35.7031 143.31L31.7031 144.408C29.7197 144.956 28.4704 144.728 27.9552 143.724C27.4399 142.72 27.5036 141.573 28.1462 140.282C28.8646 138.92 30.0535 137.717 31.7128 136.673C33.3721 135.628 35.3893 135.306 37.7643 135.707C37.8121 135.834 38.7093 135.763 40.456 135.495C42.4898 132.267 44.5522 129.069 46.6432 125.902C48.7435 122.669 50.6689 119.743 52.4194 117.125C54.2363 114.502 55.7266 112.328 56.8905 110.605C58.0543 108.881 58.6882 107.885 58.792 107.616C58.9902 107.143 59.3588 106.396 59.8976 105.374C60.5029 104.348 61.241 103.31 62.1122 102.263C62.9926 101.149 63.9541 100.16 64.9966 99.2942C66.1148 98.3576 67.2815 97.7763 68.4964 97.5501C70.4238 97.3984 71.6067 97.6317 72.045 98.2499C72.4833 98.8682 72.5421 99.6142 72.2214 100.488C71.9671 101.357 71.4802 102.244 70.7607 103.149C70.1169 103.983 69.6056 104.578 69.2266 104.934C67.1894 106.791 65.186 108.875 63.2164 111.184C61.2468 113.493 59.325 115.929 57.4509 118.491C55.6434 121.049 53.8597 123.67 52.0999 126.354C50.4066 129.033 48.7844 131.674 47.2334 134.276C50.0807 133.66 53.317 132.851 56.9421 131.848C60.6431 130.773 64.4525 129.396 68.3703 127.717C72.364 125.967 76.3379 123.892 80.292 121.492C84.3126 119.086 88.033 116.248 91.4532 112.976C94.9398 109.699 98.0313 105.963 100.728 101.769C103.433 97.5094 105.458 92.7155 106.803 87.3876C107.678 83.9898 107.315 81.2115 105.715 79.0528C104.19 76.8229 101.855 75.2117 98.7091 74.219C95.6299 73.2211 91.9396 72.8262 87.6383 73.0341C83.4035 73.2369 79.0135 74.0719 74.4683 75.5393C69.9325 76.9407 65.4363 78.9917 60.9796 81.6924C56.5894 84.3878 52.6707 87.6988 49.2236 91.6255C45.6062 95.8267 42.593 98.5443 40.184 99.7783C37.7843 100.946 36.0079 100.727 34.855 99.1207C34.4073 98.5684 34.1777 97.8685 34.1661 97.0208C34.221 96.1679 34.5465 95.2611 35.1424 94.3004C35.8141 93.2684 36.8228 92.1772 38.1685 91.0269C39.5142 89.8766 41.3251 88.6897 43.6012 87.4661Z" fill="white"/>
</svg>
