<svg width="344" height="100" viewBox="0 0 344 100" fill="none" xmlns="http://www.w3.org/2000/svg">
<path d="M296.895 29.1428C297.94 29.1859 298.482 29.5192 298.52 30.1429C298.606 30.7209 298.423 31.4247 297.969 32.2541C297.564 33.038 297 33.8969 296.279 34.831C295.607 35.7194 295.074 36.5133 294.681 37.2127C294.463 37.5641 294.136 38.2373 293.701 39.2324C293.314 40.1819 292.886 41.2809 292.415 42.5295C291.944 43.7781 291.485 45.0884 291.038 46.4603C290.641 47.7867 290.297 49.0252 290.008 50.1759C289.719 51.3266 289.542 52.2805 289.477 53.0376C289.455 53.7913 289.611 54.1759 289.945 54.1914C290.273 54.2491 290.844 53.9326 291.657 53.242C292.475 52.5092 293.406 51.5795 294.449 50.4531C295.54 49.281 296.691 47.9789 297.903 46.5467C299.115 45.1145 300.267 43.6661 301.357 42.2017C302.496 40.6917 303.517 39.2745 304.419 37.9502C305.321 36.6259 306.03 35.484 306.544 34.5245C306.889 33.8707 307.258 33.4865 307.653 33.3719C308.096 33.2117 308.495 33.2221 308.848 33.4032C309.206 33.5421 309.441 33.816 309.552 34.2251C309.704 34.6308 309.639 35.0955 309.354 35.6192C307.739 38.7124 306.434 41.6977 305.438 44.5751C304.491 47.4069 303.819 49.9245 303.423 52.128C303.076 54.2859 302.974 56.0485 303.117 57.4159C303.266 58.741 303.654 59.4207 304.28 59.4549C304.699 59.4637 305.731 58.8603 307.375 57.6447C309.019 56.4292 310.975 54.7922 313.243 52.7338C315.56 50.6298 318.003 48.2233 320.573 45.5145C323.192 42.76 325.635 39.915 327.9 36.9795C330.172 34.0017 332.128 31.0279 333.768 28.0581C335.414 25.046 336.422 22.2303 336.792 19.6111C336.882 18.9774 337.042 18.4426 337.272 18.0067C337.507 17.5286 337.771 17.1528 338.062 16.8793C338.359 16.5634 338.644 16.3321 338.917 16.1853C339.196 15.9962 339.403 15.8756 339.536 15.8233C340.763 15.4761 341.666 15.6348 342.245 16.2994C342.824 16.964 342.857 17.9223 342.343 19.1742C340.542 23.2847 338.336 27.2808 335.726 31.1625C333.165 34.9986 330.445 38.6174 327.566 42.0189C324.694 45.3782 321.778 48.4485 318.819 51.2297C315.902 54.0075 313.194 56.3512 310.695 58.2608C308.244 60.1247 306.135 61.5021 304.369 62.3931C302.597 63.3264 301.439 63.6263 300.898 63.293C300.472 63.0341 300.067 62.7735 299.683 62.5112C299.3 62.249 299.049 61.6421 298.931 60.6905C298.85 59.7778 298.926 58.3515 299.158 56.4115C299.439 54.4259 300.006 51.6032 300.86 47.9432C298.151 50.7466 295.931 52.9056 294.203 54.4202C292.475 55.9349 291.058 57.0281 289.954 57.6999C288.898 58.3261 288.057 58.622 287.43 58.5878C286.804 58.5535 286.218 58.3908 285.67 58.0997C285.317 57.9186 285.164 57.3667 285.21 56.444C285.299 55.5179 285.5 54.395 285.813 53.0753C286.131 51.7134 286.553 50.2181 287.078 48.5893C287.603 46.9605 288.149 45.33 288.716 43.6979C289.284 42.0657 289.839 40.5181 290.382 39.0549C290.926 37.5918 291.376 36.3449 291.732 35.3142C292.504 33.1229 293.382 31.529 294.364 30.5326C295.346 29.5362 296.19 29.073 296.895 29.1428Z" fill="white"/>
<path d="M271.67 32.632C273.864 32.2923 275.457 32.6265 276.45 33.6345C277.443 34.6425 277.714 35.9998 277.262 37.7064C276.816 39.3707 275.987 40.919 274.775 42.3512C273.612 43.7379 272.26 44.9722 270.719 46.0544C269.226 47.0909 267.654 47.9457 266.002 48.6188C264.394 49.2885 262.924 49.7175 261.593 49.9058C259.613 50.2287 258.014 50.2292 256.798 49.9072C255.582 49.5851 254.784 49.1257 254.406 48.5288C253.499 50.1877 252.94 51.7565 252.731 53.2351C252.606 54.1223 252.668 54.8693 252.919 55.4762C253.212 56.0798 253.648 56.5677 254.226 56.94C254.804 57.3122 255.483 57.5721 256.261 57.7198C257.082 57.864 257.963 57.8782 258.905 57.7623C261.043 57.5105 263.224 56.9629 265.446 56.1196C267.717 55.2306 269.921 54.2217 272.058 53.0927C274.2 51.9214 276.224 50.6969 278.129 49.419C280.077 48.1377 281.782 46.9383 283.244 45.8206C284.748 44.6995 285.956 43.7481 286.865 42.9663C287.824 42.139 288.4 41.6341 288.594 41.4517C289.321 40.7678 289.928 40.3441 290.414 40.1805C290.942 40.0136 291.298 40.0274 291.481 40.2219C291.706 40.413 291.743 40.7443 291.592 41.2157C291.442 41.6871 291.051 42.2192 290.42 42.8119C288.868 44.2709 286.815 45.9991 284.261 47.9964C281.75 49.9904 278.995 51.92 275.997 53.7852C273 55.6504 269.868 57.2755 266.601 58.6606C263.383 60 260.267 60.7674 257.253 60.9629C255.005 61.098 253.309 60.8973 252.165 60.3607C251.027 59.7818 250.223 59.0723 249.753 58.232C249.326 57.3883 249.111 56.5279 249.109 55.6508C249.149 54.7703 249.181 54.0994 249.204 53.638C249.275 52.8387 249.567 51.8131 250.081 50.5611C250.637 49.3059 251.393 47.9722 252.35 46.56C253.313 45.1057 254.467 43.6362 255.813 42.1517C257.164 40.6249 258.644 39.2343 260.251 37.9799C261.908 36.6798 263.686 35.5581 265.586 34.6149C267.528 33.6682 269.556 33.0073 271.67 32.632ZM271.022 35.8789C268.155 36.5223 265.393 37.7632 262.735 39.6017C260.084 41.3978 257.876 43.4723 256.113 45.8252C256.484 45.8796 256.892 45.9728 257.336 46.105C257.786 46.1949 258.254 46.3043 258.74 46.4331C259.27 46.5586 259.802 46.6629 260.337 46.7461C260.878 46.7871 261.449 46.763 262.05 46.6739C263.205 46.5413 264.341 46.243 265.458 45.7791C266.623 45.2696 267.698 44.6629 268.68 43.9589C269.712 43.2093 270.655 42.3413 271.509 41.355C272.37 40.3264 273.078 39.1845 273.634 37.9292C273.937 37.2788 273.893 36.6974 273.502 36.185C273.112 35.6726 272.285 35.5706 271.022 35.8789Z" fill="white"/>
<path d="M240.48 34.2723C241.234 34.2965 241.751 34.5065 242.032 34.9022C242.318 35.2556 242.444 35.7052 242.409 36.2511C242.38 36.7547 242.241 37.2878 241.993 37.8504C241.794 38.3674 241.567 38.7821 241.313 39.0946C241.052 39.4493 240.491 39.9947 239.63 40.7309C238.811 41.4638 237.926 42.2228 236.974 43.0079C236.021 43.7931 235.136 44.552 234.317 45.2849C233.547 45.9722 233.056 46.4703 232.844 46.7795C229.573 51.1727 227.278 54.6119 225.959 57.0969C224.682 59.5786 223.982 61.4092 223.857 62.5888C223.732 63.7683 223.947 64.4825 224.5 64.7314C225.06 64.938 225.558 64.9823 225.996 64.8643C226.694 64.684 227.708 64.2074 229.037 63.4343C230.372 62.6191 231.88 61.6231 233.561 60.4464C235.29 59.2242 237.122 57.8685 239.057 56.3794C241.035 54.8869 242.997 53.3538 244.944 51.7802C246.897 50.1643 248.762 48.5763 250.539 47.016C252.359 45.4525 253.975 43.9884 255.388 42.624C255.679 42.3504 255.928 42.2264 256.134 42.2519C256.384 42.2741 256.578 42.3841 256.719 42.5819C256.859 42.7797 256.905 43.0476 256.857 43.3856C256.858 43.678 256.731 43.9804 256.477 44.2929C255.968 44.9178 255.007 45.9125 253.594 47.277C252.187 48.5992 250.501 50.1105 248.536 51.8108C246.577 53.4689 244.46 55.2021 242.186 57.0104C239.954 58.8154 237.739 60.4936 235.543 62.045C233.347 63.5965 231.311 64.9056 229.435 65.9722C227.554 67.0812 226.009 67.7458 224.8 67.9663C223.5 68.2357 222.518 68.0415 221.854 67.3835C221.19 66.7256 220.902 65.6412 220.989 64.1304C221.023 62.9998 221.314 61.6818 221.864 60.1764C222.456 58.6677 223.136 57.1311 223.904 55.5667C224.72 53.9567 225.595 52.384 226.527 50.8484C227.465 49.2707 228.361 47.8424 229.215 46.5637C230.075 45.2428 230.798 44.1414 231.386 43.2597C232.016 42.3746 232.412 41.8003 232.576 41.5368C232.848 41.0976 233.275 40.4582 233.857 39.6187C234.438 38.7792 235.077 37.9769 235.774 37.2119C236.477 36.4046 237.226 35.719 238.021 35.1551C238.864 34.5457 239.684 34.2514 240.48 34.2723ZM251.017 22.2262C251.393 21.9459 251.836 21.6395 252.346 21.307C252.898 20.9711 253.441 20.6985 253.976 20.4894C254.51 20.2802 254.987 20.18 255.406 20.1888C255.868 20.1942 256.175 20.3998 256.328 20.8055C256.433 21.2569 256.234 21.92 255.732 22.7951C255.29 23.5401 254.623 24.3863 253.732 25.3337C252.89 26.2355 251.965 27.1229 250.958 27.9959C249.957 28.8266 248.947 29.5745 247.928 30.2396C246.908 30.9047 246.028 31.3291 245.287 31.5128C244.801 31.6763 244.437 31.7259 244.194 31.6615C243.956 31.5548 243.786 31.422 243.682 31.2631C243.584 31.0619 243.55 30.8557 243.58 30.6445C243.61 30.4332 243.634 30.2642 243.652 30.1375C243.791 29.7506 244.096 29.2252 244.569 28.5614C245.084 27.8942 245.687 27.1992 246.378 26.4764C247.075 25.7114 247.812 24.9641 248.588 24.2346C249.412 23.4595 250.222 22.79 251.017 22.2262Z" fill="white"/>
<path d="M207.735 39.2942C208.501 39.5263 208.927 39.9314 209.014 40.5094C209.1 41.0875 209.008 41.7423 208.736 42.4739C208.47 43.1632 208.098 43.8609 207.62 44.567C207.19 45.2274 206.842 45.7562 206.575 46.1531C206.369 46.42 205.918 47.0821 205.222 48.1395C204.525 49.197 203.72 50.4301 202.806 51.8389C201.94 53.2021 201.038 54.6726 200.1 56.2503C199.21 57.7825 198.466 59.1779 197.867 60.4365C197.317 61.6495 196.991 62.6152 196.89 63.3333C196.831 64.0482 197.175 64.2926 197.922 64.0668C200.424 63.3267 202.955 62.0831 205.516 60.3359C208.076 58.5887 210.457 56.4796 212.657 54.0088C214.857 51.538 216.786 48.7543 218.444 45.6577C220.15 42.5155 221.354 39.204 222.057 35.7231C222.285 34.7025 222.627 33.7774 223.08 32.948C223.583 32.0729 224.192 31.4819 224.908 31.1748C225.176 31.0702 225.458 31.0062 225.756 30.9828C226.102 30.9138 226.388 30.9748 226.613 31.166C226.887 31.3115 227.094 31.6294 227.235 32.1196C227.376 32.6099 227.396 33.3602 227.296 34.3708C227.093 36.0996 226.475 38.0908 225.441 40.3445C224.413 42.556 223.082 44.8331 221.447 47.1759C219.854 49.5154 218.012 51.8327 215.921 54.1279C213.872 56.4197 211.707 58.4909 209.427 60.3414C207.189 62.1886 204.886 63.7484 202.519 65.0209C200.2 66.2478 197.971 66.9872 195.833 67.239C194.678 67.3717 194.024 66.9427 193.869 65.9523C193.758 64.9584 193.919 63.6716 194.352 62.0918C194.792 60.4697 195.423 58.6863 196.245 56.7417C197.115 54.7515 197.967 52.8881 198.802 51.1514C199.636 49.4146 200.353 47.917 200.952 46.6584C201.599 45.3541 201.922 44.5559 201.921 44.2635C201.896 43.8477 202.053 43.3341 202.392 42.7225C202.736 42.0687 203.182 41.4488 203.727 40.8628C204.273 40.2768 204.882 39.8319 205.556 39.5282C206.279 39.179 207.005 39.1009 207.735 39.2942Z" fill="white"/>
<path d="M172.782 46.6809C172.681 47.3991 172.682 47.9839 172.787 48.4352C172.891 48.8865 173.262 49.0871 173.9 49.0368C174.581 48.9833 175.601 48.6106 176.961 47.9187C178.326 47.1846 180.241 45.9895 182.704 44.3334C183.912 43.5282 184.762 43.3151 185.255 43.694C185.797 44.0274 186.045 44.6554 185.998 45.5781C185.952 46.5009 185.632 47.5704 185.04 48.7868C184.496 49.9576 183.739 50.9989 182.768 51.9108C180.573 54.047 178.6 56.1031 176.849 58.0791C175.103 60.0128 173.655 61.777 172.504 63.3715C171.395 64.9626 170.639 66.2963 170.234 67.3726C169.872 68.4455 169.941 69.1503 170.44 69.487C171.055 69.8981 172.185 69.7883 173.831 69.1575C175.476 68.5267 177.534 67.3621 180.003 65.6638C182.515 63.9622 185.396 61.7302 188.647 58.9677C191.947 56.1597 195.555 52.8053 199.471 48.9043C199.811 48.5851 200.224 48.3438 200.709 48.1802C201.195 48.0166 201.578 47.9865 201.858 48.0898C202.18 48.1898 202.312 48.451 202.252 48.8734C202.241 49.2503 201.889 49.8001 201.198 50.5229C199.913 51.8774 198.44 53.3719 196.779 55.0066C195.166 56.5957 193.444 58.2143 191.612 59.8623C189.787 61.4682 187.882 63.0385 185.899 64.5732C183.958 66.1046 182.04 67.4669 180.147 68.6604C178.254 69.8538 176.415 70.8131 174.629 71.5385C172.887 72.2605 171.28 72.6167 169.81 72.6071C168.424 72.5909 167.378 72.2554 166.671 71.6009C165.964 70.9463 165.871 69.8257 166.389 68.2392C166.914 66.6104 168.209 64.4405 170.275 61.7296C172.341 59.0187 175.472 55.6182 179.668 51.5281C180.291 50.3929 180.624 49.6774 180.665 49.3817C180.756 49.0404 180.601 48.9482 180.2 49.105C179.842 49.2586 179.292 49.5733 178.552 50.0493C177.854 50.522 177.029 51.0047 176.076 51.4975C175.171 51.9447 174.17 52.3368 173.07 52.674C172.02 52.9656 170.959 53.0281 169.889 52.8617C168.369 52.6053 167.398 52.0342 166.977 51.1483C166.604 50.2168 166.535 49.2197 166.769 48.1568C167.052 47.0484 167.539 45.9866 168.229 44.9714C168.962 43.9528 169.702 43.1844 170.448 42.6662C171.376 42.05 172.069 42.0581 172.526 42.6906C173.032 43.2774 173.118 44.6075 172.782 46.6809Z" fill="white"/>
<path d="M154.217 41.8762C156.411 41.5365 158.004 41.8706 158.997 42.8786C159.99 43.8866 160.261 45.2439 159.809 46.9505C159.363 48.6149 158.534 50.1632 157.322 51.5954C156.159 52.982 154.806 54.2164 153.265 55.2985C151.773 56.3351 150.201 57.1899 148.549 57.8629C146.94 58.5326 145.471 58.9616 144.14 59.1499C142.16 59.4729 140.561 59.4733 139.345 59.1513C138.129 58.8293 137.331 58.3698 136.953 57.7729C136.045 59.4319 135.487 61.0006 135.278 62.4793C135.152 63.3664 135.215 64.1135 135.466 64.7204C135.759 65.3239 136.195 65.8118 136.773 66.1841C137.351 66.5563 138.029 66.8163 138.808 66.9639C139.629 67.1082 140.51 67.1224 141.452 67.0065C143.59 66.7546 145.771 66.207 147.993 65.3637C150.264 64.4748 152.468 63.4658 154.604 62.3368C156.747 61.1656 158.771 59.941 160.676 58.6631C162.624 57.3819 164.329 56.1824 165.791 55.0647C167.295 53.9437 168.502 52.9923 169.412 52.2105C170.37 51.3831 170.947 50.8782 171.141 50.6958C171.868 50.0119 172.475 49.5882 172.961 49.4246C173.489 49.2577 173.845 49.2715 174.028 49.466C174.253 49.6572 174.29 49.9884 174.139 50.4598C173.989 50.9312 173.598 51.4633 172.967 52.056C171.415 53.515 169.362 55.2432 166.808 57.2406C164.297 59.2346 161.542 61.1642 158.544 63.0294C155.547 64.8946 152.414 66.5197 149.148 67.9047C145.93 69.2441 142.814 70.0116 139.8 70.207C137.552 70.3422 135.856 70.1414 134.712 69.6048C133.574 69.026 132.77 68.3164 132.3 67.4761C131.872 66.6324 131.658 65.772 131.655 64.8949C131.696 64.0144 131.728 63.3435 131.751 62.8822C131.822 62.0828 132.114 61.0572 132.628 59.8053C133.184 58.55 133.94 57.2163 134.897 55.8042C135.86 54.3498 137.014 52.8803 138.36 51.3958C139.711 49.8691 141.191 48.4785 142.798 47.224C144.454 45.9239 146.232 44.8023 148.132 43.859C150.075 42.9124 152.103 42.2514 154.217 41.8762ZM153.569 45.1231C150.702 45.7665 147.939 47.0074 145.282 48.8458C142.63 50.642 140.423 52.7165 138.66 55.0694C139.031 55.1237 139.439 55.217 139.883 55.3491C140.333 55.4391 140.801 55.5484 141.287 55.6772C141.816 55.8027 142.348 55.907 142.883 55.9903C143.424 56.0312 143.996 56.0072 144.597 55.9181C145.752 55.7854 146.887 55.4872 148.005 55.0233C149.17 54.5138 150.244 53.907 151.227 53.203C152.259 52.4534 153.202 51.5855 154.056 50.5991C154.917 49.5706 155.625 48.4286 156.181 47.1734C156.483 46.5229 156.439 45.9415 156.049 45.4292C155.659 44.9168 154.832 44.8148 153.569 45.1231Z" fill="white"/>
<path d="M180.549 6.15289C182.487 6.12564 184.026 6.40145 185.164 6.98031C186.344 7.55582 186.95 8.17652 186.982 8.84242C187.057 9.50497 186.484 10.1349 185.264 10.7323C184.05 11.2873 182.036 11.5503 179.222 11.5211C178.59 11.5291 177.93 11.4348 177.243 11.2382C176.598 11.0383 175.953 10.8384 175.309 10.6385C174.664 10.4385 174.08 10.2547 173.557 10.087C173.034 9.91931 172.605 9.82772 172.271 9.81226C166.138 9.7518 160.311 10.0642 154.788 10.7495C149.265 11.4349 144.116 12.2996 139.342 13.3438C135.912 17.666 132.575 22.2316 129.329 27.0406C126.125 31.8463 123.162 36.5913 120.438 41.2757C117.721 45.9179 115.328 50.3464 113.26 54.5615C111.197 58.7343 109.611 62.3684 108.5 65.4636C107.432 68.5556 106.9 70.9787 106.904 72.7329C106.957 74.4416 107.721 75.1334 109.197 74.8084C110.625 74.5289 112.258 73.8364 114.097 72.7308C115.936 71.6253 117.844 70.3262 119.822 68.8338C121.805 67.299 123.758 65.6832 125.681 63.9862C127.646 62.2858 129.404 60.7061 130.957 59.2471C132.558 57.7425 133.895 56.4676 134.968 55.4222C136.041 54.3769 136.699 53.7403 136.941 53.5123C137.324 53.1898 137.642 53.0185 137.897 52.9984C138.159 52.9361 138.365 52.9616 138.518 53.075C138.712 53.185 138.837 53.3422 138.892 53.5468C138.948 53.7513 138.963 53.9381 138.939 54.1071C138.921 54.2338 138.364 54.9043 137.267 56.1186C136.176 57.2907 134.727 58.7624 132.92 60.5339C131.162 62.2597 129.151 64.1308 126.889 66.1469C124.627 68.1631 122.298 70.0592 119.902 71.8353C117.511 73.5692 115.157 75.0495 112.838 76.2764C110.514 77.5455 108.437 78.2521 106.608 78.396C105.119 78.5132 104.115 78.0282 103.596 76.9411C103.077 75.854 102.936 74.3194 103.174 72.3372C103.461 70.3093 104.094 67.9201 105.071 65.1695C106.055 62.3766 107.282 59.3558 108.751 56.107C110.22 52.8582 111.901 49.4464 113.795 45.8718C115.688 42.2971 117.709 38.7124 119.858 35.1176C122.007 31.5229 124.208 28.0076 126.46 24.5718C128.761 21.0904 131.054 17.8186 133.337 14.7563C130.064 15.5988 127.082 16.4601 124.391 17.3403C121.75 18.1748 119.454 18.9404 117.505 19.6368C115.556 20.3333 114.001 20.9152 112.842 21.3825C111.724 21.8464 111.057 22.1078 110.838 22.1668C109.969 22.3605 109.346 22.3051 108.969 22.0006C108.634 21.6928 108.502 21.2854 108.574 20.7784C108.645 20.2715 108.863 19.7739 109.226 19.2858C109.638 18.752 110.178 18.3544 110.846 18.093C111.065 18.034 111.794 17.7887 113.032 17.357C114.277 16.883 115.977 16.3105 118.133 15.6396C120.332 14.9652 122.937 14.238 125.95 13.4578C128.963 12.6776 132.355 11.8884 136.127 11.0902C137.097 9.88596 138.015 8.74842 138.881 7.6776C139.796 6.56119 140.699 5.52927 141.59 4.58184C142.136 3.99581 142.709 3.65825 143.311 3.56914C143.961 3.43443 144.502 3.4754 144.934 3.69206C145.366 3.90871 145.631 4.26382 145.73 4.75738C145.877 5.20536 145.726 5.67676 145.277 6.17159L142.096 9.93118C147.539 8.91793 153.462 8.07575 159.867 7.40462C166.319 6.68791 173.213 6.27066 180.549 6.15289Z" fill="white"/>
<path d="M75.5077 47.9459C76.7718 47.93 77.4258 48.2127 77.4698 48.7942C77.5622 49.33 77.3207 49.9965 76.7453 50.7938C76.2124 51.5877 75.4851 52.4178 74.5634 53.284C73.6477 54.1081 72.838 54.7776 72.1342 55.2925C71.7521 55.615 71.1065 56.3133 70.1975 57.3875C69.331 58.4583 68.3768 59.7031 67.3349 61.122C66.293 62.5408 65.2421 64.023 64.1823 65.5686C63.1285 67.0719 62.2444 68.4156 61.5301 69.5998C60.8218 70.7417 60.3408 71.6151 60.087 72.2199C59.8817 72.7792 60.0854 72.8258 60.6981 72.3598C63.4326 69.6798 65.9884 67.2228 68.3654 64.9887C69.3841 64.0312 70.424 63.0721 71.4853 62.1113C72.5465 61.1504 73.5563 60.2563 74.5145 59.429C75.4728 58.6016 76.331 57.8865 77.0893 57.2837C77.896 56.6354 78.5513 56.1661 79.055 55.8758C80.0684 55.2529 80.9792 54.9097 81.7874 54.8461C82.5956 54.7825 83.2675 54.9385 83.8033 55.3141C84.3875 55.6441 84.796 56.1759 85.0288 56.9095C85.31 57.5976 85.4304 58.3819 85.39 59.2623C85.3907 59.5547 85.1645 60.2618 84.7114 61.3837C84.3069 62.4599 83.8328 63.7296 83.2894 65.1928C82.7945 66.6103 82.2876 68.1124 81.7688 69.6989C81.2925 71.2821 80.9618 72.7285 80.7766 74.0382C80.6398 75.3022 80.7002 76.3627 80.9575 77.2198C81.2634 78.0312 81.9297 78.3757 82.9565 78.2531C83.5095 78.2095 84.3654 77.808 85.5244 77.0483C86.6774 76.331 88.0092 75.3906 89.5197 74.2274C91.0361 73.0218 92.6799 71.6601 94.4508 70.1421C96.2218 68.6241 97.9805 67.0444 99.7268 65.403C101.522 63.7161 103.232 62.0358 104.856 60.3622C106.524 58.6853 108.009 57.1062 109.312 55.6251C109.863 54.9968 110.352 54.6659 110.777 54.6324C111.208 54.5567 111.531 54.6567 111.744 54.9323C111.964 55.1657 112.04 55.5148 111.975 55.9795C111.909 56.4442 111.658 56.8817 111.221 57.2921C111.173 57.3377 110.536 57.9726 109.311 59.197C108.087 60.4213 106.547 61.942 104.691 63.759C102.836 65.5761 100.75 67.5366 98.4335 69.6407C96.1595 71.7413 93.9247 73.7136 91.7291 75.5574C89.5394 77.359 87.495 78.8776 85.5957 80.1133C83.7389 81.3456 82.2818 81.9825 81.2244 82.0239C79.3163 82.1323 78.0844 81.6235 77.5286 80.4975C77.0153 79.3682 76.8599 77.9391 77.0623 76.2104C77.3073 74.4783 77.7616 72.6044 78.4253 70.5887C79.1314 68.5696 79.7499 66.7246 80.2807 65.0536C80.8599 63.3369 81.1787 61.975 81.2371 60.9678C81.3439 59.915 80.9205 59.4888 79.9668 59.6892C79.0982 59.8829 78.0116 60.4279 76.7071 61.3243C75.4026 62.2207 74.0104 63.2911 72.5305 64.5356C71.0565 65.7377 69.5676 67.0455 68.0638 68.4589C66.566 69.8301 65.1805 71.1507 63.9073 72.4206C62.64 73.6483 61.5426 74.7164 60.6149 75.6249C59.6932 76.4912 59.0686 77.0417 58.7409 77.2763C58.2312 77.6089 57.785 77.7902 57.4021 77.8203C57.0193 77.8505 56.691 77.7928 56.4171 77.6472C56.1067 77.4628 55.8874 77.2294 55.7591 76.947C55.5882 76.668 55.5024 76.3824 55.5017 76.09C55.5122 75.4207 55.8138 74.4779 56.4065 73.2616C56.9626 72.0063 57.6582 70.6565 58.4934 69.2122C59.3771 67.7222 60.3306 66.185 61.3539 64.6005C62.4197 63.0127 63.4038 61.5567 64.3061 60.2324C65.2144 58.8658 65.9895 57.6978 66.6314 56.7282C67.3218 55.713 67.7517 55.0525 67.9211 54.7468C68.1629 54.2264 68.5686 53.5887 69.1381 52.8337C69.7075 52.0787 70.3378 51.3398 71.0289 50.617C71.7625 49.8909 72.5025 49.2686 73.2487 48.7504C74.0376 48.2288 74.7905 47.9606 75.5077 47.9459Z" fill="white"/>
<path d="M80.1038 1.14923C81.1844 0.64643 82.0925 0.470515 82.8283 0.62149C83.5641 0.772464 84.1241 1.12526 84.5083 1.67988C84.8985 2.19226 85.1189 2.86422 85.1696 3.69575C85.2202 4.52729 85.0977 5.39334 84.8021 6.2939C83.8668 9.04117 82.5131 12.2182 80.7411 15.8251C78.9751 19.3897 76.8998 23.2085 74.5151 27.2813C72.179 31.3086 69.5637 35.5249 66.6693 39.9303C63.7809 44.2934 60.7436 48.6683 57.5574 53.0549C54.3772 57.3992 51.1056 61.6463 47.7427 65.7961C44.4222 69.9426 41.1163 73.8373 37.8251 77.4802C38.1899 77.5768 38.6216 77.6473 39.1201 77.6916C39.6186 77.7359 40.1656 77.7347 40.761 77.6878C41.867 77.6008 42.5967 77.794 42.9504 78.2675C43.31 78.6987 43.3629 79.2167 43.1091 79.8216C42.9039 80.3808 42.4281 80.9196 41.6818 81.4378C40.9721 81.995 40.0855 82.3154 39.0221 82.3991C37.1506 82.5464 35.5149 82.2156 34.1151 81.4067C31.6052 83.9855 29.1678 86.3496 26.8027 88.4993C24.4377 90.6489 22.1813 92.4766 20.0335 93.9825C17.8797 95.5306 15.8587 96.734 13.9707 97.5928C12.1252 98.4483 10.4428 98.894 8.92345 98.93C7.3616 98.9694 6.06919 98.5907 5.04621 97.7939C4.0598 97.036 3.33421 96.0696 2.86946 94.8947C2.4047 93.7197 2.19182 92.3996 2.2308 90.9344C2.30634 89.5081 2.60985 88.1056 3.14133 86.7269C3.66683 85.3905 4.40537 84.1836 5.35693 83.106C6.3085 82.0285 7.44621 81.2706 8.77006 80.8322C9.43199 80.613 9.96069 80.5923 10.3562 80.77C10.7942 80.9444 11.0926 81.2134 11.2515 81.5768C11.453 81.937 11.4783 82.3527 11.3275 82.8241C11.2133 83.3344 10.9349 83.8159 10.4923 84.2685C10.0497 84.7211 9.66834 85.3359 9.34812 86.1131C9.07043 86.8869 8.85057 87.698 8.68853 88.5463C8.56903 89.3912 8.47678 90.1922 8.41177 90.9493C8.38331 91.7453 8.40003 92.3706 8.46191 92.8253C8.5484 93.4033 8.78974 93.9274 9.18593 94.3975C9.61867 94.9066 10.2209 95.1098 10.9925 95.0073C13.3013 94.7421 16.2483 93.236 19.8335 90.489C23.4187 87.7421 27.4421 83.9789 31.9036 79.1995C31.7021 78.8394 31.522 78.4776 31.3631 78.1141C31.2042 77.7506 31.0938 77.3416 31.0319 76.8869C30.5769 74.7503 30.5586 72.2035 30.9768 69.2462C31.4436 66.2434 32.2805 63.0025 33.4876 59.5237C34.7431 55.9992 36.3144 52.3246 38.2013 48.4998C40.0882 44.675 42.2274 40.8513 44.6187 37.0286C47.0161 33.1636 49.6082 29.4086 52.395 25.7637C55.1878 22.0765 58.1119 18.6505 61.1674 15.4857C64.2228 12.3209 67.3338 9.50683 70.5003 7.04349C73.7094 4.5768 76.9105 2.61205 80.1038 1.14923ZM35.3513 68.6513C35.178 69.8764 35.0503 71.0771 34.968 72.2533C34.8918 73.3872 35.0219 74.4005 35.3583 75.2931C38.6735 71.4812 42.1395 67.198 45.7563 62.4433C49.4215 57.643 53.1619 52.4609 56.9772 46.8968C60.7926 41.3327 64.6375 35.4113 68.5119 29.1324C72.4288 22.8501 76.3025 16.2789 80.133 9.41858C80.4114 8.93713 80.6197 8.35677 80.7578 7.67748C80.9385 6.99485 80.9311 6.45234 80.7356 6.04996C80.5461 5.60534 80.1536 5.40646 79.5581 5.45333C78.9686 5.45795 78.0429 5.90679 76.7809 6.79985C75.3734 7.8297 73.4476 9.40165 71.0034 11.5157C68.6078 13.5842 65.9823 16.0885 63.1269 19.0286C60.314 21.9655 57.4048 25.2858 54.3993 28.9898C51.3998 32.6515 48.5894 36.6116 45.9682 40.8702C43.3954 45.0832 41.1454 49.5423 39.2181 54.2476C37.2967 58.9106 36.0078 63.7118 35.3513 68.6513Z" fill="white"/>
</svg>
