<svg width="305" height="131" viewBox="0 0 305 131" fill="none" xmlns="http://www.w3.org/2000/svg">
<path d="M296.931 6.15289C298.87 6.12564 300.408 6.40145 301.546 6.98031C302.727 7.55582 303.333 8.17653 303.365 8.84242C303.44 9.50497 302.867 10.1349 301.647 10.7323C300.433 11.2873 298.418 11.5503 295.604 11.5211C294.972 11.5291 294.313 11.4348 293.625 11.2382C292.981 11.0383 292.336 10.8384 291.691 10.6385C291.047 10.4385 290.463 10.2547 289.94 10.087C289.417 9.91931 288.988 9.82772 288.654 9.81226C282.521 9.7518 276.693 10.0642 271.171 10.7495C265.648 11.4349 260.499 12.2996 255.725 13.3438C252.295 17.666 248.957 22.2316 245.712 27.0406C242.508 31.8463 239.545 36.5913 236.821 41.2757C234.104 45.9179 231.711 50.3464 229.642 54.5615C227.58 58.7343 225.994 62.3684 224.883 65.4636C223.815 68.5556 223.283 70.9787 223.287 72.7329C223.34 74.4416 224.104 75.1334 225.58 74.8084C227.008 74.5289 228.641 73.8364 230.48 72.7308C232.318 71.6253 234.227 70.3262 236.204 68.8338C238.188 67.299 240.141 65.6832 242.064 63.9862C244.029 62.2858 245.787 60.7061 247.34 59.2471C248.94 57.7425 250.277 56.4676 251.351 55.4222C252.424 54.3769 253.082 53.7403 253.324 53.5123C253.706 53.1898 254.025 53.0185 254.28 52.9984C254.541 52.9361 254.748 52.9616 254.9 53.075C255.095 53.185 255.22 53.3422 255.275 53.5468C255.33 53.7513 255.346 53.9381 255.322 54.1071C255.304 54.2338 254.747 54.9043 253.65 56.1186C252.559 57.2907 251.11 58.7624 249.303 60.5339C247.544 62.2597 245.534 64.1308 243.272 66.1469C241.01 68.1631 238.681 70.0592 236.285 71.8353C233.894 73.5692 231.54 75.0495 229.221 76.2764C226.896 77.5455 224.82 78.2521 222.991 78.396C221.502 78.5132 220.498 78.0282 219.979 76.9411C219.459 75.854 219.319 74.3194 219.557 72.3372C219.844 70.3093 220.476 67.9201 221.454 65.1695C222.438 62.3766 223.665 59.3558 225.133 56.107C226.602 52.8582 228.284 49.4464 230.177 45.8718C232.071 42.2971 234.092 38.7124 236.241 35.1176C238.39 31.5229 240.59 28.0076 242.843 24.5718C245.144 21.0904 247.436 17.8186 249.72 14.7563C246.446 15.5988 243.464 16.4601 240.774 17.3403C238.132 18.1748 235.837 18.9404 233.888 19.6368C231.939 20.3333 230.384 20.9152 229.224 21.3825C228.107 21.8464 227.439 22.1078 227.221 22.1668C226.352 22.3605 225.729 22.3051 225.351 22.0006C225.016 21.6928 224.885 21.2854 224.956 20.7784C225.028 20.2715 225.246 19.7739 225.609 19.2858C226.021 18.752 226.561 18.3544 227.229 18.093C227.448 18.034 228.176 17.7887 229.415 17.357C230.66 16.883 232.36 16.3105 234.516 15.6396C236.715 14.9652 239.32 14.238 242.333 13.4578C245.345 12.6776 248.738 11.8884 252.51 11.0902C253.48 9.88596 254.398 8.74842 255.264 7.6776C256.179 6.56119 257.082 5.52927 257.973 4.58184C258.519 3.99581 259.092 3.65825 259.694 3.56914C260.344 3.43443 260.885 3.4754 261.317 3.69206C261.749 3.90871 262.014 4.26382 262.112 4.75738C262.259 5.20536 262.109 5.67676 261.66 6.17159L258.479 9.93118C263.922 8.91793 269.845 8.07575 276.249 7.40462C282.702 6.68791 289.596 6.27066 296.931 6.15289Z" fill="white"/>
<path d="M211.996 45.6737C212.75 45.6979 213.267 45.9078 213.547 46.3035C213.834 46.657 213.96 47.1066 213.924 47.6525C213.895 48.1561 213.757 48.6892 213.509 49.2518C213.31 49.7688 213.083 50.1835 212.828 50.4959C212.568 50.8507 212.007 51.3961 211.146 52.1323C210.327 52.8652 209.441 53.6241 208.489 54.4093C207.537 55.1944 206.651 55.9534 205.833 56.6863C205.063 57.3735 204.571 57.8717 204.359 58.1808C201.088 62.5741 198.793 66.0132 197.474 68.4983C196.198 70.98 195.497 72.8106 195.373 73.9901C195.248 75.1697 195.462 75.8839 196.016 76.1327C196.576 76.3393 197.074 76.3837 197.511 76.2657C198.21 76.0854 199.224 75.6087 200.553 74.8357C201.888 74.0204 203.396 73.0245 205.076 71.8478C206.806 70.6255 208.638 69.2698 210.573 67.7807C212.551 66.2882 214.513 64.7552 216.46 63.1816C218.413 61.5657 220.278 59.9776 222.055 58.4174C223.874 56.8538 225.491 55.3898 226.903 54.0253C227.194 53.7518 227.443 53.6278 227.65 53.6533C227.899 53.6754 228.094 53.7854 228.234 53.9833C228.375 54.1811 228.421 54.449 228.373 54.787C228.374 55.0794 228.247 55.3818 227.992 55.6942C227.483 56.3192 226.522 57.3139 225.11 58.6783C223.703 60.0005 222.017 61.5118 220.052 63.2122C218.093 64.8703 215.976 66.6035 213.701 68.4118C211.469 70.2167 209.255 71.8949 207.059 73.4464C204.862 74.9979 202.826 76.3069 200.951 77.3736C199.07 78.4825 197.525 79.1472 196.316 79.3677C195.016 79.6371 194.034 79.4428 193.37 78.7849C192.706 78.127 192.417 77.0426 192.505 75.5318C192.538 74.4012 192.83 73.0832 193.379 71.5778C193.971 70.069 194.651 68.5325 195.419 66.9681C196.236 65.3581 197.11 63.7853 198.043 62.2498C198.981 60.672 199.877 59.2438 200.731 57.9651C201.59 56.6442 202.314 55.5428 202.901 54.6611C203.531 53.776 203.928 53.2017 204.091 52.9381C204.364 52.4989 204.791 51.8596 205.372 51.0201C205.954 50.1806 206.593 49.3783 207.29 48.6132C207.993 47.806 208.742 47.1204 209.537 46.5565C210.38 45.947 211.2 45.6528 211.996 45.6737ZM222.533 33.6275C222.909 33.3473 223.352 33.0409 223.861 32.7083C224.414 32.3724 224.957 32.0999 225.491 31.8908C226.026 31.6816 226.502 31.5814 226.922 31.5902C227.384 31.5956 227.691 31.8012 227.844 32.2069C227.948 32.6582 227.75 33.3214 227.247 34.1965C226.805 34.9414 226.139 35.7876 225.248 36.7351C224.405 37.6369 223.48 38.5243 222.474 39.3973C221.473 40.228 220.463 40.9759 219.443 41.641C218.424 42.3061 217.544 42.7305 216.803 42.9141C216.317 43.0777 215.952 43.1273 215.709 43.0629C215.472 42.9562 215.301 42.8234 215.198 42.6645C215.1 42.4633 215.066 42.2571 215.096 42.0458C215.126 41.8346 215.15 41.6656 215.168 41.5389C215.306 41.152 215.612 40.6266 216.084 39.9628C216.599 39.2956 217.202 38.6006 217.894 37.8778C218.591 37.1128 219.327 36.3655 220.103 35.636C220.928 34.8609 221.738 34.1914 222.533 33.6275Z" fill="white"/>
<path d="M191.53 45.7804C192.356 45.5901 192.94 45.6277 193.281 45.8933C193.628 46.1167 193.832 46.4557 193.894 46.9103C193.962 47.3228 193.896 47.7875 193.697 48.3045C193.54 48.8181 193.353 49.2506 193.135 49.602C192.602 50.3959 191.793 51.3577 190.708 52.4875C189.671 53.5718 188.574 54.6399 187.415 55.6919C186.3 56.7405 185.281 57.698 184.359 58.5643C183.443 59.3883 182.883 59.9338 182.677 60.2006C180.223 63.5687 178.458 66.2351 177.381 68.1997C176.353 70.1188 175.842 71.4958 175.851 72.3307C175.907 73.12 176.388 73.4372 177.293 73.2824C178.198 73.1277 179.358 72.6604 180.772 71.8807C182.229 71.0976 183.846 70.0722 185.624 68.8043C187.45 67.4909 189.264 66.1157 191.066 64.6789C192.873 63.1998 194.596 61.7274 196.233 60.2617C197.87 58.796 199.235 57.4771 200.326 56.3051C200.617 56.0315 200.929 55.9025 201.264 55.9179C201.647 55.8878 201.972 55.9666 202.24 56.1544C202.508 56.3422 202.681 56.6001 202.761 56.928C202.847 57.2137 202.744 57.4933 202.453 57.7669C199.707 60.5314 196.951 63.0668 194.185 65.3733C191.468 67.6342 188.88 69.5715 186.423 71.1853C183.971 72.7569 181.738 73.9771 179.722 74.8459C177.755 75.6691 176.167 76.0448 174.957 75.9729C173.747 75.901 173.007 75.3326 172.737 74.2676C172.516 73.1571 172.901 71.4767 173.892 69.2263C172.667 70.4506 171.403 71.6572 170.099 72.846C168.844 73.9892 167.625 75.0251 166.442 75.9537C165.302 76.879 164.204 77.6547 163.148 78.2809C162.14 78.8615 161.248 79.2242 160.47 79.3689C158.824 79.7074 157.63 79.676 156.887 79.2749C156.187 78.8705 155.797 78.2119 155.715 77.2992C155.634 76.3865 155.829 75.3059 156.3 74.0573C156.777 72.7665 157.388 71.4234 158.132 70.028C158.882 68.5904 159.717 67.146 160.637 65.695C161.6 64.2406 162.506 62.8952 163.353 61.6587C164.201 60.4223 164.964 59.3387 165.643 58.408C166.321 57.4773 166.769 56.8363 166.987 56.485C167.702 55.3008 168.453 54.1555 169.24 53.0491C170.027 51.9428 170.815 50.9826 171.603 50.1686C172.397 49.3124 173.186 48.6446 173.969 48.1652C174.794 47.6825 175.578 47.4955 176.319 47.6042C176.854 47.6874 177.126 48.0003 177.133 48.5428C177.183 49.0819 177.029 49.7207 176.673 50.4589C176.358 51.1939 175.914 51.9599 175.338 52.7572C174.769 53.5122 174.196 54.1422 173.62 54.647C172.71 55.4288 171.707 56.4269 170.609 57.6412C169.561 58.8099 168.497 60.0842 167.419 61.4641C166.34 62.844 165.28 64.2434 164.238 65.6623C163.196 67.0811 162.27 68.4282 161.459 69.7035C160.653 70.9366 159.993 72.033 159.479 72.9925C159.013 73.9065 158.754 74.5536 158.7 74.9338C158.575 76.1133 158.795 76.7853 159.361 76.9496C159.933 77.0718 160.643 76.9532 161.493 76.5938C162.349 76.1923 163.223 75.6639 164.115 75.0089C165.05 74.3505 165.799 73.8111 166.363 73.3907C167.588 72.4587 168.968 71.1804 170.502 69.5558C172.035 67.9312 173.554 66.266 175.057 64.5602C176.56 62.8544 177.92 61.2643 179.138 59.7898C180.405 58.2697 181.338 57.1728 181.938 56.4989C182.253 56.0564 182.565 55.6349 182.874 55.2346C183.232 54.7887 183.614 54.32 184.02 53.8285C184.789 52.8489 185.513 51.8938 186.191 50.9631C186.87 50.0324 187.512 49.209 188.118 48.4929C188.724 47.7768 189.312 47.1874 189.882 46.7248C190.458 46.2199 191.008 45.9051 191.53 45.7804Z" fill="white"/>
<path d="M137.196 58.6419C137.095 59.3601 137.096 59.9448 137.201 60.3961C137.305 60.8474 137.676 61.048 138.314 60.9978C138.995 60.9442 140.015 60.5715 141.375 59.8796C142.74 59.1455 144.655 57.9504 147.118 56.2944C148.326 55.4892 149.176 55.276 149.669 55.655C150.211 55.9883 150.459 56.6164 150.412 57.5391C150.366 58.4618 150.047 59.5313 149.454 60.7477C148.91 61.9185 148.153 62.9598 147.182 63.8717C144.987 66.0079 143.014 68.064 141.263 70.04C139.517 71.9738 138.069 73.7379 136.918 75.3324C135.809 76.9236 135.053 78.2573 134.648 79.3335C134.286 80.4064 134.355 81.1112 134.854 81.4479C135.469 81.8591 136.599 81.7492 138.245 81.1184C139.89 80.4876 141.948 79.323 144.417 77.6248C146.929 75.9231 149.81 73.6911 153.061 70.9287C156.361 68.1207 159.969 64.7662 163.885 60.8652C164.225 60.546 164.638 60.3047 165.124 60.1411C165.609 59.9776 165.992 59.9474 166.272 60.0507C166.594 60.1507 166.726 60.4119 166.666 60.8344C166.655 61.2112 166.303 61.7611 165.612 62.4839C164.327 63.8383 162.854 65.3329 161.193 66.9675C159.58 68.5566 157.858 70.1752 156.026 71.8233C154.201 73.4291 152.296 74.9994 150.313 76.5341C148.372 78.0655 146.454 79.4279 144.561 80.6213C142.668 81.8147 140.829 82.7741 139.044 83.4994C137.301 84.2214 135.694 84.5776 134.224 84.5681C132.838 84.5518 131.792 84.2164 131.085 83.5618C130.378 82.9072 130.285 81.7867 130.803 80.2001C131.328 78.5713 132.624 76.4015 134.689 73.6905C136.755 70.9796 139.886 67.5791 144.082 63.4891C144.705 62.3538 145.038 61.6384 145.079 61.3426C145.17 61.0013 145.015 60.9091 144.614 61.066C144.256 61.2195 143.706 61.5343 142.966 62.0103C142.268 62.483 141.443 62.9657 140.49 63.4584C139.585 63.9056 138.584 64.2978 137.484 64.6349C136.434 64.9265 135.373 64.9891 134.303 64.8226C132.783 64.5663 131.812 63.9952 131.391 63.1093C131.018 62.1778 130.949 61.1806 131.183 60.1177C131.466 59.0093 131.953 57.9475 132.643 56.9323C133.376 55.9138 134.116 55.1454 134.862 54.6271C135.79 54.011 136.483 54.0191 136.94 54.6515C137.446 55.2383 137.532 56.5685 137.196 58.6419Z" fill="white"/>
<path d="M116.724 53.9864C117.811 53.7338 118.783 53.699 119.641 53.8822C120.504 54.0231 121.195 54.3448 121.713 54.8471C122.279 55.3038 122.678 55.899 122.911 56.6327C123.15 57.3241 123.21 58.0923 123.09 58.9372C122.959 59.8666 122.76 60.676 122.494 61.3653C122.277 62.009 121.959 62.6189 121.541 63.1949C121.166 63.7675 120.712 64.3046 120.178 64.8061C119.644 65.3077 119.041 65.8565 118.368 66.4525C117.118 67.5535 116.071 68.1163 115.227 68.141C114.382 68.1657 113.783 67.9413 113.429 67.4678C113.118 66.991 113.029 66.4341 113.161 65.797C113.299 65.1178 113.723 64.6457 114.434 64.3809C115.369 64.0149 116.218 63.3632 116.981 62.4258C117.793 61.4428 118.347 60.5011 118.643 59.6005C118.981 58.6966 118.976 57.9868 118.629 57.471C118.287 56.9131 117.436 56.8338 116.075 57.2333C113.828 57.9533 111.652 59.0645 109.547 60.567C107.49 62.0239 105.641 63.6526 103.998 65.4529C102.398 67.2499 101.086 69.0868 100.064 70.9636C99.0413 72.8405 98.4224 74.5393 98.2074 76.0602C98.0049 77.7889 98.5032 79.0239 99.7023 79.765C100.901 80.5062 102.443 80.7609 104.326 80.5291C106.465 80.2772 108.691 79.7051 111.004 78.8129C113.324 77.8784 115.582 76.7816 117.779 75.5225C120.019 74.26 122.139 72.9443 124.142 71.5752C126.15 70.1639 127.934 68.8538 129.493 67.6449C131.058 66.3938 132.322 65.3334 133.286 64.4638C134.293 63.5908 134.894 63.0631 135.088 62.8807C135.773 62.2002 136.358 61.7781 136.844 61.6145C137.372 61.4476 137.728 61.4614 137.911 61.6559C138.136 61.8471 138.173 62.1783 138.023 62.6497C137.872 63.1212 137.481 63.6532 136.85 64.2459C135.298 65.7049 133.212 67.5193 130.592 69.689C127.977 71.8164 125.096 73.9023 121.946 75.9465C118.845 77.9451 115.61 79.7037 112.241 81.2221C108.92 82.695 105.753 83.5291 102.739 83.7246C100.49 83.8597 98.7941 83.659 97.6502 83.1224C96.5548 82.5402 95.7721 81.8289 95.3021 80.9886C94.8746 80.145 94.6568 79.3057 94.6487 78.4708C94.6466 77.5937 94.6571 76.9244 94.6803 76.4631C94.7147 75.6249 94.9704 74.5603 95.4474 73.2695C95.9244 71.9787 96.6048 70.5883 97.4885 69.0984C98.4147 67.6051 99.5141 66.0773 100.787 64.515C102.108 62.9071 103.581 61.4125 105.206 60.0313C106.832 58.6501 108.603 57.4245 110.521 56.3545C112.482 55.2811 114.549 54.4918 116.724 53.9864Z" fill="white"/>
<path d="M83.8658 56.5725C86.059 56.2327 87.6521 56.5669 88.6452 57.5749C89.6383 58.5829 89.909 59.9402 89.4574 61.6468C89.0117 63.3112 88.1828 64.8594 86.9708 66.2917C85.8072 67.6783 84.4549 68.9127 82.9138 69.9948C81.4213 71.0313 79.8492 71.8861 78.1978 72.5592C76.5888 73.2289 75.1191 73.6579 73.7886 73.8462C71.808 74.1692 70.2096 74.1696 68.9933 73.8476C67.777 73.5256 66.9797 73.0661 66.6015 72.4692C65.6939 74.1282 65.1355 75.6969 64.9264 77.1755C64.8009 78.0627 64.8635 78.8098 65.1141 79.4167C65.4073 80.0202 65.8431 80.5081 66.4213 80.8804C66.9996 81.2526 67.6779 81.5126 68.4562 81.6602C69.277 81.8045 70.1583 81.8187 71.1001 81.7028C73.2388 81.4509 75.4193 80.9033 77.6417 80.06C79.9125 79.1711 82.1162 78.1621 84.2528 77.0331C86.3954 75.8619 88.4193 74.6373 90.3245 73.3594C92.2723 72.0782 93.9772 70.8787 95.4392 69.761C96.9437 68.64 98.1509 67.6886 99.0606 66.9068C100.019 66.0794 100.595 65.5745 100.789 65.3921C101.517 64.7082 102.123 64.2845 102.609 64.1209C103.138 63.954 103.493 63.9678 103.676 64.1623C103.901 64.3534 103.939 64.6847 103.788 65.1561C103.637 65.6275 103.246 66.1596 102.616 66.7523C101.063 68.2113 99.0103 69.9395 96.4564 71.9369C93.9452 73.9309 91.1906 75.8605 88.1928 77.7257C85.195 79.5909 82.0629 81.216 78.7965 82.601C75.5786 83.9404 72.4627 84.7079 69.4487 84.9033C67.2003 85.0385 65.5041 84.8377 64.3602 84.3011C63.2223 83.7223 62.4183 83.0127 61.9483 82.1724C61.5208 81.3287 61.306 80.4683 61.3039 79.5912C61.3443 78.7107 61.3761 78.0398 61.3993 77.5785C61.4703 76.7791 61.7626 75.7535 62.2761 74.5016C62.8322 73.2463 63.5887 71.9126 64.5455 70.5005C65.5083 69.0461 66.6625 67.5766 68.0081 66.0921C69.3597 64.5654 70.8393 63.1748 72.4468 61.9203C74.1028 60.6202 75.8808 59.4986 77.7808 58.5553C79.7234 57.6087 81.7517 56.9477 83.8658 56.5725ZM83.2173 59.8194C80.3502 60.4628 77.5879 61.7037 74.9304 63.5421C72.2789 65.3383 70.0716 67.4128 68.3088 69.7656C68.6796 69.82 69.0871 69.9133 69.5311 70.0454C69.981 70.1353 70.4493 70.2447 70.9358 70.3735C71.4648 70.499 71.9969 70.6033 72.5319 70.6866C73.0729 70.7275 73.6442 70.7035 74.2456 70.6143C75.4001 70.4817 76.5358 70.1834 77.653 69.7195C78.8187 69.21 79.8929 68.6033 80.8758 67.8993C81.9072 67.1497 82.8501 66.2818 83.7047 65.2954C84.5652 64.2669 85.2735 63.1249 85.8296 61.8697C86.1319 61.2192 86.0879 60.6378 85.6977 60.1255C85.3075 59.6131 84.4807 59.511 83.2173 59.8194Z" fill="white"/>
<path d="M19.7151 47.0208C19.6205 45.6079 20.4128 44.0207 22.092 42.2593C23.7713 40.4979 25.9915 38.7774 28.7527 37.098C31.5199 35.3762 34.6703 33.7706 38.2038 32.281C41.7859 30.7458 45.3899 29.5013 49.016 28.5475C52.6905 27.5481 56.2504 26.9128 59.6958 26.6417C63.1411 26.3705 66.1319 26.6365 68.6683 27.4395C71.2105 28.2002 73.1375 29.5943 74.4491 31.6217C75.8092 33.6034 76.2171 36.3703 75.6727 39.9223C74.8407 45.2098 73.0723 50.2786 70.3674 55.1286C67.6685 59.9363 64.3913 64.3719 60.5358 68.4351C56.6803 72.4984 52.4256 76.1127 47.7718 79.2779C43.1605 82.4398 38.5265 85.0187 33.8698 87.0144C34.6552 90.0858 35.7447 93.2377 37.1383 96.4701C38.5744 99.6992 40.2015 102.767 42.0197 105.674C43.8804 108.577 45.8893 111.176 48.0464 113.471C50.24 115.805 52.487 117.612 54.7875 118.893C57.0819 120.217 59.4052 120.89 61.7573 120.914C64.1094 120.938 66.3743 120.091 68.552 118.374C69.0251 118.003 69.4658 118.01 69.8739 118.395C70.2761 118.823 70.4447 119.416 70.3796 120.173C70.3572 120.927 70.031 121.746 69.401 122.631C68.8137 123.513 67.7853 124.241 66.3159 124.816C63.954 125.754 61.5112 125.926 58.9875 125.331C56.5064 124.732 54.0362 123.611 51.5768 121.966C49.1175 120.321 46.7421 118.232 44.4508 115.696C42.202 113.158 40.1136 110.377 38.1858 107.354C36.2944 104.37 34.655 101.24 33.2674 97.9654C31.8739 94.733 30.8299 91.5566 30.1356 88.4363C28.2289 89.1294 26.3614 89.6942 24.5331 90.1305C22.7533 90.5212 21.0067 90.8258 19.2934 91.0442C18.1193 93.1 17.03 95.003 16.0253 96.7531C15.0632 98.4999 14.2161 100.029 13.4839 101.34C12.7942 102.647 12.2285 103.673 11.7866 104.418C11.3813 105.202 11.1727 105.636 11.1607 105.721C11.0099 106.192 10.7435 106.589 10.3614 106.912C9.97331 107.277 9.58487 107.495 9.19608 107.568C8.80131 107.682 8.43343 107.607 8.09244 107.341C7.75145 107.075 7.57093 106.567 7.55087 105.817C7.53679 105.024 8.20113 103.301 9.54391 100.647C10.9233 98.032 12.7146 94.8831 14.9179 91.2005C13.0822 91.0943 11.5954 90.7518 10.4574 90.173C9.31952 89.5941 8.45175 88.8895 7.85413 88.0593C7.2565 87.229 6.88052 86.3187 6.72617 85.3282C6.61436 84.3344 6.64544 83.3711 6.81942 82.4383C7.10096 80.7451 7.8444 79.0573 9.04976 77.375C10.2551 75.6926 11.622 74.2064 13.1504 72.9164C14.6848 71.5841 16.2412 70.5426 17.8195 69.7917C19.4464 68.9953 20.8009 68.638 21.8829 68.72C22.2963 68.771 22.5701 68.9165 22.7044 69.1566C22.8872 69.3511 22.9577 69.5962 22.9159 69.892C22.88 70.1454 22.7378 70.4073 22.4893 70.6775C22.2468 70.9055 21.9311 71.0556 21.5423 71.128C20.4185 71.3418 19.2132 71.8335 17.9267 72.6032C16.6886 73.3273 15.5117 74.2136 14.396 75.2623C13.3287 76.2653 12.4107 77.4029 11.642 78.6749C10.8792 79.9047 10.4141 81.111 10.2468 82.2939C10.1042 83.6002 10.3865 84.7268 11.0938 85.6737C11.8496 86.5751 13.27 87.09 15.3549 87.2183C15.6832 87.276 15.9963 87.2932 16.294 87.2697C16.6343 87.2429 16.9716 87.2373 17.3059 87.2527C19.0673 84.3151 20.953 81.2424 22.963 78.0346C24.973 74.8267 26.9527 71.6839 28.9022 68.6062C30.8943 65.5251 32.7803 62.5985 34.5604 59.8266C36.389 57.009 37.9814 54.5233 39.3375 52.3696C40.7362 50.2125 41.8655 48.4734 42.7253 47.1525C43.5851 45.8315 44.0452 45.106 44.1057 44.9759C44.2326 44.6735 44.4684 44.1954 44.8133 43.5416C45.2006 42.8845 45.6731 42.2207 46.2306 41.5502C46.7941 40.8374 47.4094 40.2041 48.0766 39.6503C48.7923 39.0509 49.5389 38.6788 50.3165 38.534C51.55 38.437 52.3071 38.5863 52.5876 38.9819C52.8681 39.3776 52.9058 39.8551 52.7005 40.4143C52.5377 40.9702 52.2261 41.5378 51.7656 42.1172C51.3537 42.6509 51.0264 43.0318 50.7838 43.2597C49.6741 44.2661 48.38 45.6839 46.9015 47.5131C45.4715 49.2967 43.9389 51.3599 42.3036 53.7027C40.6683 56.0456 38.9607 58.603 37.1806 61.3749C35.4065 64.1047 33.6204 66.9189 31.8224 69.8176C30.067 72.713 28.3085 75.6295 26.5471 78.5671C24.8341 81.4591 23.1999 84.2405 21.6445 86.9113C24.9981 86.3967 28.4539 85.4563 32.0121 84.0901C35.5762 82.6816 39.0635 80.9241 42.474 78.8176C45.9271 76.7077 49.194 74.2782 52.2747 71.5292C55.404 68.7346 58.1863 65.7166 60.6216 62.4753C63.0994 59.2306 65.1393 55.8116 66.7411 52.2181C68.3914 48.579 69.4277 44.8212 69.8498 40.9446C70.1769 38.0363 69.825 35.7663 68.7939 34.1346C67.7628 32.503 66.2862 31.345 64.364 30.6608C62.4418 29.9765 60.1834 29.7365 57.5888 29.9407C55.0426 30.0993 52.3909 30.5587 49.6335 31.3188C46.8761 32.0789 44.1284 33.068 41.3903 34.2861C38.6948 35.5009 36.2366 36.8223 34.0157 38.2504C31.8433 39.6328 30.0234 41.0502 28.5562 42.5025C27.1315 43.9515 26.3112 45.2902 26.0954 46.5187C26.0655 46.7299 25.9871 46.9868 25.8602 47.2892C25.7759 47.5882 25.6094 47.8729 25.3609 48.1431C25.1549 48.41 24.8456 48.6641 24.4329 48.9054C24.0687 49.1012 23.5433 49.247 22.8568 49.3428C21.9091 49.5009 21.1614 49.4345 20.6137 49.1434C20.072 48.81 19.7724 48.1025 19.7151 47.0208Z" fill="white"/>
</svg>
