<svg width="214" height="112" viewBox="0 0 214 112" fill="none" xmlns="http://www.w3.org/2000/svg">
<path d="M174.67 11.629C175.471 11.3152 175.97 11.3596 176.165 11.7619C176.409 12.1187 176.462 12.6367 176.324 13.316C176.192 13.9531 175.908 14.623 175.472 15.3257C175.078 16.025 174.606 16.5427 174.053 16.8786C173.501 17.2145 172.351 18.0569 170.604 19.4059C168.9 20.7516 166.79 22.8811 164.275 25.7945C161.766 28.6656 158.958 32.4584 155.852 37.173C152.751 41.8452 149.575 47.6514 146.322 54.5916C146.207 54.8095 145.871 55.5461 145.315 56.8014C144.802 58.0533 144.222 59.6238 143.576 61.5127C142.979 63.3561 142.397 65.3862 141.832 67.6031C141.314 69.7744 141.012 71.9078 140.926 74.0034C140.883 76.0956 141.118 77.9988 141.633 79.7129C142.19 81.4236 143.251 82.6979 144.815 83.5356C144.802 83.3277 144.811 83.1182 144.841 82.907C144.871 82.6957 144.9 82.4845 144.93 82.2733C145.311 78.9847 146.083 75.1642 147.245 70.8115C148.45 66.4556 150.031 61.8193 151.989 56.9028C153.626 52.7635 155.545 48.5602 157.747 44.2928C159.991 40.0221 162.427 35.8826 165.055 31.8741C167.726 27.8623 170.555 24.0678 173.542 20.4906C176.573 16.9101 179.646 13.7647 182.764 11.0546C185.887 8.30225 189.039 6.09072 192.219 4.42001C195.406 2.70706 198.533 1.70895 201.602 1.42568C202.495 1.35538 203.443 1.34343 204.446 1.38982C205.492 1.43287 206.471 1.64826 207.383 2.03597C208.338 2.42033 209.176 3.04375 209.895 3.90622C210.614 4.76868 211.097 5.96306 211.344 7.48935C211.633 9.01229 211.614 10.9355 211.285 13.2591C210.999 15.5793 210.304 18.4121 209.2 21.7575C208.198 24.6771 206.911 27.828 205.339 31.2103C203.767 34.5925 201.952 38.0565 199.895 41.6024C197.879 45.1448 195.63 48.7057 193.147 52.285C190.706 55.8609 188.117 59.3024 185.378 62.6094C182.681 65.913 179.866 69.0171 176.931 71.9217C173.997 74.8264 171.007 77.3803 167.961 79.5834C164.915 81.7866 161.866 83.5723 158.812 84.9406C155.752 86.3511 152.755 87.1719 149.82 87.4029C149.48 87.4296 149.142 87.4353 148.808 87.4198C148.51 87.4433 148.194 87.4472 147.86 87.4318C147.915 90.0176 148.215 92.2081 148.76 94.0033C149.3 95.8408 149.975 97.4587 150.787 98.8569C151.641 100.252 152.598 101.513 153.659 102.641C154.755 103.808 155.886 105.035 157.05 106.322C157.227 106.559 157.337 106.822 157.38 107.111C157.46 107.439 157.415 107.756 157.245 108.062C157.07 108.41 156.797 108.703 156.427 108.941C156.051 109.221 155.52 109.409 154.833 109.505C154.359 109.584 153.535 109.314 152.361 108.697C151.186 108.079 149.983 106.92 148.751 105.221C147.562 103.518 146.526 101.177 145.644 98.1964C144.798 95.2551 144.451 91.4599 144.604 86.8107C142.956 86.2721 141.473 85.3025 140.157 83.9022C138.884 82.4985 138.022 80.5611 137.572 78.0899C137.08 75.6221 137.136 72.5471 137.741 68.865C138.346 65.1829 139.727 60.7712 141.884 55.6301C143.528 51.7409 145.279 48.1357 147.137 44.8145C149 41.4511 150.838 38.424 152.648 35.7331C154.507 32.9967 156.279 30.5805 157.964 28.4844C159.697 26.3428 161.236 24.5297 162.582 23.0452C163.927 21.5607 165.037 20.4081 165.91 19.5874C166.789 18.7245 167.326 18.2018 167.52 18.0194C167.811 17.7459 168.186 17.3194 168.647 16.7401C169.15 16.1574 169.72 15.5486 170.356 14.9136C170.999 14.2364 171.678 13.5981 172.394 12.9987C173.109 12.3993 173.868 11.9427 174.67 11.629ZM147.899 84.4836C148.847 84.6178 149.853 84.6431 150.916 84.5594C153.341 84.3686 156.104 83.42 159.205 81.7138C162.343 80.0464 165.608 77.7843 168.998 74.9273C172.431 72.067 175.89 68.7243 179.375 64.899C182.909 61.0281 186.3 56.8344 189.546 52.3177C192.841 47.7554 195.878 42.942 198.655 37.8774C201.481 32.7672 203.878 27.5655 205.846 22.2721C206.722 19.9473 207.355 17.7042 207.744 15.543C208.14 13.3395 208.157 11.4374 207.794 9.83662C207.438 8.19364 206.623 6.96268 205.351 6.14373C204.079 5.32478 202.197 5.09688 199.706 5.46003C196.784 5.89889 193.857 6.96476 190.926 8.65763C188.043 10.3049 185.201 12.4085 182.399 14.9685C179.598 17.5284 176.87 20.4585 174.216 23.7588C171.604 27.0558 169.112 30.5522 166.739 34.2482C164.414 37.8986 162.238 41.6835 160.211 45.6028C158.233 49.4765 156.471 53.3124 154.925 57.1104C152.985 61.9002 151.413 66.473 150.208 70.829C149.003 75.185 148.271 79.0233 148.012 82.3441L147.899 84.4836Z" fill="white"/>
<path d="M159.94 0.31738C159.94 0.31738 160.177 0.277843 160.651 0.198771C161.124 0.119699 161.559 0.169042 161.955 0.346797C162.393 0.521204 162.649 0.939684 162.723 1.60224C162.846 2.21919 162.554 3.24482 161.847 4.67911C161.476 4.91712 161.094 5.23963 160.7 5.64663C160.288 6.18036 159.855 6.71577 159.401 7.25286C158.989 7.78659 158.577 8.32033 158.165 8.85406C156.899 10.6665 155.44 12.9537 153.787 15.7156C152.177 18.4742 150.465 21.5124 148.649 24.8303C146.877 28.1448 145.077 31.6494 143.251 35.3441C141.467 39.0354 139.722 42.7446 138.018 46.4715C136.361 50.1528 134.817 53.7835 133.386 57.3636C132.002 60.8981 130.843 64.1851 129.909 67.2248C128.974 70.2644 128.3 72.9494 127.886 75.2796C127.515 77.6065 127.513 79.403 127.881 80.6691C128.139 81.5262 128.116 82.2799 127.814 82.9303C127.506 83.623 127.048 84.1812 126.441 84.605C125.871 85.0676 125.219 85.3696 124.483 85.511C123.742 85.6947 123.05 85.6865 122.405 85.4866C121.797 85.3256 121.301 84.9678 120.916 84.4131C120.569 83.8974 120.466 83.1326 120.61 82.1187C120.795 80.8091 120.967 78.9992 121.125 76.689C121.284 74.3789 121.278 71.8937 121.107 69.2334C120.979 66.5698 120.599 63.9052 119.967 61.2396C119.334 58.5739 118.344 56.2079 116.996 54.1417C111.963 59.0913 106.988 63.7858 102.07 68.2252C97.1576 72.6223 92.5115 76.4762 88.1315 79.787C83.7455 83.1401 79.7317 85.7954 76.0898 87.7531C72.4421 89.753 69.4149 90.785 67.0083 90.849C63.757 90.9378 61.1274 90.4973 59.1194 89.5273C57.1114 88.5574 55.6132 87.2549 54.6246 85.6199C53.6361 83.9849 53.121 82.1246 53.0795 80.0391C53.0439 77.9113 53.3912 75.7534 54.1213 73.5654C54.8573 71.3351 55.9187 69.1837 57.3054 67.111C58.7407 64.9928 60.3893 63.1503 62.2513 61.5833C64.1619 59.9708 66.2526 58.7201 68.5234 57.8312C70.7943 56.9423 73.1576 56.5892 75.6134 56.7719C77.1939 56.8982 78.477 57.1941 79.4627 57.6596C80.4909 58.1217 81.2155 58.6496 81.6363 59.2431C82.0571 59.8366 82.2044 60.4308 82.0782 61.0256C81.9945 61.617 81.6311 62.1052 80.9878 62.49C80.387 62.8715 79.5124 63.1074 78.364 63.1978C77.264 63.2426 75.9507 63.0117 74.424 62.5053C72.3317 61.8344 70.3501 61.7188 68.4792 62.1585C66.6144 62.5559 64.9267 63.3363 63.4162 64.4995C61.9542 65.6172 60.6843 67.0122 59.6066 68.6845C58.5714 70.3535 57.7977 72.1063 57.2856 73.943C56.7734 75.7797 56.5591 77.5929 56.6424 79.3827C56.7743 81.1269 57.2491 82.677 58.0668 84.0331C58.927 85.3858 60.1693 86.4159 61.7938 87.1236C63.4548 87.8702 65.5643 88.1219 68.1224 87.8788C69.532 87.7261 71.2324 87.1536 73.2234 86.1614C75.2085 85.2114 77.4115 83.9101 79.8325 82.2574C82.2534 80.6047 84.8621 78.6657 87.6584 76.4404C90.4548 74.2151 93.3419 71.7946 96.3196 69.179C99.3033 66.5212 102.372 63.7105 105.525 60.7469C108.678 57.7833 111.819 54.758 114.947 51.671C113.833 50.6308 112.539 49.8135 111.067 49.2192C109.643 48.5792 107.965 48.2518 106.032 48.2368C104.148 48.1762 102.006 48.4492 99.6073 49.0558C97.2507 49.659 94.6246 50.6803 91.7291 52.1197C91.0067 52.469 90.3929 52.4964 89.8877 52.202C89.4251 51.9042 89.2144 51.4612 89.2555 50.8731C89.3026 50.2428 89.6717 49.5662 90.3627 48.8434C91.0964 48.1172 92.2952 47.5216 93.9594 47.0564C99.6137 45.4416 104.362 44.88 108.204 45.3713C112.046 45.8627 115.152 47.1013 117.521 49.0872C120.413 46.1859 123.241 43.2897 126.006 40.3985C128.813 37.5039 131.504 34.6811 134.08 31.93C136.705 29.1333 139.188 26.4522 141.527 23.8869C143.873 21.2793 146.028 18.8329 147.991 16.5478C149.401 14.0138 150.736 11.7155 151.995 9.65296C153.254 7.5904 154.404 5.8497 155.446 4.43086C156.537 2.96644 157.449 1.87115 158.182 1.14499C158.958 0.415496 159.544 0.139625 159.94 0.31738ZM142.274 27.5252C138.729 31.4806 135.074 35.4654 131.309 39.4798C127.551 43.4518 123.71 47.4095 119.788 51.3527C120.934 52.7665 121.864 54.3643 122.58 56.1461C123.295 57.9279 123.844 59.8482 124.226 61.907C124.613 63.9235 124.84 66.0362 124.906 68.2451C124.973 70.454 124.908 72.6941 124.713 74.9654C125.192 71.8781 125.998 68.4099 127.131 64.5609C128.307 60.7085 129.674 56.6949 131.231 52.52C132.832 48.3418 134.584 44.1307 136.488 39.8868C138.398 35.6006 140.327 31.4801 142.274 27.5252Z" fill="white"/>
<path d="M50.1563 55.5184C51.4011 55.0445 52.3548 54.8441 53.0174 54.9173C53.7285 54.9449 54.2061 55.137 54.4501 55.4938C54.7366 55.8473 54.841 56.2986 54.7633 56.8478C54.6916 57.3547 54.4953 57.8506 54.1744 58.3354C53.896 58.8169 53.5232 59.2222 53.056 59.5514C52.5948 59.8383 52.118 59.9385 51.6255 59.852C49.3271 59.448 47.212 59.3847 45.28 59.662C43.3905 59.9361 41.5928 60.4536 39.8868 61.2145C38.2294 61.9298 36.6301 62.8285 35.089 63.9106C33.5905 64.9894 32.086 66.1104 30.5755 67.2737C29.7684 70.3033 28.7181 73.2685 27.4246 76.1693C26.1735 79.0668 24.7976 81.807 23.2966 84.3899C21.8322 87.0117 20.3096 89.4501 18.7288 91.7051C17.1846 93.9989 15.7188 96.036 14.3313 97.8162C12.9864 99.5931 11.8109 101.064 10.8049 102.23C9.83538 103.434 9.17189 104.259 8.81439 104.705C7.5904 106.222 6.4687 107.312 5.44927 107.978C4.47239 108.639 3.65263 108.934 2.98999 108.86C2.27884 108.833 1.80391 108.473 1.56521 107.782C1.27799 107.136 1.25758 106.24 1.50397 105.092C1.73841 104.029 2.27885 102.587 3.12529 100.766C3.9292 98.9482 4.98162 96.8602 6.28258 94.5019C7.53502 92.1892 8.99047 89.6307 10.6489 86.8265C12.3014 84.0646 14.0569 81.1692 15.9153 78.1404C17.8223 75.066 19.7778 71.946 21.7818 68.7804C23.8343 65.5692 25.8838 62.3792 27.9303 59.2102C27.8864 58.6288 27.7786 58.0525 27.6071 57.4811C27.2028 56.1761 26.5652 55.1819 25.6945 54.4984C24.8297 53.7727 23.935 53.2583 23.0105 52.9551C22.0919 52.6096 21.2163 52.407 20.3835 52.3472C19.5507 52.2874 18.9459 52.2514 18.5691 52.2393C18.1922 52.2272 17.7938 52.0706 17.3737 51.7694C16.9596 51.426 16.6182 51.0142 16.3496 50.5341C16.1236 50.0505 16.0341 49.4936 16.0812 48.8633C16.1708 48.2296 16.5552 47.5936 17.2343 46.9553C22.3578 41.9567 27.7804 37.5194 33.5021 33.6435C39.2724 29.7219 45.1228 26.2745 51.0534 23.3012C51.1744 23.041 51.2348 22.9109 51.2348 22.9109C51.2215 22.4107 51.4234 21.7264 51.8406 20.858C52.2579 19.9897 52.7542 19.1568 53.3297 18.3596C53.9536 17.5167 54.6204 16.8167 55.3302 16.2596C56.0399 15.7024 56.7018 15.4832 57.3159 15.602C57.8084 15.6885 58.0886 15.938 58.1565 16.3504C58.2728 16.7173 58.2739 17.1558 58.1597 17.6661C58.0514 18.1342 57.8521 18.6512 57.5618 19.2171C57.3199 19.7375 57.0658 20.1961 56.7993 20.5931C63.2224 17.7063 69.513 15.3104 75.6711 13.4054C81.8717 11.497 87.6144 10.0007 92.8993 8.91633C98.2267 7.82863 102.932 7.1241 107.015 6.80273C111.105 6.43912 114.268 6.37816 116.505 6.61985C117.46 6.71184 118.15 7.03347 118.577 7.58475C119.01 8.09378 119.181 8.66514 119.092 9.29884C119.045 9.92918 118.751 10.5162 118.212 11.06C117.672 11.6038 116.91 11.9353 115.926 12.0546C115.458 12.0914 115.105 12.0565 114.868 11.9498C114.631 11.8431 114.333 11.7204 113.974 11.5815C113.663 11.3971 113.241 11.2633 112.706 11.18C112.219 11.0512 111.468 11.0059 110.454 11.044C104.656 11.2913 99.0571 11.92 93.6566 12.9299C88.2986 13.9364 83.157 15.1975 78.2317 16.7131C73.355 18.1831 68.7006 19.8653 64.2685 21.7598C59.885 23.6088 55.7842 25.5399 51.9663 27.5532C50.84 29.2711 49.5231 31.2964 48.0154 33.6292C46.5503 35.9586 44.952 38.4865 43.2204 41.2129C41.4888 43.9393 39.6725 46.8186 37.7715 49.8508C35.8705 52.8829 33.9423 55.959 31.9868 59.079C31.9517 59.6248 31.8953 60.1724 31.8176 60.7216C31.7884 61.2252 31.735 61.7516 31.6573 62.3008C32.7066 61.4244 33.8869 60.6631 35.1981 60.0169C36.5578 59.325 37.9025 58.7387 39.2324 58.2581C40.6107 57.7319 41.9528 57.3129 43.2588 57.0012C44.5707 56.6473 45.7247 56.3685 46.721 56.1648C47.7657 55.9155 48.5888 55.7462 49.1903 55.6571C49.8343 55.5647 50.1563 55.5184 50.1563 55.5184ZM30.5915 55.1156C33.7643 50.2288 36.7434 45.6705 39.5288 41.4408C42.3627 37.1655 44.7515 33.5101 46.695 30.4746C42.6226 32.8003 38.9998 35.0698 35.8265 37.283C32.6533 39.4962 29.9779 41.4614 27.8002 43.1785C25.665 44.8923 24.0183 46.2751 22.8601 47.3271C21.7443 48.3758 21.229 48.8968 21.3141 48.8901C21.3991 48.8834 21.7976 49.04 22.5095 49.36C23.2273 49.6377 24.0518 50.0532 24.983 50.6066C25.9568 51.1566 26.9552 51.83 27.9781 52.6268C29.0071 53.3813 29.8782 54.2109 30.5915 55.1156ZM7.57782 102.296C9.17126 100.248 10.9491 97.79 12.9112 94.9201C14.8674 92.0925 16.7654 89.0815 18.6053 85.887C20.4451 82.6926 22.1237 79.4482 23.6412 76.1538C25.1587 72.8594 26.312 69.7607 27.1011 66.8578C24.6493 70.8107 22.2762 74.6528 19.9818 78.3843C17.6935 82.0736 15.5928 85.4766 13.6799 88.5932C11.8035 91.7488 10.1965 94.4863 8.85901 96.8057C7.52149 99.125 6.5594 100.872 5.97273 102.046C5.57341 102.788 5.40134 103.261 5.45654 103.465C5.51173 103.67 5.67291 103.72 5.94007 103.615C6.15872 103.556 6.43784 103.367 6.77741 103.048C7.111 102.771 7.37781 102.52 7.57782 102.296Z" fill="white"/>
</svg>
