<svg width="414" height="115" viewBox="0 0 414 115" fill="none" xmlns="http://www.w3.org/2000/svg">
<path d="M380.941 41.1958C382.703 40.9318 384.04 40.9937 384.953 41.3814C385.908 41.7658 386.565 42.3198 386.926 43.0434C387.292 43.7247 387.458 44.4845 387.424 45.3228C387.395 46.1187 387.315 46.8352 387.183 47.4723C386.978 48.3239 386.573 48.9616 385.966 49.3853C385.402 49.8057 384.8 50.041 384.162 50.0912C383.567 50.1381 383.035 50.0337 382.566 49.7782C382.104 49.4804 381.914 49.0358 381.998 48.4443C382.046 48.1064 382.108 47.6628 382.186 47.1136C382.312 46.5188 382.347 45.9729 382.291 45.476C382.236 44.9791 382.013 44.6206 381.623 44.4006C381.234 44.1806 380.553 44.2342 379.582 44.5613C376.879 45.526 374.348 46.7696 371.988 48.2922C369.67 49.8114 367.589 51.4374 365.746 53.1699C363.945 54.8991 362.417 56.6277 361.164 58.3557C359.952 60.0803 359.078 61.653 358.54 63.0739C358.051 64.4492 357.933 65.5865 358.184 66.4858C358.484 67.3395 359.245 67.7601 360.466 67.7475C361.603 67.7416 362.863 67.4544 364.247 66.8859C365.674 66.3141 367.079 65.5977 368.463 64.7369C369.889 63.8727 371.218 62.9535 372.449 61.9793C373.681 61.0051 374.688 60.1321 375.47 59.3603C375.978 58.443 376.623 57.4523 377.404 56.3882C377.743 55.7767 378.133 55.0984 378.575 54.3534C379.06 53.6051 379.572 52.9591 380.111 52.4153C380.699 51.8259 381.327 51.4005 381.995 51.1391C382.669 50.8354 383.383 50.8418 384.138 51.1585C384.533 51.3362 384.774 51.5679 384.86 51.8536C384.988 52.1359 385.01 52.4266 384.925 52.7257C385.036 53.1348 384.903 53.4795 384.527 53.7597L383.808 54.3803C382.305 56.086 380.823 57.644 379.362 59.054C378.332 60.3884 377.617 61.5725 377.219 62.6065C376.82 63.6405 376.613 64.5133 376.596 65.2248C376.622 65.9329 376.751 66.5076 376.983 66.9489C377.264 67.3446 377.571 67.5501 377.905 67.5656C378.981 67.6898 380.309 67.3765 381.887 66.6256C383.514 65.8292 385.234 64.8164 387.049 63.5875C388.869 62.3163 390.707 60.9183 392.563 59.3937C394.419 57.869 396.117 56.4194 397.658 55.0449C399.198 53.6704 400.502 52.4816 401.569 51.4785C402.679 50.4721 403.373 49.8744 403.652 49.6853C404.496 49.0758 405.182 48.8338 405.711 48.9593C406.24 49.0848 406.226 49.6289 405.669 50.5918C405.397 51.031 404.624 51.8856 403.351 53.1555C402.078 54.4255 400.504 55.8861 398.63 57.5376C396.756 59.189 394.688 60.8766 392.425 62.6004C390.205 64.3208 387.99 65.8528 385.781 67.1964C383.621 68.4944 381.59 69.4689 379.689 70.1198C377.789 70.7707 376.245 70.8295 375.059 70.2962C374.262 69.9829 373.68 69.3394 373.313 68.3657C372.952 67.3497 372.945 66.0552 373.294 64.482C371.025 66.248 368.81 67.6339 366.649 68.6395C364.488 69.6451 362.302 70.2349 360.09 70.409C358.729 70.5161 357.665 70.4536 356.899 70.2215C356.132 69.9894 355.548 69.6594 355.146 69.2315C354.792 68.758 354.572 68.2323 354.486 67.6542C354.442 67.0728 354.434 66.5303 354.463 66.0267C354.648 64.4247 355.203 62.7308 356.128 60.9452C357.103 59.1139 358.302 57.3276 359.726 55.5863C361.156 53.8027 362.762 52.1097 364.545 50.5072C366.376 48.8591 368.245 47.3961 370.15 46.1182C372.061 44.7981 373.94 43.7103 375.785 42.8549C377.679 41.9538 379.398 41.4008 380.941 41.1958Z" fill="white"/>
<path d="M405.791 6.15265C407.73 6.1254 409.268 6.4012 410.406 6.98006C411.586 7.55558 412.192 8.17628 412.224 8.84218C412.299 9.50473 411.726 10.1347 410.506 10.732C409.292 11.2871 407.278 11.5501 404.464 11.5209C403.832 11.5288 403.172 11.4345 402.485 11.238C401.84 11.0381 401.195 10.8381 400.551 10.6382C399.906 10.4383 399.322 10.2545 398.799 10.0868C398.276 9.91906 397.847 9.82748 397.513 9.81201C391.38 9.75156 385.553 10.064 380.03 10.7493C374.507 11.4346 369.358 12.2994 364.584 13.3435C361.154 17.6657 357.817 22.2313 354.571 27.0404C351.368 31.8461 348.404 36.5911 345.681 41.2755C342.963 45.9176 340.57 50.3462 338.502 54.5613C336.439 58.7341 334.853 62.3681 333.742 65.4634C332.674 68.5553 332.142 70.9784 332.146 72.7327C332.199 74.4414 332.963 75.1332 334.439 74.8081C335.867 74.5287 337.5 73.8362 339.339 72.7306C341.178 71.625 343.086 70.326 345.064 68.8335C347.047 67.2988 349.001 65.6829 350.923 63.9859C352.888 62.2855 354.647 60.7059 356.199 59.2469C357.8 57.7423 359.137 56.4673 360.21 55.422C361.283 54.3767 361.941 53.74 362.184 53.5121C362.566 53.1896 362.884 53.0183 363.14 52.9982C363.401 52.9359 363.608 52.9614 363.76 53.0747C363.954 53.1847 364.079 53.342 364.135 53.5465C364.19 53.7511 364.205 53.9378 364.182 54.1068C364.164 54.2335 363.606 54.9041 362.509 56.1184C361.418 57.2904 359.969 58.7622 358.162 60.5336C356.404 62.2595 354.394 64.1305 352.132 66.1467C349.87 68.1629 347.54 70.059 345.144 71.8351C342.754 73.5689 340.399 75.0493 338.08 76.2762C335.756 77.5453 333.679 78.2518 331.85 78.3958C330.361 78.5129 329.357 78.028 328.838 76.9409C328.319 75.8538 328.178 74.3191 328.417 72.3369C328.703 70.3091 329.336 67.9199 330.314 65.1692C331.298 62.3764 332.524 59.3555 333.993 56.1067C335.462 52.8579 337.143 49.4462 339.037 45.8715C340.93 42.2969 342.952 38.7122 345.1 35.1174C347.249 31.5227 349.45 28.0074 351.702 24.5716C354.003 21.0902 356.296 17.8183 358.58 14.756C355.306 15.5986 352.324 16.4599 349.634 17.34C346.992 18.1746 344.696 18.9401 342.747 19.6366C340.798 20.3331 339.243 20.915 338.084 21.3822C336.967 21.8461 336.299 22.1076 336.08 22.1666C335.211 22.3603 334.588 22.3048 334.211 22.0004C333.876 21.6925 333.744 21.2851 333.816 20.7782C333.888 20.2712 334.105 19.7737 334.469 19.2855C334.881 18.7518 335.421 18.3542 336.088 18.0927C336.307 18.0338 337.036 17.7884 338.275 17.3567C339.519 16.8828 341.22 16.3103 343.376 15.6393C345.574 14.965 348.18 14.2377 351.192 13.4575C354.205 12.6773 357.597 11.8882 361.369 11.09C362.339 9.88571 363.257 8.74818 364.123 7.67735C365.038 6.56094 365.941 5.52902 366.833 4.5816C367.378 3.99557 367.952 3.658 368.553 3.56889C369.203 3.43418 369.744 3.47516 370.176 3.69181C370.608 3.90847 370.873 4.26357 370.972 4.75714C371.119 5.20511 370.968 5.67651 370.52 6.17135L367.338 9.93093C372.781 8.91769 378.705 8.0755 385.109 7.40438C391.561 6.68766 398.455 6.27042 405.791 6.15265Z" fill="white"/>
<path d="M311.964 46.6235C313.726 46.3596 315.063 46.4214 315.976 46.8091C316.931 47.1935 317.589 47.7475 317.949 48.4711C318.316 49.1525 318.482 49.9123 318.447 50.7505C318.419 51.5465 318.338 52.263 318.206 52.9C318.002 53.7516 317.596 54.3893 316.989 54.8131C316.425 55.2334 315.824 55.4687 315.186 55.519C314.59 55.5658 314.058 55.4615 313.59 55.2059C313.127 54.9081 312.938 54.4635 313.021 53.8721C313.069 53.5341 313.132 53.0905 313.209 52.5413C313.336 51.9465 313.371 51.4007 313.315 50.9037C313.259 50.4068 313.036 50.0484 312.647 49.8284C312.257 49.6084 311.577 49.6619 310.605 49.9891C307.903 50.9537 305.372 52.1973 303.011 53.7199C300.693 55.2392 298.612 56.8651 296.769 58.5977C294.968 60.3269 293.441 62.0555 292.187 63.7834C290.976 65.508 290.101 67.0807 289.564 68.5017C289.075 69.877 288.956 71.0143 289.207 71.9136C289.507 72.7673 290.268 73.1878 291.49 73.1752C292.626 73.1693 293.887 72.8821 295.271 72.3137C296.698 71.7418 298.103 71.0255 299.487 70.1646C300.913 69.3004 302.241 68.3812 303.473 67.407C304.704 66.4328 305.711 65.5598 306.493 64.7881C307.001 63.8708 307.646 62.88 308.428 61.8159C308.767 61.2044 309.157 60.5261 309.599 59.7812C310.083 59.0329 310.595 58.3868 311.135 57.843C311.723 57.2537 312.351 56.8283 313.019 56.5668C313.693 56.2631 314.407 56.2696 315.161 56.5862C315.557 56.7639 315.797 56.9957 315.883 57.2813C316.011 57.5637 316.033 57.8544 315.949 58.1535C316.059 58.5625 315.926 58.9072 315.55 59.1874L314.832 59.808C313.329 61.5138 311.846 63.0717 310.385 64.4818C309.355 65.8161 308.641 67.0003 308.242 68.0343C307.844 69.0683 307.636 69.941 307.62 70.6525C307.646 71.3606 307.775 71.9353 308.007 72.3766C308.287 72.7723 308.595 72.9779 308.929 72.9933C310.005 73.1175 311.332 72.8042 312.91 72.0533C314.537 71.2569 316.258 70.2442 318.072 69.0152C319.892 67.744 321.73 66.3461 323.586 64.8214C325.443 63.2967 327.141 61.8471 328.681 60.4726C330.221 59.0981 331.525 57.9093 332.592 56.9062C333.702 55.8998 334.397 55.3021 334.676 55.113C335.519 54.5036 336.205 54.2616 336.734 54.387C337.263 54.5125 337.25 55.0567 336.693 56.0196C336.42 56.4588 335.647 57.3133 334.374 58.5833C333.101 59.8532 331.527 61.3139 329.653 62.9653C327.78 64.6167 325.711 66.3043 323.448 68.0281C321.228 69.7486 319.014 71.2806 316.805 72.6242C314.644 73.9221 312.614 74.8966 310.713 75.5475C308.812 76.1984 307.269 76.2572 306.082 75.7239C305.285 75.4107 304.703 74.7672 304.336 73.7934C303.975 72.7775 303.969 71.4829 304.318 69.9097C302.049 71.6758 299.834 73.0616 297.673 74.0672C295.512 75.0728 293.325 75.6627 291.113 75.8367C289.752 75.9439 288.688 75.8814 287.922 75.6492C287.156 75.4171 286.571 75.0871 286.169 74.6592C285.816 74.1858 285.596 73.66 285.509 73.0819C285.465 72.5005 285.458 71.958 285.487 71.4544C285.671 69.8524 286.226 68.1586 287.152 66.3729C288.126 64.5417 289.325 62.7554 290.749 61.014C292.179 59.2304 293.785 57.5374 295.568 55.9349C297.4 54.2869 299.268 52.8239 301.173 51.546C303.085 50.2258 304.963 49.138 306.809 48.2826C308.703 47.3816 310.421 46.8286 311.964 46.6235Z" fill="white"/>
<path d="M262.796 49.3033C264.557 49.0393 265.961 49.075 267.008 49.4104C268.102 49.7003 268.897 50.1808 269.39 50.8522C269.927 51.5201 270.215 52.3121 270.253 53.2282C270.34 54.0986 270.3 54.9791 270.132 55.8696C269.964 56.7601 269.699 57.5956 269.336 58.3761C269.022 59.1111 268.71 59.6787 268.401 60.079C267.935 60.7006 267.358 61.2054 266.673 61.5936C266.035 61.9362 265.44 62.1293 264.887 62.1728C264.383 62.1707 263.993 61.9507 263.719 61.5128C263.487 61.0715 263.57 60.3339 263.969 59.2999C264.113 58.8707 264.397 58.2008 264.821 57.2902C265.286 56.3763 265.597 55.5163 265.753 54.7103C265.915 53.862 265.798 53.2028 265.402 52.7327C265.006 52.2625 264.04 52.255 262.503 52.7102C261.009 53.162 259.561 53.8816 258.16 54.8692C256.807 55.8112 255.515 56.9155 254.284 58.1821C253.059 59.4065 251.929 60.7069 250.893 62.0835C249.906 63.4145 249.031 64.6949 248.268 65.9246C247.511 67.1122 246.9 68.1629 246.434 69.0768C245.974 69.9485 245.678 70.5567 245.545 70.9014C244.687 73.0995 244.624 74.5875 245.355 75.3655C246.093 76.1012 247.242 76.3032 248.803 75.9714C250.407 75.6364 252.267 74.8215 254.385 73.5268C256.546 72.2289 258.584 70.6063 260.5 68.6592C261.53 67.6172 262.755 66.3929 264.174 64.9861C265.593 63.5794 267.09 62.0621 268.666 60.4341C270.426 56.6193 272.409 52.5572 274.617 48.2476C276.873 43.8924 279.209 39.5728 281.623 35.2887C284.086 30.959 286.565 26.8161 289.059 22.86C291.56 18.8616 293.928 15.354 296.163 12.3373C298.441 9.3173 300.526 6.9182 302.418 5.14004C304.315 3.31964 305.875 2.40314 307.097 2.39055C308.227 2.4269 308.995 3.24378 309.4 4.84117C309.811 6.39631 309.746 8.34402 309.205 10.6843C308.477 13.7495 307.178 16.9849 305.308 20.3906C303.487 23.7506 301.35 27.1147 298.896 30.4828C296.486 33.8475 293.899 37.1216 291.135 40.3052C288.414 43.4855 285.768 46.43 283.198 49.1389C280.67 51.8444 278.351 54.2619 276.241 56.3914C274.137 58.4787 272.543 60.0872 271.458 61.217C270.188 63.9488 269.118 66.456 268.249 68.7386C267.385 70.9789 266.773 72.9279 266.412 74.5855C266.058 76.2009 265.967 77.4405 266.139 78.3043C266.354 79.1646 266.911 79.5386 267.81 79.426C268.715 79.2712 269.911 78.6967 271.398 77.7024C272.933 76.6625 274.555 75.4486 276.266 74.0607C278.025 72.6272 279.775 71.1109 281.515 69.5118C283.304 67.867 284.926 66.3608 286.381 64.993C287.843 63.5829 289.064 62.3797 290.047 61.3833C291.071 60.3836 291.656 59.8153 291.802 59.6786C292.869 58.6755 293.634 58.3229 294.097 58.6207C294.565 58.8762 294.333 59.6256 293.4 60.8687C293.194 61.1356 292.546 61.8551 291.454 63.0271C290.369 64.1569 288.996 65.5391 287.335 67.1738C285.716 68.8052 283.894 70.5361 281.868 72.3665C279.886 74.1936 277.899 75.8956 275.91 77.4726C273.963 79.0462 272.115 80.3614 270.367 81.418C268.62 82.4746 267.171 83.0481 266.023 83.1385C265.002 83.2188 264.224 83.0712 263.688 82.6956C263.189 82.3589 262.832 81.9066 262.618 81.3385C262.441 80.8094 262.33 80.2542 262.286 79.6728C262.29 79.0458 262.301 78.5227 262.319 78.1036C262.316 77.2265 262.559 75.9541 263.048 74.2864C263.578 72.6153 264.3 70.6369 265.212 68.3509C264.03 69.5719 262.696 70.8258 261.21 72.1124C259.773 73.3535 258.244 74.4973 256.624 75.5439C255.046 76.5872 253.407 77.4681 251.707 78.1868C250.056 78.8598 248.452 79.1949 246.896 79.192C245.802 79.1946 244.83 79.0831 243.978 78.8577C243.169 78.6289 242.512 78.2211 242.006 77.6343C241.549 77.0019 241.267 76.1677 241.161 75.1316C241.104 74.0499 241.298 72.6769 241.744 71.0126C242.117 69.5628 242.991 67.6977 244.365 65.4172C245.787 63.0911 247.481 60.7855 249.444 58.5004C251.408 56.2153 253.542 54.2091 255.847 52.482C258.201 50.7093 260.517 49.6497 262.796 49.3033ZM301.564 10.283C299.383 13.2119 297.118 16.4398 294.768 19.9668C292.419 23.4938 290.07 27.1669 287.721 30.9863C285.415 34.8023 283.166 38.6556 280.976 42.546C278.827 46.4332 276.846 50.1818 275.032 53.7921C278.293 50.3604 281.609 46.6947 284.978 42.795C288.39 38.8919 291.544 35.0301 294.44 31.2095C297.342 27.3466 299.804 23.6228 301.825 20.0381C303.888 16.45 305.181 13.2568 305.703 10.4585C305.974 9.14222 306.062 8.21615 305.97 7.68034C305.878 7.14453 305.661 6.89001 305.321 6.91679C304.981 6.94357 304.425 7.30059 303.655 7.98785C302.928 8.67175 302.23 9.43681 301.564 10.283Z" fill="white"/>
<path d="M189.148 56.7279C190.412 56.712 191.066 56.9947 191.11 57.5761C191.203 58.1119 190.961 58.7785 190.386 59.5757C189.853 60.3696 189.126 61.1997 188.204 62.066C187.288 62.8901 186.479 63.5595 185.775 64.0745C185.393 64.397 184.747 65.0953 183.838 66.1695C182.972 67.2403 182.017 68.4851 180.976 69.9039C179.934 71.3228 178.883 72.805 177.823 74.3505C176.769 75.8539 175.885 77.1976 175.171 78.3818C174.462 79.5237 173.981 80.3971 173.728 81.0019C173.522 81.5612 173.726 81.6078 174.339 81.1418C177.073 78.4618 179.629 76.0048 182.006 73.7707C183.025 72.8132 184.065 71.8541 185.126 70.8932C186.187 69.9324 187.197 69.0383 188.155 68.2109C189.113 67.3836 189.972 66.6685 190.73 66.0657C191.537 65.4174 192.192 64.948 192.696 64.6577C193.709 64.0349 194.62 63.6917 195.428 63.6281C196.236 63.5645 196.908 63.7205 197.444 64.096C198.028 64.426 198.437 64.9579 198.669 65.6915C198.951 66.3796 199.071 67.1639 199.031 68.0443C199.031 68.3367 198.805 69.0438 198.352 70.1656C197.947 71.2419 197.473 72.5116 196.93 73.9747C196.435 75.3923 195.928 76.8943 195.409 78.4809C194.933 80.0641 194.602 81.5105 194.417 82.8201C194.28 84.0842 194.341 85.1447 194.598 86.0018C194.904 86.8132 195.57 87.1576 196.597 87.0351C197.15 86.9915 198.006 86.59 199.165 85.8303C200.318 85.1129 201.65 84.1726 203.16 83.0093C204.677 81.8038 206.32 80.4421 208.091 78.9241C209.862 77.4061 211.621 75.8264 213.367 74.185C215.162 72.498 216.872 70.8178 218.497 69.1442C220.164 67.4673 221.649 65.8882 222.952 64.4071C223.504 63.7788 223.992 63.4479 224.418 63.4144C224.849 63.3387 225.171 63.4387 225.385 63.7143C225.604 63.9477 225.681 64.2967 225.615 64.7615C225.55 65.2262 225.298 65.6637 224.862 66.074C224.813 66.1196 224.177 66.7546 222.952 67.9789C221.727 69.2033 220.187 70.724 218.332 72.541C216.477 74.3581 214.391 76.3186 212.074 78.4226C209.8 80.5233 207.565 82.4955 205.37 84.3394C203.18 86.141 201.136 87.6596 199.236 88.8953C197.38 90.1276 195.922 90.7644 194.865 90.8059C192.957 90.9143 191.725 90.4055 191.169 89.2795C190.656 88.1502 190.501 86.7211 190.703 84.9924C190.948 83.2603 191.402 81.3864 192.066 79.3707C192.772 77.3516 193.391 75.5066 193.921 73.8355C194.501 72.1189 194.819 70.757 194.878 69.7498C194.985 68.697 194.561 68.2708 193.607 68.4711C192.739 68.6648 191.652 69.2099 190.348 70.1063C189.043 71.0027 187.651 72.0731 186.171 73.3176C184.697 74.5197 183.208 75.8275 181.704 77.2409C180.207 78.6121 178.821 79.9326 177.548 81.2026C176.281 82.4303 175.183 83.4984 174.256 84.4069C173.334 85.2732 172.709 85.8236 172.382 86.0583C171.872 86.3909 171.426 86.5722 171.043 86.6023C170.66 86.6325 170.332 86.5747 170.058 86.4292C169.747 86.2447 169.528 86.0113 169.4 85.729C169.229 85.45 169.143 85.1643 169.142 84.872C169.153 84.2027 169.454 83.2599 170.047 82.0436C170.603 80.7883 171.299 79.4385 172.134 77.9941C173.018 76.5042 173.971 74.967 174.995 73.3825C176.06 71.7947 177.044 70.3387 177.947 69.0144C178.855 67.6478 179.63 66.4798 180.272 65.5102C180.962 64.495 181.392 63.8345 181.562 63.5287C181.804 63.0084 182.209 62.3707 182.779 61.6157C183.348 60.8607 183.978 60.1218 184.669 59.399C185.403 58.6728 186.143 58.0506 186.889 57.5324C187.678 57.0107 188.431 56.7426 189.148 56.7279Z" fill="white"/>
<path d="M141.554 68.9338C141.651 68.8426 141.897 68.5935 142.291 68.1865C142.691 67.7372 143.161 67.2407 143.7 66.6969C144.289 66.1076 144.898 65.5165 145.529 64.9238C146.202 64.3277 146.839 63.839 147.439 63.4575C148.083 63.0726 148.641 62.8407 149.115 62.7616C149.632 62.6792 150.006 62.8586 150.238 63.2999C150.629 64.1047 150.6 64.9006 150.152 65.6878C149.711 66.4328 149.129 67.1261 148.407 67.7678C147.685 68.4095 146.954 68.9683 146.214 69.4443C145.474 69.9203 144.982 70.2723 144.74 70.5003C142.666 72.3764 141.02 74.1978 139.803 75.9646C138.592 77.6892 137.714 79.2831 137.171 80.7463C136.772 81.7803 136.531 82.7392 136.448 83.623C136.408 84.5035 136.534 85.2455 136.828 85.8491C137.163 86.4493 137.669 86.8899 138.344 87.171C139.068 87.4064 140.01 87.4367 141.17 87.2619C143.625 86.8598 145.996 85.8586 148.283 84.2582C150.613 82.6544 152.708 80.7767 154.569 78.625C154.356 78.6418 154.086 78.6213 153.757 78.5636C152.31 78.385 151.17 77.9735 150.336 77.3289C149.55 76.6388 148.968 75.8491 148.589 74.9599C148.252 74.0673 148.089 73.1402 148.099 72.1785C148.151 71.2136 148.301 70.3036 148.548 69.4486C148.844 68.5481 149.309 67.6341 149.945 66.7068C150.581 65.7794 151.354 64.9249 152.264 64.1431C153.179 63.319 154.202 62.6328 155.331 62.0844C156.46 61.536 157.647 61.171 158.893 60.9895C159.926 60.8246 160.889 60.8533 161.783 61.0753C162.677 61.2974 163.392 61.7424 163.928 62.4104C164.465 63.0784 164.756 63.9954 164.801 65.1616C164.895 66.2822 164.634 67.6813 164.018 69.359C163.885 69.7037 163.728 70.0712 163.547 70.4614C163.414 70.8061 163.233 71.1964 163.003 71.6322C162.706 72.2404 162.365 72.873 161.977 73.5302C161.596 74.1451 161.19 74.7827 160.76 75.4432C162.315 75.1537 163.931 74.7341 165.607 74.1845C167.332 73.5892 169.004 72.9145 170.625 72.1602C172.289 71.4027 173.855 70.5901 175.324 69.7226C176.798 68.8128 178.087 67.8758 179.191 66.9116C179.573 66.5891 179.91 66.4373 180.202 66.4561C180.542 66.4293 180.78 66.536 180.914 66.7761C181.054 66.9739 181.097 67.2629 181.044 67.6431C181.038 67.9778 180.884 68.3241 180.581 68.6822C179.818 69.6195 178.608 70.5921 176.951 71.5998C175.337 72.6041 173.497 73.5635 171.433 74.4779C169.369 75.3923 167.192 76.2112 164.903 76.9344C162.662 77.6121 160.575 78.0897 158.643 78.367C157.516 79.7926 156.271 81.1648 154.906 82.4836C153.585 83.7992 152.153 84.998 150.612 86.0801C149.071 87.1623 147.451 88.0627 145.751 88.7813C144.093 89.4966 142.368 89.9457 140.576 90.1285C139.13 90.2424 137.859 90.1544 136.764 89.8645C135.67 89.5747 134.793 89.0797 134.135 88.3795C133.483 87.6371 133.113 86.6845 133.025 85.5217C132.901 84.32 133.101 82.9047 133.626 81.2759C134.229 79.3903 135.184 77.3934 136.492 75.2853C137.842 73.1737 139.53 71.0566 141.554 68.9338ZM151.131 70.8119C150.832 72.6319 151.215 73.9386 152.28 74.732C153.352 75.4832 154.833 75.868 156.723 75.8863C157.825 74.3374 158.703 72.8897 159.356 71.5432C159.888 70.457 160.281 69.4652 160.534 68.568C160.835 67.6252 160.97 66.8208 160.938 66.1549C160.906 65.489 160.701 65.0038 160.324 64.6993C159.952 64.3526 159.381 64.2305 158.609 64.333C157.57 64.5401 156.614 64.9078 155.74 65.4361C154.866 65.9644 154.087 66.5688 153.402 67.2494C152.765 67.8844 152.232 68.5321 151.802 69.1925C151.414 69.8497 151.191 70.3895 151.131 70.8119Z" fill="white"/>
<path d="M158.58 15.1436C158.346 16.2065 157.633 17.9754 156.442 20.4504C155.251 22.9254 153.665 25.8074 151.686 29.0963C149.749 32.382 147.482 35.9234 144.883 39.7206C142.291 43.4756 139.453 47.1872 136.368 50.8556C133.326 54.5207 130.105 57.9701 126.703 61.2039C123.301 64.4377 119.847 67.1535 116.339 69.3513C115.178 71.615 114.138 73.7648 113.219 75.8006C112.342 77.833 111.636 79.7059 111.099 81.4192C110.568 83.0902 110.232 84.5789 110.089 85.8852C109.946 87.1915 110.07 88.247 110.461 89.0517C111.103 90.4634 112.238 91.0634 113.866 90.8517C115.537 90.6366 117.444 89.9435 119.586 88.7722C121.735 87.5587 123.992 86.0234 126.358 84.1661C128.766 82.3056 131.028 80.4356 133.145 78.5562C135.267 76.6346 137.114 74.8809 138.684 73.2951C140.303 71.6638 141.397 70.4706 141.966 69.7156C142.178 69.4065 142.43 69.2613 142.722 69.2802C143.056 69.2956 143.312 69.4217 143.489 69.6585C143.714 69.8496 143.842 70.1319 143.873 70.5055C143.905 70.879 143.745 71.2676 143.393 71.6712C142.787 72.3873 141.602 73.6294 139.838 75.3976C138.073 77.1657 135.99 79.1051 133.589 81.2158C131.236 83.2809 128.697 85.3188 125.973 87.3296C123.255 89.2981 120.658 90.8602 118.181 92.016C115.698 93.214 113.475 93.765 111.512 93.6688C109.585 93.6116 108.179 92.5526 107.292 90.4917C106.724 89.1579 106.646 87.3258 107.06 84.9956C107.516 82.662 108.333 80.0076 109.511 77.0323C110.695 74.0148 112.185 70.7644 113.982 67.2809C115.785 63.7552 117.766 60.1527 119.927 56.4734C122.136 52.7486 124.452 49.0154 126.874 45.2738C129.338 41.5289 131.803 37.9302 134.268 34.4776C136.776 31.0217 139.208 27.8015 141.565 24.8171C143.971 21.787 146.192 19.1683 148.229 16.961C150.271 14.7114 152.078 12.9399 153.649 11.6466C155.226 10.311 156.461 9.60801 157.354 9.53771C157.822 9.50088 158.16 9.64141 158.367 9.9593C158.617 10.2738 158.788 10.699 158.881 11.2348C158.973 11.7706 158.969 12.3976 158.867 13.1158C158.814 13.7884 158.719 14.4644 158.58 15.1436ZM155.45 13.6354C155.018 13.7111 154.106 14.5141 152.712 16.0442C151.366 17.5287 149.696 19.5191 147.703 22.0155C145.71 24.5118 143.489 27.4229 141.042 30.7487C138.643 34.0289 136.172 37.5237 133.628 41.233C131.127 44.9391 128.633 48.749 126.144 52.6629C123.662 56.5346 121.383 60.3067 119.307 63.9792C122.668 61.6259 125.955 58.7562 129.168 55.3701C132.387 51.9418 135.399 48.3418 138.204 44.5701C141.051 40.7951 143.619 37.0629 145.907 33.3736C148.244 29.6388 150.19 26.2898 151.745 23.3266C153.299 20.3635 154.412 17.9991 155.082 16.2336C155.759 14.4258 155.881 13.5597 155.45 13.6354Z" fill="white"/>
<path d="M88.7769 64.189C90.5387 63.925 91.876 63.9868 92.7885 64.3746C93.7437 64.7589 94.4014 65.3129 94.7617 66.0365C95.128 66.7179 95.294 67.4777 95.2596 68.3159C95.2311 69.1119 95.1508 69.8284 95.0186 70.4655C94.8141 71.3171 94.4084 71.9548 93.8017 72.3785C93.2375 72.7989 92.6364 73.0342 91.9984 73.0844C91.4029 73.1313 90.8708 73.0269 90.4022 72.7714C89.9396 72.4736 89.7501 72.0289 89.8338 71.4375C89.8816 71.0995 89.9443 70.6559 90.022 70.1067C90.1482 69.5119 90.1833 68.9661 90.1274 68.4692C90.0715 67.9723 89.8488 67.6138 89.4593 67.3938C89.0698 67.1738 88.3892 67.2274 87.4176 67.5545C84.7154 68.5191 82.1841 69.7627 79.8236 71.2853C77.5056 72.8046 75.4249 74.4305 73.5816 76.1631C71.7807 77.8923 70.2534 79.6209 68.9995 81.3488C67.7882 83.0734 66.9138 84.6462 66.3763 86.0671C65.8874 87.4424 65.7686 88.5797 66.0199 89.479C66.3198 90.3327 67.0805 90.7532 68.3021 90.7407C69.4386 90.7348 70.699 90.4476 72.0833 89.8791C73.5102 89.3073 74.9154 88.5909 76.299 87.7301C77.7252 86.8658 79.0539 85.9466 80.2853 84.9724C81.5167 83.9982 82.5235 83.1252 83.3056 82.3535C83.8139 81.4362 84.4587 80.4455 85.2402 79.3814C85.579 78.7698 85.9694 78.0916 86.4112 77.3466C86.8956 76.5983 87.4076 75.9522 87.9472 75.4085C88.5353 74.8191 89.1633 74.3937 89.8312 74.1322C90.5051 73.8286 91.2192 73.835 91.9736 74.1516C92.3691 74.3294 92.6097 74.5611 92.6955 74.8468C92.8238 75.1291 92.8458 75.4198 92.7614 75.7189C92.8718 76.128 92.7389 76.4726 92.3628 76.7529L91.6441 77.3734C90.141 79.0792 88.6588 80.6371 87.1976 82.0472C86.1676 83.3815 85.4533 84.5657 85.0547 85.5997C84.6561 86.6337 84.4486 87.5064 84.4321 88.2179C84.4581 88.9261 84.5871 89.5008 84.8191 89.942C85.0997 90.3377 85.4071 90.5433 85.7414 90.5588C86.8174 90.683 88.1446 90.3696 89.723 89.6188C91.3498 88.8223 93.0704 87.8096 94.8846 86.5807C96.7048 85.3094 98.5429 83.9115 100.399 82.3868C102.255 80.8621 103.953 79.4125 105.494 78.038C107.034 76.6635 108.338 75.4747 109.405 74.4717C110.515 73.4653 111.209 72.8675 111.488 72.6784C112.332 72.069 113.018 71.827 113.547 71.9525C114.076 72.0779 114.062 72.6221 113.505 73.585C113.233 74.0242 112.46 74.8788 111.187 76.1487C109.914 77.4186 108.34 78.8793 106.466 80.5307C104.592 82.1822 102.524 83.8698 100.261 85.5936C98.0407 87.314 95.8261 88.846 93.6171 90.1896C91.4566 91.4876 89.426 92.462 87.5253 93.1129C85.6246 93.7638 84.081 93.8226 82.8946 93.2894C82.0977 92.9761 81.5157 92.3326 81.1487 91.3589C80.7876 90.3429 80.7814 89.0483 81.1301 87.4752C78.8614 89.2412 76.6464 90.627 74.4852 91.6326C72.324 92.6382 70.1375 93.2281 67.9257 93.4022C66.5646 93.5093 65.5008 93.4468 64.7345 93.2147C63.9682 92.9826 63.3839 92.6525 62.9817 92.2247C62.6281 91.7512 62.408 91.2254 62.3215 90.6474C62.2776 90.066 62.2702 89.5234 62.2993 89.0198C62.4838 87.4178 63.0389 85.724 63.9644 83.9383C64.9385 82.1071 66.1375 80.3208 67.5615 78.5795C68.9915 76.7959 70.5979 75.1028 72.3808 73.5004C74.2123 71.8523 76.0806 70.3893 77.9859 69.1114C79.8971 67.7913 81.7755 66.7035 83.621 65.848C85.515 64.947 87.2337 64.394 88.7769 64.189Z" fill="white"/>
<path d="M43.6769 26.2551C46.1619 25.9342 48.2927 26.1843 50.0693 27.0053C51.8885 27.823 53.4472 28.9954 54.7455 30.5225C56.0497 32.0073 57.1114 33.7201 57.9305 35.6609C58.7981 37.5561 59.4926 39.4858 60.014 41.45C60.5413 43.372 60.9377 45.1789 61.2032 46.8708C61.5112 48.5594 61.7636 49.8973 61.9605 50.8844C62.2006 52.1606 62.1758 53.2278 61.8862 54.0861C61.6025 54.9022 61.1726 55.5627 60.5965 56.0675C60.0204 56.5724 59.389 56.8728 58.7025 56.9686C58.0585 57.061 57.4779 57.0023 56.9608 56.7923C56.4497 56.5401 56.0628 56.1528 55.8002 55.6304C55.5861 55.0624 55.6694 54.3247 56.0501 53.4175C56.2434 52.9427 56.3536 52.015 56.3806 50.6342C56.4502 49.2502 56.3582 47.6699 56.1047 45.8935C55.8938 44.1137 55.5033 42.2645 54.9335 40.3459C54.3695 38.385 53.5661 36.631 52.523 35.0838C51.5285 33.4911 50.2582 32.2124 48.7122 31.2479C47.1661 30.2834 45.3084 29.8866 43.1391 30.0573C41.5228 30.1845 40.0654 30.6752 38.7668 31.5293C37.4683 32.3835 36.3283 33.455 35.3469 34.7437C34.3654 36.0325 33.5485 37.4962 32.8961 39.1351C32.2922 40.7283 31.8738 42.3487 31.6408 43.9963C31.2345 46.8691 31.414 49.466 32.1793 51.787C32.9872 54.1046 34.129 56.2915 35.6048 58.3477C37.0866 60.3617 38.787 62.3167 40.706 64.2127C42.6736 66.0631 44.6322 67.9768 46.5819 69.954C49.1266 69.2106 51.5317 68.5618 53.7973 68.0075C56.1055 67.4499 58.1282 66.9773 59.8654 66.59C61.6512 66.157 63.106 65.8336 64.2298 65.6198C65.4022 65.3605 66.1432 65.1768 66.4529 65.0689C67.2969 64.7518 67.9442 64.7844 68.3949 65.1667C68.8516 65.5067 69.0989 65.9886 69.1369 66.6123C69.1808 67.1937 68.9878 67.8146 68.5579 68.4751C68.1765 69.0899 67.5638 69.5559 66.7198 69.873C66.4101 69.9809 65.7784 70.1351 64.8247 70.3355C63.871 70.5359 62.6349 70.8003 61.1163 71.1287C59.6462 71.4115 57.9574 71.7532 56.05 72.154C54.1426 72.5548 52.0987 73.029 49.9182 73.5766C51.1067 74.987 52.2012 76.4674 53.2017 78.0179C54.2022 79.5685 55.0389 81.2363 55.7118 83.0215C56.3847 84.8067 56.8482 86.7337 57.1024 88.8025C57.3626 90.829 57.3437 93.0446 57.0457 95.4493C56.8133 97.3893 55.9609 99.2528 54.4884 101.04C53.0525 102.866 51.0934 104.524 48.6113 106.014C46.1292 107.504 43.1695 108.803 39.7323 109.909C36.3316 111.054 32.5746 111.892 28.4614 112.425C24.2205 112.968 20.4133 113.121 17.0396 112.885C13.7085 112.646 10.8961 112.011 8.6023 110.98C6.35107 109.946 4.68232 108.51 3.59604 106.674C2.54632 104.877 2.20669 102.669 2.57713 100.049C2.91173 97.6836 3.70859 95.4695 4.96772 93.4069C6.23282 91.3021 7.81431 89.3395 9.71218 87.5191C11.6526 85.6953 13.8698 83.996 16.3639 82.4211C18.858 80.8462 21.48 79.4074 24.23 78.1048C27.0285 76.7566 29.8941 75.5285 32.8269 74.4204C35.7597 73.3123 38.6563 72.3114 41.5167 71.4179C39.6036 69.4797 37.7118 67.5397 35.8412 65.5982C33.9707 63.6566 32.3218 61.6349 30.8945 59.5331C29.5158 57.3857 28.4497 55.1092 27.6963 52.7038C26.9854 50.2949 26.8331 47.6541 27.2394 44.7814C27.5322 42.7113 28.0772 40.6423 28.8744 38.5743C29.7142 36.503 30.8218 34.6194 32.1973 32.9237C33.5788 31.1857 35.2162 29.72 37.1095 28.5266C39.0453 27.3298 41.2345 26.5727 43.6769 26.2551ZM52.7888 95.659C53.0935 93.5045 53.0826 91.5001 52.756 89.6459C52.4778 87.7461 51.9538 85.9492 51.1839 84.2552C50.4566 82.5578 49.5288 80.9389 48.4007 79.3984C47.3152 77.8546 46.1173 76.3614 44.8071 74.9188C42.0922 75.6755 39.3016 76.5218 36.4353 77.4576C33.5689 78.3933 30.7484 79.4508 27.9738 80.6301C25.2478 81.7637 22.6284 83.0351 20.1157 84.4444C17.6515 85.808 15.4216 87.2995 13.426 88.9187C11.4304 90.5379 9.75115 92.2993 8.38831 94.203C7.03145 96.0643 6.11559 98.079 5.64073 100.247C5.304 101.736 5.59001 103.133 6.49875 104.441C7.40749 105.748 8.85055 106.846 10.8279 107.734C12.7993 108.665 15.2532 109.308 18.1896 109.662C21.1684 110.012 24.5627 109.954 28.3722 109.487C31.1124 109.146 33.8824 108.594 36.6823 107.83C39.4763 107.109 42.0053 106.179 44.2695 105.04C46.5762 103.897 48.4934 102.535 50.0212 100.953C51.5854 99.4091 52.508 97.6446 52.7888 95.659Z" fill="white"/>
</svg>
