<svg width="287" height="102" viewBox="0 0 287 102" fill="none" xmlns="http://www.w3.org/2000/svg">
<path d="M278.939 6.65387C280.878 6.62662 282.416 6.90243 283.554 7.48128C284.735 8.0568 285.341 8.6775 285.373 9.3434C285.447 10.0059 284.875 10.6359 283.655 11.2332C282.44 11.7883 280.426 12.0513 277.612 12.0221C276.98 12.0301 276.321 11.9358 275.633 11.7392C274.989 11.5393 274.344 11.3394 273.699 11.1394C273.054 10.9395 272.471 10.7557 271.947 10.588C271.424 10.4203 270.996 10.3287 270.661 10.3132C264.529 10.2528 258.701 10.5652 253.178 11.2505C247.655 11.9358 242.507 12.8006 237.732 13.8448C234.303 18.1669 230.965 22.7325 227.719 27.5416C224.516 32.3473 221.553 37.0923 218.829 41.7767C216.111 46.4188 213.718 50.8474 211.65 55.0625C209.588 59.2353 208.001 62.8693 206.891 65.9646C205.822 69.0566 205.29 71.4797 205.295 73.2339C205.347 74.9426 206.112 75.6344 207.588 75.3093C209.015 75.0299 210.649 74.3374 212.487 73.2318C214.326 72.1262 216.235 70.8272 218.212 69.3347C220.196 67.8 222.149 66.1841 224.071 64.4871C226.036 62.7868 227.795 61.2071 229.347 59.7481C230.948 58.2435 232.285 56.9685 233.358 55.9232C234.432 54.8779 235.09 54.2413 235.332 54.0133C235.714 53.6908 236.033 53.5195 236.288 53.4994C236.549 53.4371 236.756 53.4626 236.908 53.5759C237.103 53.6859 237.228 53.8432 237.283 54.0477C237.338 54.2523 237.354 54.439 237.33 54.608C237.312 54.7348 236.755 55.4053 235.657 56.6196C234.566 57.7916 233.117 59.2634 231.311 61.0349C229.552 62.7607 227.542 64.6317 225.28 66.6479C223.018 68.6641 220.689 70.5602 218.292 72.3363C215.902 74.0701 213.548 75.5505 211.229 76.7774C208.904 78.0465 206.827 78.753 204.998 78.897C203.51 79.0142 202.506 78.5292 201.986 77.4421C201.467 76.355 201.327 74.8204 201.565 72.8381C201.852 70.8103 202.484 68.4211 203.462 65.6705C204.446 62.8776 205.672 59.8568 207.141 56.6079C208.61 53.3591 210.292 49.9474 212.185 46.3727C214.079 42.7981 216.1 39.2134 218.249 35.6186C220.398 32.0239 222.598 28.5086 224.851 25.0728C227.152 21.5914 229.444 18.3196 231.728 15.2573C228.454 16.0998 225.472 16.9611 222.782 17.8413C220.14 18.6758 217.845 19.4413 215.896 20.1378C213.946 20.8343 212.392 21.4162 211.232 21.8834C210.115 22.3474 209.447 22.6088 209.229 22.6678C208.36 22.8615 207.737 22.8061 207.359 22.5016C207.024 22.1937 206.893 21.7863 206.964 21.2794C207.036 20.7724 207.254 20.2749 207.617 19.7867C208.029 19.253 208.569 18.8554 209.237 18.594C209.455 18.535 210.184 18.2896 211.423 17.8579C212.668 17.384 214.368 16.8115 216.524 16.1405C218.722 15.4662 221.328 14.7389 224.341 13.9588C227.353 13.1786 230.746 12.3894 234.518 11.5912C235.487 10.3869 236.405 9.2494 237.272 8.17858C238.187 7.06217 239.09 6.03024 239.981 5.08282C240.527 4.49679 241.1 4.15922 241.702 4.07011C242.352 3.9354 242.893 3.97638 243.325 4.19303C243.757 4.40969 244.022 4.7648 244.12 5.25836C244.267 5.70633 244.116 6.17774 243.668 6.67257L240.486 10.4322C245.929 9.41891 251.853 8.57673 258.257 7.9056C264.71 7.18888 271.604 6.77164 278.939 6.65387Z" fill="white"/>
<path d="M198.397 44.3244C199.223 44.134 199.807 44.1717 200.148 44.4373C200.495 44.6606 200.699 44.9996 200.761 45.4543C200.829 45.8667 200.763 46.3314 200.564 46.8484C200.407 47.3621 200.22 47.7946 200.002 48.1459C199.469 48.9398 198.66 49.9017 197.575 51.0315C196.538 52.1157 195.441 53.1838 194.283 54.2358C193.167 55.2845 192.148 56.2419 191.226 57.1082C190.311 57.9323 189.75 58.4777 189.544 58.7446C187.091 62.1126 185.325 64.779 184.248 66.7437C183.22 68.6628 182.71 70.0398 182.718 70.8746C182.774 71.6639 183.255 71.9812 184.16 71.8264C185.066 71.6716 186.225 71.2043 187.64 70.4246C189.096 69.6416 190.713 68.6161 192.491 67.3483C194.317 66.0348 196.131 64.6597 197.933 63.2228C199.74 61.7437 201.463 60.2713 203.1 58.8056C204.738 57.3399 206.102 56.0211 207.193 54.849C207.484 54.5754 207.797 54.4464 208.131 54.4619C208.514 54.4317 208.839 54.5106 209.107 54.6984C209.375 54.8862 209.549 55.144 209.628 55.472C209.714 55.7576 209.612 56.0373 209.321 56.3108C206.574 59.0753 203.818 61.6108 201.052 63.9173C198.335 66.1781 195.748 68.1155 193.29 69.7293C190.839 71.3008 188.605 72.521 186.589 73.3898C184.622 74.2131 183.034 74.5887 181.824 74.5168C180.614 74.4449 179.875 73.8765 179.605 72.8116C179.383 71.7011 179.768 70.0206 180.759 67.7702C179.535 68.9946 178.27 70.2012 176.967 71.3899C175.711 72.5331 174.492 73.569 173.309 74.4976C172.169 75.4229 171.071 76.1986 170.015 76.8248C169.007 77.4054 168.115 77.7681 167.337 77.9129C165.691 78.2513 164.497 78.22 163.754 77.8189C163.054 77.4144 162.664 76.7559 162.583 75.8432C162.501 74.9305 162.696 73.8499 163.167 72.6013C163.644 71.3105 164.255 69.9674 164.999 68.572C165.749 67.1343 166.584 65.69 167.505 64.2389C168.467 62.7846 169.373 61.4391 170.221 60.2027C171.068 58.9662 171.832 57.8827 172.51 56.952C173.188 56.0213 173.637 55.3803 173.855 55.0289C174.569 53.8447 175.32 52.6995 176.107 51.5931C176.895 50.4867 177.682 49.5265 178.47 48.7125C179.264 47.8563 180.053 47.1885 180.836 46.7091C181.661 46.2264 182.445 46.0394 183.186 46.1481C183.721 46.2314 183.993 46.5442 184 47.0867C184.05 47.6259 183.897 48.2646 183.54 49.0029C183.226 49.7378 182.781 50.5039 182.205 51.3011C181.636 52.0562 181.063 52.6861 180.487 53.191C179.577 53.9728 178.574 54.9708 177.477 56.1851C176.428 57.3538 175.365 58.6281 174.286 60.0081C173.208 61.388 172.147 62.7874 171.105 64.2062C170.064 65.625 169.137 66.9721 168.326 68.2475C167.52 69.4806 166.861 70.5769 166.346 71.5365C165.881 72.4504 165.621 73.0975 165.567 73.4777C165.442 74.6573 165.663 75.3292 166.228 75.4936C166.8 75.6157 167.511 75.4971 168.361 75.1378C169.217 74.7362 170.091 74.2079 170.982 73.5528C171.917 72.8944 172.666 72.355 173.23 71.9347C174.456 71.0027 175.835 69.7244 177.369 68.0998C178.903 66.4751 180.421 64.8099 181.924 63.1041C183.427 61.3983 184.788 59.8082 186.006 58.3337C187.272 56.8137 188.205 55.7167 188.806 55.0428C189.12 54.6003 189.432 54.1789 189.741 53.7786C190.099 53.3327 190.481 52.864 190.887 52.3725C191.656 51.3929 192.38 50.4377 193.059 49.507C193.737 48.5763 194.379 47.7529 194.985 47.0368C195.591 46.3207 196.179 45.7313 196.75 45.2687C197.326 44.7638 197.875 44.449 198.397 44.3244Z" fill="white"/>
<path d="M133.843 60.058C133.94 59.9668 134.186 59.7177 134.58 59.3107C134.98 58.8615 135.45 58.365 135.989 57.8212C136.578 57.2318 137.187 56.6408 137.818 56.0481C138.491 55.452 139.128 54.9632 139.728 54.5817C140.372 54.1969 140.93 53.9649 141.404 53.8859C141.921 53.8035 142.295 53.9829 142.527 54.4242C142.918 55.2289 142.889 56.0249 142.441 56.8121C142 57.5571 141.418 58.2504 140.696 58.8921C139.974 59.5337 139.243 60.0926 138.503 60.5686C137.763 61.0446 137.271 61.3966 137.029 61.6246C134.955 63.5006 133.309 65.3221 132.092 67.0889C130.881 68.8135 130.003 70.4074 129.46 71.8705C129.061 72.9045 128.82 73.8634 128.737 74.7473C128.697 75.6277 128.823 76.3698 129.117 76.9733C129.452 77.5735 129.958 78.0142 130.633 78.2952C131.357 78.5307 132.299 78.561 133.46 78.3861C135.914 77.9841 138.285 76.9829 140.572 75.3825C142.902 73.7787 144.997 71.901 146.858 69.7493C146.645 69.766 146.375 69.7456 146.046 69.6878C144.599 69.5093 143.459 69.0977 142.625 68.4532C141.839 67.7631 141.257 66.9734 140.878 66.0841C140.541 65.1915 140.378 64.2644 140.388 63.3028C140.44 62.3378 140.59 61.4279 140.837 60.5729C141.133 59.6723 141.598 58.7584 142.234 57.831C142.87 56.9037 143.643 56.0491 144.553 55.2674C145.468 54.4433 146.491 53.7571 147.62 53.2087C148.749 52.6603 149.936 52.2953 151.182 52.1137C152.215 51.9489 153.178 51.9775 154.072 52.1996C154.966 52.4217 155.681 52.8667 156.218 53.5347C156.754 54.2026 157.045 55.1197 157.09 56.2859C157.184 57.4064 156.923 58.8056 156.307 60.4833C156.174 60.828 156.017 61.1954 155.836 61.5857C155.703 61.9304 155.522 62.3206 155.292 62.7565C154.995 63.3647 154.654 63.9973 154.266 64.6544C153.885 65.2693 153.479 65.907 153.049 66.5675C154.604 66.278 156.22 65.8584 157.896 65.3087C159.621 64.7135 161.294 64.0387 162.914 63.2845C164.578 62.527 166.144 61.7144 167.613 60.8469C169.087 59.9371 170.376 59.0001 171.48 58.0359C171.862 57.7134 172.199 57.5616 172.491 57.5804C172.831 57.5536 173.069 57.6602 173.203 57.9003C173.343 58.0982 173.386 58.3872 173.333 58.7674C173.327 59.102 173.173 59.4484 172.87 59.8064C172.107 60.7438 170.897 61.7163 169.24 62.724C167.626 63.7284 165.786 64.6877 163.722 65.6022C161.658 66.5166 159.481 67.3354 157.192 68.0587C154.951 68.7364 152.864 69.2139 150.932 69.4913C149.805 70.9168 148.56 72.289 147.195 73.6079C145.874 74.9234 144.442 76.1223 142.901 77.2044C141.36 78.2865 139.74 79.1869 138.04 79.9056C136.382 80.6209 134.657 81.07 132.865 81.2528C131.419 81.3666 130.148 81.2786 129.054 80.9888C127.959 80.699 127.082 80.204 126.424 79.5038C125.772 78.7614 125.402 77.8087 125.314 76.6459C125.19 75.4442 125.39 74.029 125.915 72.4002C126.518 70.5146 127.473 68.5177 128.781 66.4095C130.131 64.298 131.819 62.1808 133.843 60.058ZM143.42 61.9362C143.121 63.7561 143.504 65.0628 144.569 65.8563C145.641 66.6074 147.122 66.9922 149.012 67.0106C150.114 65.4616 150.992 64.014 151.645 62.6675C152.177 61.5812 152.57 60.5895 152.823 59.6923C153.125 58.7494 153.259 57.9451 153.227 57.2792C153.195 56.6133 152.991 56.1281 152.613 55.8236C152.241 55.4769 151.67 55.3547 150.898 55.4573C149.859 55.6643 148.903 56.032 148.029 56.5603C147.155 57.0887 146.376 57.6931 145.691 58.3737C145.054 59.0086 144.521 59.6563 144.091 60.3168C143.704 60.9739 143.48 61.5137 143.42 61.9362Z" fill="white"/>
<path d="M133.9 7.91674C134.684 8.02212 135.068 8.43056 135.051 9.14204C135.035 9.85354 134.782 10.7508 134.292 11.8337C133.808 12.8744 133.164 14.0113 132.359 15.2444C131.559 16.4353 130.766 17.5839 129.978 18.6902C129.191 19.7966 128.467 20.7518 127.807 21.5557C127.189 22.3563 126.801 22.8673 126.643 23.0885C121.229 30.7419 116.25 37.8388 111.708 44.3791C107.214 50.8739 103.396 56.7514 100.255 62.0118C101 61.2011 102.037 60.2631 103.366 59.1977C104.7 58.0901 106.135 57.0163 107.67 55.9764C109.205 54.9365 110.741 54.0429 112.276 53.2953C113.861 52.5022 115.276 52.0149 116.521 51.8333C117.42 51.7208 118.202 51.8473 118.865 52.2128C119.534 52.5361 120.025 53.0824 120.337 53.8516C120.691 54.6175 120.806 55.5902 120.681 56.7697C120.605 57.9037 120.255 59.1844 119.633 60.612C118.775 62.5177 117.889 64.3212 116.975 66.0223C116.11 67.6779 115.172 69.2557 114.16 70.7557C117.822 69.5484 121.587 68.0615 125.454 66.295C129.364 64.5251 133.174 62.1155 136.887 59.0662C137.269 58.7436 137.603 58.6129 137.888 58.674C138.217 58.7317 138.445 58.9017 138.573 59.1841C138.708 59.4241 138.702 59.7588 138.558 60.1879C138.461 60.5715 138.177 60.949 137.703 61.3204C135.556 63.1187 133.354 64.7124 131.096 66.1016C128.839 67.4907 126.584 68.7126 124.332 69.7671C122.08 70.8217 119.867 71.7478 117.693 72.5456C115.525 73.301 113.427 74.0092 111.398 74.6702C109.854 76.6717 108.32 78.4425 106.798 79.9827C105.277 81.5228 103.809 82.8289 102.396 83.901C100.982 84.9731 99.6624 85.829 98.4363 86.4686C97.2527 87.1048 96.2538 87.4758 95.4397 87.5817C94.4919 87.7398 93.7413 87.6945 93.1876 87.4456C92.6339 87.1967 92.2228 86.8322 91.9542 86.3521C91.7222 85.9108 91.6055 85.3978 91.6041 84.813C91.5967 84.2705 91.6684 83.7636 91.8191 83.2922C92.2775 81.8357 93.0007 80.5882 93.9889 79.5495C95.0195 78.5076 96.2632 77.5951 97.72 76.812C99.1826 75.9867 100.822 75.2519 102.637 74.6077C104.459 73.9213 106.405 73.2459 108.476 72.5816C110.039 70.4534 111.474 68.3352 112.782 66.227C114.09 64.1188 115.112 62.242 115.85 60.5965C116.636 58.9053 117.03 57.6001 117.034 56.6807C117.044 55.7191 116.508 55.3435 115.427 55.5539C114.036 55.8723 112.503 56.4525 110.828 57.2945C109.152 58.1366 107.392 59.2777 105.548 60.7179C103.747 62.1547 101.903 63.8873 100.018 65.9156C98.1329 67.9439 96.3093 70.2806 94.5471 72.9259C93.8402 74.6526 93.3334 76.1546 93.0265 77.432C92.9242 77.8579 92.8465 78.4071 92.7935 79.0796C92.7464 79.71 92.6202 80.3048 92.4149 80.864C92.2522 81.4199 91.9555 81.8819 91.5249 82.25C91.1428 82.5725 90.5413 82.6616 89.7205 82.5174C88.3766 82.2054 87.6424 81.4485 87.5179 80.2468C87.3509 79.0484 87.5966 77.6087 88.255 75.9277C88.8768 74.2077 89.79 72.3603 90.9946 70.3856C92.2418 68.4075 93.5834 66.5056 95.0193 64.6797C95.3283 64.2794 95.9068 63.4611 96.7546 62.2246C97.651 60.9426 98.7108 59.397 99.9341 57.5879C101.163 55.7366 102.526 53.6867 104.022 51.4385C105.566 49.1446 107.14 46.7856 108.745 44.3617C110.356 41.8955 111.966 39.4292 113.577 36.963C115.193 34.4546 116.728 32.0779 118.182 29.8329C119.677 27.5846 121.018 25.5365 122.205 23.6885C123.44 21.7949 124.442 20.2121 125.211 18.9401C125.581 18.4097 126.083 17.5347 126.718 16.3149C127.402 15.0496 128.146 13.8004 128.952 12.5673C129.763 11.292 130.593 10.1822 131.441 9.23816C132.333 8.29073 133.152 7.85026 133.9 7.91674ZM99.7766 82.7912C100.601 82.0161 101.489 81.0898 102.441 80.0123C103.435 78.9314 104.441 77.7661 105.459 76.5162C102.641 77.4064 100.261 78.3248 98.3185 79.2715C96.4185 80.2147 95.133 81.423 94.4619 82.8962C93.9783 83.9369 93.8827 84.6128 94.1751 84.924C94.4676 85.2352 94.9389 85.3234 95.5888 85.1887C96.2388 85.054 96.9552 84.747 97.7381 84.2676C98.5635 83.7849 99.243 83.2927 99.7766 82.7912Z" fill="white"/>
<path d="M108.791 10.2061C108.791 10.2061 109.028 10.1665 109.502 10.0874C109.976 10.0084 110.411 10.0577 110.806 10.2355C111.244 10.4099 111.5 10.8284 111.575 11.4909C111.698 12.1079 111.406 13.1335 110.698 14.5678C110.328 14.8058 109.946 15.1283 109.552 15.5353C109.14 16.069 108.707 16.6044 108.252 17.1415C107.84 17.6753 107.428 18.209 107.016 18.7427C105.75 20.5552 104.291 22.8424 102.639 25.6043C101.029 28.3629 99.3162 31.4011 97.501 34.7189C95.7283 38.0334 93.9287 41.538 92.1023 45.2327C90.3184 48.9241 88.574 52.6332 86.8692 56.3601C85.2128 60.0415 83.6688 63.6722 82.2372 67.2522C80.854 70.7867 79.6951 74.0738 78.7604 77.1135C77.8258 80.1531 77.1516 82.8381 76.7379 85.1683C76.3668 87.4952 76.3651 89.2917 76.7328 90.5578C76.9901 91.4148 76.9677 92.1686 76.6654 92.819C76.3571 93.5117 75.8996 94.0699 75.2928 94.4936C74.7227 94.9563 74.0701 95.2583 73.335 95.3997C72.594 95.5833 71.9011 95.5752 71.2564 95.3753C70.6483 95.2143 70.1521 94.8564 69.7678 94.3018C69.4202 93.7861 69.318 93.0213 69.4614 92.0074C69.6466 90.6977 69.8185 88.8878 69.977 86.5777C70.1354 84.2675 70.1294 81.7823 69.9588 79.1221C69.8308 76.4585 69.4506 73.7939 68.8181 71.1282C68.1856 68.4626 67.1953 66.0966 65.8471 64.0304C60.8147 68.98 55.8395 73.6745 50.9213 78.1138C46.0091 82.5109 41.3631 86.3649 36.9831 89.6757C32.5971 93.0287 28.5832 95.6841 24.9414 97.6418C21.2936 99.6417 18.2664 100.674 15.8599 100.738C12.6086 100.826 9.97893 100.386 7.97096 99.416C5.96299 98.4461 4.46473 97.1436 3.47618 95.5086C2.48763 93.8736 1.97259 92.0133 1.93106 89.9278C1.8955 87.8 2.24275 85.6421 2.97283 83.4541C3.70887 81.2238 4.77026 79.0723 6.157 76.9997C7.59224 74.8815 9.24088 73.039 11.1029 71.472C13.0134 69.8595 15.1041 68.6088 17.375 67.7199C19.6459 66.831 22.0092 66.4779 24.465 66.6606C26.0455 66.7868 27.3286 67.0827 28.3143 67.5482C29.3425 68.0104 30.067 68.5382 30.4878 69.1318C30.9086 69.7253 31.0559 70.3194 30.9297 70.9142C30.8461 71.5057 30.4826 71.9938 29.8393 72.3787C29.2386 72.7602 28.364 72.9961 27.2155 73.0865C26.1156 73.1313 24.8023 72.9004 23.2756 72.3939C21.1832 71.7231 19.2016 71.6075 17.3308 72.0472C15.4659 72.4446 13.7783 73.2249 12.2678 74.3882C10.8058 75.5059 9.53591 76.9009 8.45816 78.5732C7.42295 80.2422 6.64927 81.995 6.13714 83.8317C5.62501 85.6683 5.41062 87.4816 5.49398 89.2714C5.62585 91.0156 6.10063 92.5657 6.91833 93.9217C7.77856 95.2744 9.0209 96.3046 10.6453 97.0123C12.3063 97.7589 14.4159 98.0106 16.974 97.7675C18.3836 97.6148 20.0839 97.0423 22.075 96.0501C24.0601 95.1001 26.2631 93.7988 28.684 92.1461C31.105 90.4934 33.7136 88.5544 36.51 86.3291C39.3064 84.1037 42.1934 81.6833 45.1712 79.0677C48.1549 76.4099 51.2233 73.5991 54.3765 70.6355C57.5296 67.6719 60.6705 64.6466 63.799 61.5597C62.6843 60.5194 61.3908 59.7022 59.9186 59.1078C58.4949 58.4679 56.8167 58.1405 54.884 58.1255C52.9997 58.0649 50.8581 58.3379 48.4589 58.9444C46.1022 59.5477 43.4761 60.569 40.5806 62.0084C39.8582 62.3577 39.2445 62.3851 38.7393 62.0906C38.2767 61.7928 38.0659 61.3499 38.107 60.7618C38.1541 60.1314 38.5232 59.4549 39.2143 58.7321C39.9479 58.0059 41.1468 57.4102 42.8109 56.9451C48.4653 55.3303 53.2136 54.7686 57.0558 55.26C60.8981 55.7513 64.0037 56.99 66.3727 58.9759C69.2647 56.0746 72.0928 53.1784 74.8572 50.2871C77.6641 47.3926 80.3557 44.5697 82.932 41.8186C85.5568 39.0219 88.0391 36.3409 90.3788 33.7755C92.7245 31.1679 94.8791 28.7216 96.8427 26.4364C98.2526 23.9025 99.5872 21.6042 100.846 19.5416C102.105 17.4791 103.256 15.7384 104.298 14.3195C105.388 12.8551 106.3 11.7598 107.034 11.0337C107.81 10.3042 108.396 10.0283 108.791 10.2061ZM91.1261 37.4139C87.5803 41.3693 83.9252 45.3541 80.1607 49.3684C76.4023 53.3405 72.5617 57.2982 68.6391 61.2414C69.7851 62.6551 70.7158 64.2529 71.4312 66.0348C72.1466 67.8166 72.6953 69.7369 73.0771 71.7957C73.4649 73.8122 73.6918 75.9249 73.758 78.1338C73.8241 80.3427 73.7597 82.5828 73.5646 84.8541C74.0433 81.7667 74.8493 78.2986 75.9826 74.4495C77.1583 70.5972 78.5251 66.5835 80.083 62.4087C81.6834 58.2304 83.4357 54.0194 85.3398 49.7755C87.2499 45.4893 89.1787 41.3688 91.1261 37.4139Z" fill="white"/>
</svg>
