<svg width="20" height="20" viewBox="0 0 20 20" fill="none" xmlns="http://www.w3.org/2000/svg">
<mask id="mask0_130_1977" style="mask-type:alpha" maskUnits="userSpaceOnUse" x="0" y="-1" width="20" height="21">
<rect y="-0.000244141" width="20" height="20" fill="#D9D9D9"/>
</mask>
<g mask="url(#mask0_130_1977)">
<path d="M5.32025 16.2177V15.8331L6.57025 14.9998C5.90039 14.9998 5.33234 14.7666 4.86609 14.3002C4.3997 13.8339 4.1665 13.2659 4.1665 12.596V4.99976C4.1665 4.11406 4.62109 3.47601 5.53025 3.08559C6.43942 2.69503 7.92928 2.49976 9.99984 2.49976C12.0896 2.49976 13.5842 2.6926 14.4838 3.0783C15.3834 3.46399 15.8332 4.10448 15.8332 4.99976V12.596C15.8332 13.2659 15.6 13.8339 15.1336 14.3002C14.6673 14.7666 14.0993 14.9998 13.4294 14.9998L14.6794 15.8331V16.2177H5.32025ZM4.99984 9.16642H14.9998V5.44851H4.99984V9.16642ZM9.99984 13.0127C10.2616 13.0127 10.482 12.9232 10.6609 12.7441C10.8399 12.5652 10.9294 12.3449 10.9294 12.0831C10.9294 11.8213 10.8399 11.6009 10.6609 11.422C10.482 11.243 10.2616 11.1535 9.99984 11.1535C9.73803 11.1535 9.51768 11.243 9.3388 11.422C9.15977 11.6009 9.07025 11.8213 9.07025 12.0831C9.07025 12.3449 9.15977 12.5652 9.3388 12.7441C9.51768 12.9232 9.73803 13.0127 9.99984 13.0127ZM6.57025 14.1664H13.4294C13.8653 14.1664 14.2359 14.0136 14.5415 13.7081C14.8471 13.4025 14.9998 13.0318 14.9998 12.596V9.99975H4.99984V12.596C4.99984 13.0318 5.15262 13.4025 5.45817 13.7081C5.76373 14.0136 6.13442 14.1664 6.57025 14.1664ZM9.99984 3.33309C8.47414 3.33309 7.3163 3.43726 6.5263 3.64559C5.73616 3.85392 5.25616 4.17712 5.0863 4.61517H14.9325C14.7787 4.17712 14.3067 3.85392 13.5167 3.64559C12.7266 3.43726 11.5543 3.33309 9.99984 3.33309Z" fill="#3D3D3D"/>
</g>
</svg>
