<svg width="20" height="20" viewBox="0 0 20 20" fill="none" xmlns="http://www.w3.org/2000/svg">
<mask id="mask0_130_1972" style="mask-type:alpha" maskUnits="userSpaceOnUse" x="0" y="-1" width="20" height="21">
<rect y="-0.000244141" width="20" height="20" fill="#D9D9D9"/>
</mask>
<g mask="url(#mask0_130_1972)">
<path d="M10.0029 9.77538C10.3739 9.77538 10.6905 9.6433 10.9527 9.37913C11.215 9.11496 11.3462 8.79739 11.3462 8.42642C11.3462 8.05545 11.2141 7.73878 10.9498 7.47642C10.6856 7.2142 10.368 7.08309 9.99705 7.08309C9.62608 7.08309 9.30948 7.21517 9.04726 7.47934C8.7849 7.74351 8.65372 8.06108 8.65372 8.43205C8.65372 8.80302 8.78587 9.11969 9.05018 9.38205C9.31434 9.64427 9.63191 9.77538 10.0029 9.77538ZM9.99997 16.3973C11.5662 15.0339 12.8045 13.6474 13.7148 12.2377C14.625 10.828 15.0802 9.60871 15.0802 8.57996C15.0802 7.05538 14.5975 5.79705 13.6323 4.80496C12.667 3.81302 11.4562 3.31705 9.99997 3.31705C8.54372 3.31705 7.33295 3.81302 6.36768 4.80496C5.4024 5.79705 4.91976 7.05538 4.91976 8.57996C4.91976 9.60871 5.3749 10.828 6.28518 12.2377C7.19545 13.6474 8.43372 15.0339 9.99997 16.3973ZM9.99997 17.5158C8.04163 15.784 6.56649 14.1689 5.57455 12.6704C4.58247 11.172 4.08643 9.80858 4.08643 8.57996C4.08643 6.81705 4.66045 5.36295 5.80851 4.21767C6.95643 3.0724 8.35358 2.49976 9.99997 2.49976C11.6464 2.49976 13.0435 3.0724 14.1914 4.21767C15.3395 5.36295 15.9135 6.81705 15.9135 8.57996C15.9135 9.80858 15.4175 11.172 14.4254 12.6704C13.4334 14.1689 11.9583 15.784 9.99997 17.5158Z" fill="#848383"/>
</g>
</svg>
