<svg width="40" height="40" viewBox="0 0 40 40" fill="none" xmlns="http://www.w3.org/2000/svg">
<mask id="mask0_103_2906" style="mask-type:alpha" maskUnits="userSpaceOnUse" x="0" y="-1" width="40" height="41">
<rect y="-0.000244141" width="40" height="40" fill="#D9D9D9"/>
</mask>
<g mask="url(#mask0_103_2906)">
<path d="M32.6366 33.5831L22.0449 22.9911C21.2172 23.7244 20.2563 24.2863 19.1624 24.6769C18.0688 25.0674 16.9691 25.2627 15.8633 25.2627C13.2033 25.2627 10.952 24.3433 9.10953 22.5044C7.2673 20.6658 6.34619 18.4224 6.34619 15.7744C6.34619 13.1263 7.2655 10.8812 9.10411 9.03897C10.943 7.19675 13.1859 6.27563 15.8329 6.27563C18.4798 6.27563 20.7286 7.1955 22.5791 9.03522C24.4294 10.8749 25.3545 13.1184 25.3545 15.7656C25.3545 16.9145 25.1494 18.0363 24.7391 19.1311C24.3288 20.2258 23.7676 21.1756 23.0554 21.9806L33.6537 32.5448L32.6366 33.5831ZM15.8566 23.8523C18.1247 23.8523 20.0397 23.0733 21.6016 21.5152C23.1636 19.9572 23.9445 18.0417 23.9445 15.769C23.9445 13.4962 23.1636 11.5808 21.6016 10.0227C20.0397 8.46466 18.1247 7.68564 15.8566 7.68564C13.5852 7.68564 11.6673 8.46466 10.1029 10.0227C8.53841 11.5808 7.75619 13.4962 7.75619 15.769C7.75619 18.0417 8.53841 19.9572 10.1029 21.5152C11.6673 23.0733 13.5852 23.8523 15.8566 23.8523Z" fill="white"/>
</g>
</svg>
