<svg width="20" height="20" viewBox="0 0 20 20" fill="none" xmlns="http://www.w3.org/2000/svg">
<mask id="mask0_130_1967" style="mask-type:alpha" maskUnits="userSpaceOnUse" x="0" y="-1" width="20" height="21">
<rect y="-0.000244141" width="20" height="20" fill="#D9D9D9"/>
</mask>
<g mask="url(#mask0_130_1967)">
<path d="M16.1546 17.1153L10.0651 11.0255L7.46568 13.6249C7.58748 13.8332 7.67721 14.0528 7.73484 14.2836C7.79248 14.5143 7.8213 14.7531 7.8213 14.9999C7.8213 15.7579 7.55158 16.4068 7.01214 16.9465C6.47269 17.4864 5.82422 17.7563 5.06672 17.7563C4.30922 17.7563 3.66012 17.4866 3.11943 16.9472C2.57887 16.4076 2.30859 15.759 2.30859 15.0015C2.30859 14.244 2.57846 13.595 3.11818 13.0544C3.65804 12.5138 4.307 12.2434 5.06505 12.2434C5.31186 12.2434 5.55061 12.2723 5.7813 12.3301C6.01214 12.3877 6.23172 12.4774 6.44005 12.5992L9.03943 9.99987L6.44005 7.40049C6.23172 7.5223 6.01214 7.61202 5.7813 7.66966C5.55061 7.72744 5.31186 7.75632 5.06505 7.75632C4.307 7.75632 3.65804 7.4866 3.11818 6.94716C2.57846 6.40757 2.30859 5.75903 2.30859 5.00153C2.30859 4.24403 2.57832 3.59501 3.11776 3.05445C3.6572 2.51376 4.30575 2.24341 5.06339 2.24341C5.82089 2.24341 6.46991 2.51334 7.01047 3.0532C7.55102 3.59292 7.8213 4.24181 7.8213 4.99987C7.8213 5.24667 7.79248 5.48542 7.73484 5.71612C7.67721 5.94695 7.58748 6.16653 7.46568 6.37487L17.6932 16.6024V17.1153H16.1546ZM12.1805 8.91007L11.1546 7.88445L16.1546 2.88445H17.6932V3.39737L12.1805 8.91007ZM5.06505 6.92299C5.5938 6.92299 6.04651 6.73466 6.42318 6.35799C6.79971 5.98146 6.98797 5.52876 6.98797 4.99987C6.98797 4.47098 6.79971 4.01827 6.42318 3.64174C6.04651 3.26507 5.5938 3.07674 5.06505 3.07674C4.53616 3.07674 4.08339 3.26507 3.70672 3.64174C3.33019 4.01827 3.14193 4.47098 3.14193 4.99987C3.14193 5.52876 3.33019 5.98146 3.70672 6.35799C4.08339 6.73466 4.53616 6.92299 5.06505 6.92299ZM5.06505 16.923C5.5938 16.923 6.04651 16.7347 6.42318 16.358C6.79971 15.9815 6.98797 15.5288 6.98797 14.9999C6.98797 14.471 6.79971 14.0183 6.42318 13.6417C6.04651 13.2651 5.5938 13.0767 5.06505 13.0767C4.53616 13.0767 4.08339 13.2651 3.70672 13.6417C3.33019 14.0183 3.14193 14.471 3.14193 14.9999C3.14193 15.5288 3.33019 15.9815 3.70672 16.358C4.08339 16.7347 4.53616 16.923 5.06505 16.923Z" fill="#848383"/>
</g>
</svg>
