<svg width="460" height="117" viewBox="0 0 460 117" fill="none" xmlns="http://www.w3.org/2000/svg">
<g clip-path="url(#clip0_103_2051)">
<path opacity="0.7" d="M444.253 30.7915C445.306 30.5468 446.248 30.5126 447.078 30.6899C447.914 30.8264 448.583 31.1381 449.085 31.6245C449.634 32.067 450.021 32.6443 450.246 33.355C450.477 34.0248 450.536 34.7689 450.42 35.5874C450.293 36.4877 450.1 37.2722 449.843 37.9399C449.632 38.5633 449.325 39.1537 448.92 39.7114C448.556 40.2662 448.116 40.7871 447.599 41.2729C447.082 41.7588 446.497 42.2903 445.845 42.8677C444.635 43.9341 443.62 44.4795 442.802 44.5034C441.984 44.5273 441.403 44.3097 441.061 43.8511C440.759 43.3893 440.673 42.8498 440.801 42.2329C440.935 41.5749 441.346 41.1174 442.034 40.8608C442.94 40.5063 443.762 39.8751 444.502 38.9673C445.289 38.0151 445.825 37.1023 446.111 36.23C446.439 35.3543 446.434 34.6661 446.098 34.1665C445.767 33.6263 444.942 33.5501 443.624 33.937C441.447 34.6344 439.339 35.711 437.3 37.1665C435.307 38.5779 433.515 40.1549 431.924 41.8989C430.374 43.6397 429.104 45.4196 428.113 47.2378C427.123 49.056 426.523 50.702 426.314 52.1753C426.118 53.8498 426.601 55.0462 427.763 55.7642C428.924 56.4821 430.418 56.7289 432.242 56.5044C434.314 56.2604 436.471 55.7057 438.712 54.8413C440.959 53.936 443.146 52.8735 445.274 51.6538C447.444 50.4309 449.499 49.1568 451.438 47.8306C453.384 46.4634 455.112 45.194 456.622 44.0229C458.138 42.8109 459.364 41.7834 460.298 40.9409C461.273 40.0953 461.855 39.5844 462.043 39.4077C462.707 38.7485 463.274 38.3396 463.744 38.1812C464.256 38.0195 464.6 38.0328 464.777 38.2212C464.996 38.4064 465.032 38.7274 464.886 39.1841C464.74 39.6407 464.361 40.1559 463.75 40.73C462.246 42.1434 460.225 43.9016 457.687 46.0034C455.154 48.0643 452.362 50.0847 449.312 52.0649C446.308 54.001 443.174 55.7044 439.91 57.1753C436.693 58.6021 433.624 59.4108 430.704 59.6001C428.526 59.731 426.883 59.5367 425.775 59.0171C424.714 58.4531 423.955 57.7637 423.5 56.9497C423.086 56.1324 422.875 55.319 422.867 54.5103C422.865 53.6609 422.875 53.0128 422.897 52.5659C422.931 51.7539 423.179 50.7217 423.641 49.4712C423.732 49.2244 423.832 48.9745 423.938 48.7202C423.737 48.8954 423.535 49.0749 423.327 49.2544C421.429 50.8606 419.378 52.5398 417.175 54.2915C415.013 56.0399 412.868 57.6656 410.74 59.1685C408.613 60.6714 406.64 61.9398 404.823 62.9731C403.001 64.0473 401.504 64.6911 400.333 64.9048C399.074 65.1658 398.122 64.9777 397.479 64.3403C396.835 63.703 396.556 62.6524 396.641 61.189C396.673 60.0937 396.956 58.8163 397.488 57.3579C398.062 55.8964 398.721 54.4075 399.465 52.8921C400.006 51.8248 400.575 50.7752 401.169 49.7417C400.607 50.2269 400.012 50.7351 399.379 51.2603C397.487 52.8255 395.404 54.4463 393.13 56.1226C390.855 57.799 388.606 59.291 386.384 60.5991C384.167 61.8662 382.097 62.8185 380.174 63.4556C378.291 64.0894 376.775 64.1479 375.626 63.6313C374.777 63.2934 374.22 62.6289 373.952 61.6382C372.304 64.0747 370.643 66.5936 368.972 69.1938C367.294 71.8349 365.611 74.5168 363.922 77.2397C365.235 77.1769 366.512 77.2178 367.755 77.3628C368.992 77.5487 370.108 77.8662 371.104 78.314C372.136 78.7994 373.044 79.4361 373.829 80.2241C374.608 81.0531 375.197 82.079 375.595 83.3022C376.004 84.4435 376.062 85.471 375.77 86.3843C375.519 87.2944 375.117 87.9742 374.564 88.4224C374.053 88.8672 373.5 89.0315 372.905 88.9165C372.305 88.8423 371.859 88.3918 371.568 87.5649C371.177 86.3009 370.747 85.1613 370.279 84.146C369.806 83.1716 369.21 82.348 368.49 81.6763C367.812 81.0012 366.965 80.5012 365.951 80.1763C364.979 79.8482 363.798 79.6987 362.409 79.7271C360.568 82.6643 358.728 85.5807 356.893 88.4771C355.057 91.3735 353.2 94.1301 351.322 96.7466C349.439 99.4039 347.564 101.859 345.697 104.11C343.783 106.405 341.848 108.42 339.892 110.152C337.935 111.884 335.966 113.274 333.984 114.32C331.956 115.41 329.909 116.057 327.843 116.26C326.107 116.437 324.776 116.34 323.851 115.967C322.884 115.598 322.184 115.066 321.753 114.372C321.275 113.721 321.014 112.973 320.971 112.126C320.886 111.283 320.875 110.495 320.938 109.761C321.105 108.008 321.683 106.08 322.673 103.979C323.657 101.919 325.018 99.788 326.755 97.5874C328.445 95.4308 330.46 93.2892 332.798 91.1626C335.136 89.036 337.737 87.0708 340.6 85.2671C343.421 83.4667 346.497 81.8894 349.826 80.5347C353.108 79.2242 356.544 78.266 360.134 77.6597C360.222 77.6123 360.39 77.5785 360.638 77.5591C362.379 74.7511 364.024 72.0519 365.572 69.4614C367.114 66.912 368.521 64.5953 369.794 62.5122C367.731 63.848 365.841 64.826 364.123 65.4468C362.411 66.0267 360.902 66.3281 359.595 66.3501C358.288 66.372 357.272 66.2093 356.547 65.8618C355.822 65.5142 355.27 65.0916 354.892 64.5952C354.561 64.0548 354.356 63.4841 354.278 62.8833C354.247 62.2383 354.267 61.6703 354.336 61.1792C354.52 59.3032 355.036 57.3804 355.885 55.4116C355.999 55.1594 356.117 54.9079 356.238 54.6577C354.526 56.1495 352.652 57.6727 350.614 59.2251C348.463 60.8918 346.318 62.3757 344.178 63.6772C342.085 64.9347 340.118 65.8787 338.276 66.5093C336.435 67.1398 334.939 67.1968 333.79 66.6802C333.018 66.3766 332.455 65.7532 332.1 64.8101C331.75 63.8259 331.743 62.5721 332.081 61.0483C329.883 62.7591 327.737 64.1015 325.644 65.0757C323.55 66.0497 321.432 66.6209 319.289 66.7896C317.971 66.8933 316.941 66.8327 316.198 66.6079C315.456 66.383 314.89 66.0634 314.5 65.6489C314.157 65.1902 313.944 64.6806 313.86 64.1206C313.818 63.5576 313.811 63.0322 313.839 62.5444C313.924 61.803 314.093 61.0414 314.342 60.2593C314.029 60.5629 313.713 60.873 313.388 61.1841C311.414 63.0391 309.396 64.7768 307.333 66.396C305.318 67.971 303.337 69.3004 301.391 70.3843C299.486 71.4649 297.815 72.0411 296.379 72.1138C295.108 72.1734 294.161 71.9449 293.542 71.4272C292.958 70.9471 292.603 70.2867 292.478 69.4468C292.399 68.5627 292.479 67.565 292.718 66.4536C292.998 65.3389 293.362 64.1965 293.812 63.0278C294.263 61.8592 294.732 60.7095 295.218 59.5786C295.745 58.4445 296.193 57.4379 296.562 56.5591C296.93 55.6804 297.17 54.9938 297.28 54.4995C297.438 53.961 297.372 53.7024 297.084 53.7251C296.713 53.7545 296.046 54.1512 295.083 54.9146C294.161 55.6751 293.091 56.6098 291.875 57.7173C290.659 58.8247 289.348 60.0201 287.944 61.3042C286.546 62.5473 285.157 63.7297 283.776 64.8501C282.401 65.9296 281.09 66.8418 279.844 67.5874C278.644 68.2889 277.617 68.6334 276.764 68.6196C275.91 68.6058 275.503 68.1717 275.542 67.3188C275.628 66.4218 275.926 65.3261 276.435 64.0317C276.985 62.7338 277.65 61.3455 278.43 59.8677C279.25 58.3869 279.974 57.0147 280.601 55.7515C281.227 54.4881 281.661 53.442 281.9 52.6138C282.181 51.7823 282.074 51.3854 281.579 51.4243C280.631 51.4991 279.358 52.1464 277.76 53.3647C276.161 54.5831 274.402 56.0774 272.481 57.8472C270.607 59.573 268.63 61.4488 266.551 63.4741C264.472 65.4992 262.495 67.3744 260.621 69.1001C258.753 70.785 257.031 72.1556 255.456 73.2104C253.922 74.2619 252.737 74.7189 251.9 74.5825C250.864 74.4213 250.212 73.9871 249.945 73.2798C249.637 72.5755 249.635 71.7252 249.938 70.73C250.207 69.6972 250.693 68.5663 251.396 67.3374C252.065 66.0708 252.856 64.7944 253.771 63.5083C254.651 62.1845 255.588 60.8967 256.58 59.645C257.578 58.3524 258.497 57.1872 259.336 56.1499C259.835 55.5037 260.457 54.7062 261.202 53.7573C261.995 52.7641 262.805 51.789 263.633 50.8335C264.466 49.8374 265.282 48.9641 266.081 48.2134C266.921 47.4593 267.659 46.9961 268.295 46.8247C269.183 46.593 269.731 46.6105 269.938 46.8774C270.185 47.1412 270.183 47.5866 269.932 48.2134C269.68 48.8402 269.226 49.6047 268.568 50.5063C267.952 51.4047 267.207 52.3534 266.332 53.353C265.498 54.3495 264.576 55.3936 263.566 56.4849C262.604 57.5318 261.65 58.5177 260.704 59.4419C260.657 59.4861 260.428 59.8079 260.018 60.4067C259.654 60.9615 259.187 61.6658 258.618 62.52C258.096 63.33 257.521 64.2254 256.894 65.2056C256.272 66.1448 255.72 67.018 255.239 67.8247C254.759 68.6313 254.398 69.3071 254.158 69.8521C253.965 70.3529 253.972 70.5948 254.178 70.5786C254.678 70.4987 255.672 69.8135 257.158 68.5229C258.645 67.2324 260.398 65.6379 262.419 63.7388C264.481 61.8363 266.683 59.8008 269.027 57.6333C271.418 55.4216 273.721 53.3986 275.937 51.5649C278.157 49.6905 280.206 48.1735 282.081 47.0142C283.962 45.8141 285.426 45.2543 286.475 45.3335C287.199 45.3979 287.489 45.9413 287.345 46.9644C287.241 47.9843 286.879 49.2477 286.259 50.7534C285.638 52.259 284.88 53.8764 283.983 55.606C283.128 57.3326 282.313 58.9152 281.539 60.3521C280.807 61.7853 280.23 62.9839 279.809 63.9478C279.393 64.8708 279.335 65.2808 279.635 65.1763C279.929 65.1126 280.549 64.6181 281.494 63.6938C282.481 62.7663 283.657 61.6622 285.02 60.3813C286.388 59.0597 287.886 57.6871 289.513 56.2642C291.146 54.8001 292.757 53.4994 294.344 52.3628C295.972 51.223 297.501 50.3535 298.93 49.7554C300.4 49.1542 301.636 49.0576 302.638 49.4644C303.027 49.5956 303.043 50.2014 302.687 51.2817C302.336 52.321 301.809 53.5968 301.106 55.1089C300.409 56.5802 299.633 58.1792 298.777 59.9058C297.969 61.588 297.302 63.1379 296.775 64.5552C296.249 65.9724 295.981 67.1471 295.972 68.0786C295.962 69.0102 296.431 69.4393 297.379 69.3647C298.444 69.3213 299.782 68.7908 301.393 67.7739C303.045 66.7536 304.77 65.5049 306.568 64.0278C308.372 62.5099 310.191 60.8891 312.023 59.1665C313.856 57.4441 315.509 55.8371 316.983 54.3452C317.751 53.5879 318.452 52.8868 319.089 52.2437C320.436 50.5846 321.941 49.0064 323.605 47.5103C325.38 45.9137 327.189 44.4962 329.035 43.2583C330.887 41.9794 332.706 40.9249 334.494 40.0962C336.329 39.2233 337.994 38.6883 339.489 38.4897C341.196 38.2341 342.491 38.2939 343.375 38.6694C344.3 39.0418 344.938 39.5779 345.287 40.2788C345.642 40.9389 345.803 41.6758 345.77 42.4878C345.742 43.2587 345.664 43.9528 345.536 44.5698C345.338 45.3948 344.944 46.0128 344.356 46.4233C343.81 46.8304 343.227 47.0583 342.609 47.1069C342.033 47.1523 341.517 47.0507 341.063 46.8032C340.615 46.5147 340.432 46.0841 340.513 45.5112C340.559 45.1838 340.62 44.7541 340.695 44.2222C340.818 43.6461 340.851 43.1175 340.797 42.6362C340.743 42.155 340.528 41.8074 340.15 41.5942C339.773 41.3811 339.113 41.4326 338.172 41.7495C335.554 42.684 333.102 43.8888 330.815 45.3638C328.57 46.8356 326.554 48.4109 324.769 50.0894C323.024 51.7644 321.545 53.439 320.33 55.1128C319.157 56.7835 318.309 58.3076 317.788 59.6841C317.315 61.0161 317.2 62.1177 317.443 62.9888C317.734 63.8158 318.471 64.2236 319.654 64.2114C320.755 64.2057 321.976 63.9271 323.317 63.3765C324.7 62.8225 326.061 62.1283 327.401 61.2944C328.783 60.4573 330.07 59.5672 331.263 58.6235C332.456 57.6798 333.431 56.834 334.188 56.0864C334.681 55.1978 335.305 54.2374 336.062 53.2065C336.391 52.6142 336.769 51.9574 337.197 51.2358C337.667 50.5109 338.163 49.8847 338.686 49.3579C339.255 48.7871 339.864 48.3748 340.511 48.1216C341.163 47.8276 341.855 47.8345 342.586 48.1411C342.969 48.3133 343.202 48.5373 343.285 48.814C343.409 49.0874 343.43 49.369 343.349 49.6587C343.456 50.055 343.327 50.3891 342.963 50.6606L342.267 51.2622C340.811 52.9146 339.375 54.4236 337.959 55.7896C336.961 57.0822 336.269 58.2293 335.883 59.231C335.497 60.2324 335.296 61.0779 335.28 61.7671C335.305 62.4531 335.431 63.0105 335.655 63.438C335.927 63.8211 336.225 64.0197 336.549 64.0347C337.591 64.1548 338.877 63.8517 340.405 63.1245C341.981 62.3529 343.649 61.3717 345.406 60.1812C347.169 58.9497 348.95 57.5956 350.748 56.1187C352.546 54.6416 354.191 53.2373 355.684 51.9058C357.176 50.5743 358.439 49.4224 359.473 48.4507C360.547 47.476 361.22 46.8967 361.49 46.7134C361.636 46.6079 361.779 46.5159 361.915 46.4331C362.537 45.7428 363.184 45.0656 363.859 44.4028C365.604 42.7277 367.382 41.2527 369.192 39.9771C371.008 38.6606 372.79 37.5896 374.536 36.7642C376.33 35.8945 377.995 35.3586 379.531 35.1567C381.197 34.9043 382.471 34.9657 383.355 35.3413C384.281 35.7137 384.921 36.2301 385.275 36.8901C385.671 37.5469 385.853 38.2813 385.819 39.0933C385.792 39.8643 385.714 40.5582 385.586 41.1753C385.388 42.0003 385.074 42.6324 384.646 43.0708C384.217 43.5091 383.794 43.765 383.376 43.8384C382.999 43.9085 382.666 43.8137 382.377 43.5532C382.088 43.2927 381.984 42.8752 382.065 42.3022C382.112 41.9749 382.096 41.5104 382.018 40.9097C381.981 40.3056 381.838 39.73 381.59 39.1831C381.382 38.633 381.054 38.2138 380.606 37.9253C380.158 37.6368 379.59 37.6209 378.901 37.8774C376.143 38.9444 373.541 40.3425 371.096 42.0728C368.692 43.7998 366.539 45.6287 364.636 47.5591C362.774 49.4863 361.195 51.4323 359.898 53.396C358.643 55.3563 357.761 57.1258 357.253 58.7036C356.792 60.237 356.757 61.4942 357.147 62.4751C357.544 63.4151 358.481 63.8477 359.959 63.772C361.313 63.7059 362.684 63.3747 364.072 62.7798C365.501 62.1817 366.821 61.4917 368.032 60.7085C369.243 59.9252 370.269 59.156 371.109 58.4019C371.955 57.6069 372.492 56.9773 372.721 56.5142C372.949 56.051 373.304 55.4164 373.785 54.6099C374.313 53.7589 374.912 52.9829 375.581 52.2827C376.256 51.5417 376.988 50.978 377.775 50.5923C378.605 50.2033 379.465 50.1766 380.354 50.5112C380.773 50.7211 381.017 51.0053 381.089 51.3638C381.166 51.6814 381.141 52.0074 381.013 52.3413C380.943 52.5491 380.813 52.7409 380.625 52.9175L379.542 54.0962L377.306 56.9429C376.826 58.3161 376.714 59.3977 376.969 60.187C377.224 60.9761 377.572 61.3936 378.014 61.4399C379.015 61.5635 380.345 61.2365 382.004 60.4585C383.662 59.6805 385.414 58.672 387.26 57.4341C389.147 56.1929 391.054 54.8084 392.981 53.2808C394.95 51.75 396.745 50.2937 398.366 48.9116C400.029 47.5262 401.419 46.3439 402.535 45.3657C403.651 44.3875 404.348 43.7861 404.624 43.562C404.851 43.3979 405.067 43.2646 405.271 43.1587C405.82 42.3179 406.301 41.5883 406.713 40.9702C407.323 40.1131 407.707 39.5567 407.865 39.3013C408.129 38.8758 408.543 38.2561 409.106 37.4429C409.67 36.6297 410.289 35.8519 410.964 35.1108C411.645 34.3288 412.371 33.6649 413.141 33.1187C413.958 32.5283 414.752 32.2429 415.523 32.2632C416.253 32.2867 416.754 32.4905 417.025 32.8735C417.303 33.2158 417.426 33.6516 417.392 34.1802C417.363 34.668 417.228 35.185 416.988 35.73C416.795 36.2307 416.576 36.6324 416.329 36.9351C416.077 37.2787 415.533 37.8069 414.699 38.52C414.104 39.0525 413.473 39.5997 412.806 40.1606L411.446 41.2915C410.779 41.8525 410.148 42.3996 409.553 42.9321C408.807 43.5979 408.33 44.0809 408.125 44.3804C404.956 48.636 402.733 51.9672 401.455 54.3745C400.219 56.7784 399.54 58.5521 399.419 59.6948C399.298 60.8373 399.506 61.5298 400.042 61.771C400.584 61.9712 401.068 62.0142 401.491 61.8999C402.168 61.7252 403.15 61.263 404.438 60.5142C405.731 59.7244 407.191 58.7594 408.819 57.6196C410.494 56.4356 412.27 55.1228 414.145 53.6802C416.06 52.2343 417.961 50.7486 419.848 49.2241C421.74 47.6588 423.546 46.1203 425.268 44.6089C426.077 43.9134 426.843 43.2364 427.569 42.5815C427.963 42.0553 428.378 41.5253 428.813 40.9907C430.093 39.4331 431.52 37.985 433.095 36.647C434.669 35.3089 436.386 34.122 438.244 33.0854C440.143 32.0457 442.146 31.2811 444.253 30.7915ZM358.983 80.1782C355.841 80.7898 352.814 81.7367 349.902 83.0181C346.991 84.2994 344.254 85.7897 341.691 87.4888C339.129 89.1879 336.796 90.9903 334.692 92.896C332.548 94.8049 330.71 96.7097 329.178 98.6108C327.604 100.515 326.372 102.313 325.481 104.001C324.549 105.694 324.017 107.152 323.885 108.376C323.649 110.621 324.012 112.089 324.973 112.783C325.893 113.479 327.183 113.722 328.843 113.51C330.92 113.225 333.205 112.054 335.696 109.997C338.146 107.942 340.693 105.354 343.335 102.232C345.977 99.1102 348.629 95.6229 351.293 91.771C353.957 87.9191 356.52 84.0548 358.983 80.1782ZM25.8604 63.1733C27.5669 62.9177 28.8621 62.9775 29.7461 63.353C30.6713 63.7253 31.3091 64.2615 31.6582 64.9624C32.0131 65.6225 32.174 66.3594 32.1406 67.1714C32.113 67.9423 32.0352 68.6364 31.9072 69.2534C31.7091 70.0784 31.3153 70.6964 30.7275 71.1069C30.1811 71.514 29.5984 71.7419 28.9805 71.7905C28.4038 71.8358 27.8884 71.7343 27.4346 71.4868C26.9866 71.1983 26.8028 70.7677 26.8838 70.1948C26.9301 69.8674 26.9912 69.4377 27.0664 68.9058C27.1886 68.3297 27.2221 67.8011 27.168 67.3198C27.1138 66.8386 26.8986 66.491 26.5215 66.2778C26.1442 66.0647 25.4842 66.1162 24.543 66.4331C21.9253 67.3676 19.4732 68.5724 17.1865 70.0474C14.941 71.5191 12.9254 73.0945 11.1396 74.7729C9.3952 76.448 7.91581 78.1226 6.70117 79.7964C5.5277 81.4671 4.67984 82.9912 4.15918 84.3677C3.68567 85.6997 3.57106 86.8013 3.81445 87.6724C4.10496 88.4994 4.842 88.9072 6.02539 88.895C7.12631 88.8893 8.34752 88.6107 9.68848 88.0601C11.0706 87.5061 12.4322 86.8119 13.7725 85.978C15.1538 85.1409 16.441 84.2508 17.6338 83.3071C18.8266 82.3634 19.8019 81.5176 20.5596 80.77C21.052 79.8814 21.6766 78.921 22.4336 77.8901C22.7618 77.2978 23.1404 76.641 23.5684 75.9194C24.0376 75.1945 24.5339 74.5683 25.0566 74.0415C25.6263 73.4707 26.2349 73.0584 26.8818 72.8052C27.5345 72.5112 28.2264 72.5181 28.957 72.8247C29.3399 72.9969 29.5731 73.2209 29.6562 73.4976C29.7805 73.771 29.8014 74.0526 29.7197 74.3423C29.8267 74.7386 29.6983 75.0727 29.334 75.3442L28.6377 75.9458C27.1816 77.5982 25.7456 79.1072 24.3301 80.4731C23.3323 81.7658 22.6401 82.9129 22.2539 83.9146C21.8678 84.916 21.6674 85.7615 21.6514 86.4507C21.6766 87.1367 21.8016 87.6941 22.0264 88.1216C22.2981 88.5047 22.5962 88.7033 22.9199 88.7183C23.9622 88.8384 25.2476 88.5353 26.7764 87.8081C28.3524 87.0365 30.0198 86.0553 31.7773 84.8647C33.5405 83.6333 35.3212 82.2792 37.1191 80.8022C38.9172 79.3252 40.5625 77.9209 42.0547 76.5894C43.5469 75.2578 44.8099 74.106 45.8438 73.1343C46.9185 72.1596 47.5908 71.5803 47.8613 71.397C48.678 70.8067 49.343 70.5726 49.8555 70.6938C50.368 70.8154 50.3548 71.3431 49.8154 72.2759C49.5513 72.7015 48.8023 73.5295 47.5693 74.7593C46.336 75.9895 44.8114 77.4047 42.9961 79.0044C41.1808 80.6041 39.1772 82.2389 36.9854 83.9087C34.8345 85.5754 32.6888 87.0592 30.5488 88.3608C28.4559 89.6183 26.4888 90.5623 24.6475 91.1929C22.8062 91.8234 21.3105 91.8804 20.1611 91.3638C19.3894 91.0602 18.8262 90.4368 18.4707 89.4937C18.121 88.5095 18.1145 87.2557 18.4521 85.7319C16.2544 87.4427 14.1082 88.7851 12.0146 89.7593C9.92113 90.7333 7.80272 91.3045 5.66016 91.4731C4.34187 91.5769 3.31165 91.5163 2.56934 91.2915C1.82694 91.0666 1.26069 90.747 0.871094 90.3325C0.528496 89.8738 0.315234 89.3642 0.231445 88.8042C0.18889 88.2411 0.181723 87.7158 0.209961 87.228C0.388707 85.6761 0.926631 84.035 1.82324 82.3052C2.76683 80.5312 3.92815 78.8006 5.30762 77.1138C6.69287 75.386 8.24941 73.7462 9.97656 72.1938C11.7507 70.5973 13.5606 69.1798 15.4062 67.9419C17.2578 66.663 19.0774 65.6085 20.8652 64.7798C22.7 63.9069 24.3654 63.3719 25.8604 63.1733ZM220.735 0.120605C221.188 0.0850689 221.515 0.221945 221.716 0.529785C221.958 0.834491 222.124 1.24608 222.214 1.76514C222.303 2.2842 222.299 2.89166 222.2 3.5874C222.149 4.23896 222.057 4.8942 221.923 5.55225C221.696 6.58192 221.005 8.29551 219.851 10.6929C219.085 12.2828 218.151 14.0453 217.05 15.9819C217.577 15.9701 218.106 15.9573 218.638 15.9487C220.516 15.9223 222.006 16.1898 223.108 16.7505C224.252 17.308 224.839 17.9091 224.87 18.5542C224.942 19.196 224.388 19.8066 223.206 20.3853C222.03 20.923 220.079 21.1772 217.353 21.1489C216.74 21.1566 216.101 21.0649 215.436 20.8745C215.078 20.7635 214.719 20.6525 214.361 20.5415C212.688 23.303 210.786 26.2434 208.653 29.3608C206.142 32.9983 203.393 36.5943 200.405 40.1479C197.458 43.6984 194.336 47.0396 191.041 50.1724C187.746 53.3051 184.399 55.9369 181.001 58.0659C179.876 60.2587 178.869 62.341 177.979 64.313C177.13 66.2819 176.445 68.0966 175.925 69.7563C175.411 71.375 175.085 72.8171 174.946 74.0825C174.808 75.3479 174.929 76.3703 175.308 77.1499C175.929 78.5174 177.028 79.099 178.605 78.894C180.224 78.6857 182.072 78.014 184.147 76.8794C186.229 75.7039 188.415 74.2165 190.707 72.4175C193.04 70.6151 195.232 68.8035 197.282 66.9829C199.338 65.1215 201.126 63.4223 202.647 61.8862C204.216 60.3059 205.276 59.1499 205.828 58.4185C205.924 58.278 206.029 58.1726 206.143 58.1021C206.317 57.9024 206.495 57.7027 206.677 57.5024C207.986 56.0235 209.419 54.6766 210.977 53.4614C212.581 52.202 214.304 51.1145 216.145 50.2007C218.026 49.2838 219.991 48.6433 222.039 48.2798C224.164 47.9507 225.707 48.275 226.669 49.2515C227.631 50.2279 227.894 51.5427 227.456 53.1958C227.024 54.8081 226.221 56.3083 225.047 57.6958C223.92 59.0389 222.61 60.2345 221.117 61.2827C219.671 62.2869 218.148 63.1151 216.548 63.7671C214.989 64.4159 213.565 64.8318 212.276 65.0142C210.358 65.327 208.809 65.3271 207.631 65.0151C206.453 64.7032 205.681 64.2583 205.314 63.6802C204.435 65.2873 203.894 66.8073 203.691 68.2397C203.57 69.0991 203.63 69.8228 203.873 70.4106C204.157 70.9953 204.579 71.468 205.14 71.8286C205.7 72.1892 206.357 72.4415 207.111 72.5845C207.906 72.7242 208.76 72.7377 209.672 72.6255C211.744 72.3815 213.857 71.8507 216.01 71.0337C218.21 70.1726 220.344 69.1947 222.414 68.1011C224.49 66.9665 226.45 65.7804 228.296 64.5425C230.183 63.3013 231.835 62.1399 233.251 61.0571C234.708 59.9712 235.877 59.0489 236.759 58.2915C237.687 57.4901 238.246 57.0015 238.434 56.8247C239.138 56.1624 239.726 55.7518 240.196 55.5933C240.708 55.4316 241.053 55.4449 241.23 55.6333C241.448 55.8185 241.485 56.1391 241.339 56.5952C241.193 57.0519 240.814 57.5679 240.203 58.1421C238.699 59.5555 236.71 61.2296 234.236 63.1646C231.804 65.0962 229.135 66.9651 226.23 68.772C223.326 70.5789 220.292 72.1539 217.128 73.4956C214.011 74.7931 210.992 75.5368 208.072 75.7261C205.894 75.857 204.251 75.6619 203.143 75.1421C202.041 74.5814 201.262 73.8943 200.807 73.0806C200.393 72.2633 200.185 71.4293 200.183 70.5796C200.222 69.7267 200.252 69.0763 200.274 68.6294C200.318 68.1411 200.446 67.5655 200.66 66.9028C199.74 67.7545 198.757 68.6404 197.712 69.5591C195.432 71.5596 192.974 73.5341 190.335 75.4819C187.702 77.3888 185.185 78.9023 182.786 80.022C180.381 81.1825 178.227 81.7166 176.325 81.6235C174.459 81.5681 173.096 80.5418 172.237 78.5454C171.687 77.2533 171.612 75.4785 172.013 73.2212C172.35 71.4973 172.89 69.5926 173.634 67.5073C173.273 67.8664 172.895 68.2414 172.498 68.6304C170.795 70.3023 168.847 72.1147 166.655 74.0679C164.464 76.0209 162.208 77.8581 159.887 79.5786C157.571 81.2582 155.29 82.6919 153.044 83.8804C150.792 85.1098 148.78 85.7946 147.008 85.9341C145.566 86.0476 144.593 85.5779 144.09 84.5249C143.587 83.4719 143.451 81.985 143.682 80.0649C143.959 78.1005 144.572 75.7853 145.52 73.1206C145.878 72.1032 146.268 71.054 146.693 69.9741C146.449 70.2158 146.199 70.4658 145.939 70.7202C144.236 72.3922 142.288 74.2045 140.097 76.1577C137.905 78.1108 135.649 79.948 133.328 81.6685C131.013 83.348 128.731 84.7817 126.485 85.9702C124.233 87.1997 122.221 87.8845 120.449 88.0239C119.007 88.1374 118.034 87.6678 117.531 86.6147C117.028 85.5617 116.892 84.0749 117.123 82.1548C117.401 80.1903 118.014 77.8751 118.961 75.2104C119.488 73.7156 120.087 72.1536 120.757 70.5239C119.803 71.3864 118.752 72.3184 117.601 73.3149C115.703 74.9212 113.652 76.6003 111.448 78.3521C109.286 80.1004 107.141 81.7261 105.014 83.229C102.886 84.732 100.913 86.0004 99.0967 87.0337C97.2743 88.1078 95.7775 88.7517 94.6064 88.9653C93.3471 89.2263 92.3953 89.0382 91.752 88.4009C91.1087 87.7636 90.8294 86.7129 90.9141 85.2495C90.9467 84.1542 91.2295 82.8768 91.7617 81.4185C92.3351 79.9569 92.9943 78.468 93.7383 76.9526C94.0556 76.3269 94.3843 75.7083 94.7197 75.0942C93.7495 75.995 92.7096 76.9342 91.5986 77.9106C89.3192 79.9111 86.8604 81.8857 84.2217 83.8335C81.5887 85.7404 79.0722 87.2539 76.6729 88.3735C74.2677 89.5341 72.1138 90.0682 70.2119 89.9751C68.3454 89.9196 66.9826 88.8933 66.124 86.897C65.5733 85.6048 65.4987 83.8301 65.8994 81.5728C66.3414 79.3121 67.1323 76.7402 68.2734 73.8579C69.4203 70.9348 70.8641 67.7861 72.6045 64.4116C74.3507 60.9961 76.271 57.5061 78.3643 53.9419C80.5045 50.3335 82.7475 46.7169 85.0938 43.0923C87.4812 39.4645 89.8687 35.9779 92.2568 32.6333C94.6862 29.2855 97.0429 26.1661 99.3262 23.2749C101.656 20.3395 103.808 17.8019 105.781 15.6636C107.76 13.4844 109.51 11.768 111.032 10.5151C112.56 9.22142 113.757 8.54027 114.622 8.47217C115.075 8.43663 115.402 8.57351 115.603 8.88135C115.845 9.18605 116.011 9.59764 116.101 10.1167C116.19 10.6358 116.185 11.2432 116.087 11.939C116.036 12.5905 115.943 13.2458 115.81 13.9038C115.582 14.9335 114.891 16.6471 113.737 19.0444C112.583 21.442 111.047 24.2343 109.13 27.4204C107.254 30.6032 105.057 34.034 102.54 37.7124C100.029 41.3499 97.2801 44.9459 94.292 48.4995C91.345 52.05 88.2231 55.3912 84.9277 58.5239C81.6324 61.6567 78.2856 64.2884 74.8877 66.4175C73.7627 68.6102 72.7553 70.6926 71.8652 72.6646C71.0163 74.6335 70.3315 76.4482 69.8115 78.1079C69.2974 79.7266 68.9712 81.1687 68.833 82.4341C68.6948 83.6994 68.8157 84.7219 69.1943 85.5015C69.8158 86.869 70.9149 87.4506 72.4922 87.2456C74.1108 87.0373 75.9586 86.3656 78.0342 85.231C80.1154 84.0554 82.3021 82.5681 84.5938 80.769C86.9267 78.9666 89.1186 77.1551 91.1689 75.3345C93.2249 73.473 95.0131 71.7739 96.5342 70.2378C98.1024 68.6574 99.1632 67.5014 99.7148 66.77C99.8184 66.619 99.9315 66.5082 100.055 66.438C100.397 65.9177 100.708 65.449 100.986 65.0308C101.596 64.1737 101.98 63.6172 102.139 63.3618C102.403 62.9363 102.817 62.3167 103.38 61.5034C103.943 60.6902 104.562 59.9125 105.237 59.1714C105.918 58.3894 106.644 57.7254 107.414 57.1792C108.231 56.5888 109.026 56.3035 109.797 56.3237C110.527 56.3473 111.027 56.5511 111.299 56.9341C111.576 57.2764 111.699 57.7121 111.665 58.2407C111.637 58.7286 111.502 59.2455 111.262 59.7905C111.069 60.2913 110.849 60.693 110.603 60.9956C110.35 61.3392 109.807 61.8675 108.973 62.5806C108.378 63.113 107.747 63.6602 107.079 64.2212L105.72 65.3521C105.052 65.9131 104.421 66.4602 103.826 66.9927C103.08 67.6585 102.604 68.1415 102.398 68.4409C99.2297 72.6965 97.0062 76.0278 95.7285 78.4351C94.4922 80.839 93.8133 82.6127 93.6924 83.7554C93.5715 84.8979 93.7793 85.5903 94.3154 85.8315C94.8576 86.0317 95.341 86.0747 95.7646 85.9604C96.4413 85.7858 97.4234 85.3236 98.7109 84.5747C100.004 83.785 101.465 82.82 103.093 81.6802C104.768 80.4961 106.543 79.1833 108.418 77.7407C110.334 76.2949 112.235 74.8091 114.121 73.2847C116.013 71.7193 117.82 70.1809 119.541 68.6694C120.734 67.644 121.836 66.6612 122.849 65.7241C124.194 62.7901 125.714 59.7204 127.411 56.5161C129.246 53.0532 131.204 49.5805 133.285 46.0981C135.367 42.6157 137.5 39.2098 139.682 35.8813C141.911 32.5089 144.131 29.339 146.344 26.3726C143.172 27.1887 140.283 28.0238 137.677 28.8765C135.118 29.6849 132.894 30.4264 131.006 31.1011C129.118 31.7758 127.612 32.3398 126.488 32.7925C125.406 33.2419 124.759 33.4951 124.547 33.5522C123.706 33.7398 123.102 33.6859 122.736 33.3911C122.412 33.0929 122.284 32.6977 122.354 32.2065C122.423 31.7156 122.634 31.234 122.986 30.7612C123.385 30.2442 123.909 29.8583 124.556 29.605C124.768 29.5476 125.474 29.3099 126.673 28.8921C127.879 28.433 129.526 27.879 131.614 27.229C133.744 26.5758 136.268 25.8705 139.187 25.1147C142.105 24.359 145.392 23.595 149.046 22.8218C149.985 21.6552 150.874 20.5525 151.714 19.5151C152.6 18.4336 153.476 17.4339 154.339 16.5161C154.867 15.9486 155.423 15.622 156.006 15.5356C156.635 15.4052 157.16 15.4449 157.578 15.6548C157.996 15.8646 158.253 16.2083 158.349 16.686C158.491 17.12 158.345 17.5768 157.91 18.0562L154.828 21.6987C160.101 20.7172 165.84 19.9016 172.044 19.2515C173.732 19.064 175.451 18.8976 177.201 18.7524C177.567 18.2992 177.924 17.8563 178.272 17.4253C179.159 16.3438 180.034 15.3441 180.897 14.4263C181.426 13.8587 181.982 13.5321 182.564 13.4458C183.194 13.3154 183.718 13.3551 184.137 13.5649C184.555 13.7748 184.812 14.1185 184.907 14.5962C185.05 15.0301 184.903 15.487 184.469 15.9663L182.417 18.3901C185.239 18.2283 188.137 18.1182 191.111 18.0591C193.528 17.7318 196.025 17.4317 198.603 17.1616C200.4 16.962 202.233 16.7859 204.101 16.6343C204.55 16.0554 204.996 15.485 205.439 14.9233C207.77 11.988 209.921 9.45035 211.895 7.31201C213.873 5.13289 215.624 3.41647 217.146 2.16357C218.673 0.869856 219.87 0.188704 220.735 0.120605ZM168.558 22.3237C168.077 22.377 167.6 22.4327 167.124 22.4917C161.774 23.1556 156.785 23.9928 152.16 25.0044C148.838 29.1914 145.604 33.6143 142.46 38.2729C139.357 42.9285 136.486 47.526 133.848 52.064C131.215 56.5608 128.897 60.8509 126.894 64.9341C124.896 68.9764 123.358 72.4971 122.282 75.4956C121.247 78.4908 120.732 80.8382 120.736 82.5376C120.787 84.1929 121.528 84.8632 122.958 84.5483C124.341 84.2776 125.923 83.6066 127.704 82.5356C129.485 81.4646 131.334 80.2061 133.25 78.7603C135.172 77.2735 137.063 75.7079 138.926 74.064C140.829 72.4167 142.533 70.8866 144.037 69.4731C145.588 68.0156 146.883 66.7807 147.923 65.7681C148.276 65.424 148.584 65.1272 148.845 64.8745C148.924 64.6977 149.003 64.5196 149.084 64.3413C150.507 61.1942 152.135 57.8891 153.97 54.4263C155.804 50.9634 157.762 47.4906 159.844 44.0083C161.925 40.5259 164.058 37.1199 166.24 33.7915C168.469 30.4191 170.69 27.2492 172.902 24.2827C169.731 25.0989 166.842 25.934 164.235 26.7866C161.676 27.595 159.453 28.3365 157.564 29.0112C155.676 29.686 154.17 30.25 153.047 30.7026C151.965 31.152 151.317 31.4053 151.105 31.4624C150.264 31.6499 149.661 31.5961 149.295 31.3013C148.97 31.003 148.843 30.6078 148.912 30.1167C148.982 29.6257 149.193 29.1442 149.545 28.6714C149.944 28.1543 150.467 27.7684 151.114 27.5151C151.327 27.4577 152.032 27.2201 153.231 26.8022C154.437 26.3431 156.085 25.7891 158.173 25.1392C160.303 24.4859 162.827 23.7807 165.745 23.0249C166.647 22.7913 167.585 22.559 168.558 22.3237ZM201.77 19.6851C200.514 19.7539 199.274 19.8411 198.048 19.9458C198.212 20.1727 198.3 20.4051 198.312 20.644C198.384 21.2859 197.829 21.8965 196.647 22.4751C195.471 23.0128 193.52 23.267 190.794 23.2388C190.182 23.2465 189.543 23.1548 188.877 22.9644C188.252 22.7707 187.627 22.5779 187.003 22.3843C186.378 22.1906 185.812 22.0116 185.306 21.8491C185.141 21.7964 184.986 21.7535 184.841 21.7163C182.734 22.0848 180.693 22.4827 178.719 22.9146C175.397 27.1016 172.163 31.5244 169.019 36.1831C165.915 40.8386 163.045 45.4361 160.406 49.9741C157.774 54.471 155.456 58.7611 153.452 62.8442C151.454 66.8866 149.917 70.4072 148.841 73.4058C147.806 76.4009 147.291 78.7483 147.295 80.4478C147.346 82.103 148.087 82.7734 149.517 82.4585C150.899 82.1877 152.481 81.5167 154.263 80.4458C156.044 79.3748 157.893 78.1162 159.809 76.6704C161.73 75.1837 163.622 73.6181 165.484 71.9741C167.388 70.3269 169.092 68.7967 170.596 67.3833C172.146 65.9258 173.442 64.6908 174.481 63.6782C174.925 63.2463 175.297 62.888 175.594 62.6001C176.5 60.5236 177.54 58.3432 178.718 56.0601C180.464 52.6445 182.384 49.1546 184.478 45.5903C186.618 41.9819 188.861 38.3653 191.207 34.7407C193.594 31.1129 195.982 27.6263 198.37 24.2817C199.519 22.6982 200.653 21.1664 201.77 19.6851ZM223.813 51.7222C223.435 51.226 222.635 51.1268 221.411 51.4253C218.634 52.0486 215.957 53.2508 213.383 55.0317C210.814 56.7718 208.676 58.7817 206.968 61.061C207.327 61.1137 207.722 61.2045 208.152 61.3325C208.588 61.4196 209.042 61.5252 209.513 61.6499C210.025 61.7714 210.541 61.873 211.06 61.9536C211.584 61.9933 212.137 61.9696 212.72 61.8833C213.838 61.7548 214.938 61.4655 216.021 61.0161C217.15 60.5226 218.191 59.9353 219.143 59.2534C220.142 58.5273 221.055 57.6864 221.883 56.731C222.716 55.7345 223.403 54.6277 223.941 53.4116C224.234 52.7816 224.191 52.2185 223.813 51.7222ZM112.776 12.4419C112.358 12.5155 111.474 13.2938 110.124 14.7759C108.82 16.214 107.203 18.1418 105.271 20.5601C103.34 22.9784 101.19 25.7991 98.8193 29.021C96.4955 32.1987 94.1008 35.5838 91.6367 39.1772C89.2138 42.7675 86.7973 46.4589 84.3867 50.2505C81.9821 54.0009 79.7744 57.6549 77.7637 61.2124C81.0198 58.9327 84.204 56.1527 87.3164 52.8726C90.4346 49.5515 93.3523 46.0643 96.0693 42.4106C98.8276 38.7537 101.315 35.1379 103.532 31.564C105.796 27.9458 107.681 24.7011 109.188 21.8306C110.694 18.9602 111.772 16.6698 112.421 14.9595C113.076 13.2082 113.194 12.3685 112.776 12.4419ZM463.325 50.5981C464.397 50.5138 465.26 50.7497 465.915 51.3052C466.611 51.8575 466.852 52.8908 466.638 54.4048C466.429 55.878 465.887 56.9726 465.012 57.689C464.177 58.4021 463.225 58.8009 462.153 58.8853C461.123 58.9663 460.284 58.709 459.635 58.1128C458.986 57.5163 458.765 56.4807 458.974 55.0073C459.188 53.4934 459.709 52.4002 460.537 51.728C461.366 51.0558 462.295 50.6792 463.325 50.5981ZM124.256 42.6812C124.703 42.6864 125.001 42.885 125.149 43.2778C125.251 43.715 125.058 44.3579 124.571 45.2056C124.143 45.9273 123.497 46.7467 122.634 47.6646C121.818 48.5382 120.922 49.398 119.946 50.2437C118.977 51.0484 117.998 51.7732 117.011 52.4175C116.023 53.0617 115.171 53.473 114.453 53.6509C113.982 53.8093 113.629 53.8568 113.394 53.7944C113.164 53.6911 112.999 53.5626 112.898 53.4087C112.804 53.2139 112.771 53.0145 112.8 52.8101C112.829 52.6056 112.852 52.4416 112.869 52.3188C113.004 51.944 113.299 51.4346 113.757 50.7915C114.256 50.1452 114.84 49.4722 115.51 48.772C116.185 48.0309 116.899 47.3068 117.65 46.6001C118.449 45.8493 119.234 45.201 120.004 44.6548C120.368 44.3833 120.797 44.0863 121.291 43.7642C121.826 43.4388 122.352 43.1748 122.87 42.9722C123.388 42.7696 123.85 42.6727 124.256 42.6812ZM210.619 19.4937C208.983 19.4775 207.369 19.4892 205.778 19.5278C205.5 19.903 205.217 20.2827 204.933 20.6694C202.609 23.8471 200.214 27.2322 197.75 30.8257C195.327 34.4159 192.911 38.1073 190.5 41.8989C188.095 45.6493 185.888 49.3033 183.877 52.8608C187.133 50.5811 190.317 47.8011 193.43 44.521C196.548 41.2 199.466 37.7128 202.183 34.0591C204.941 30.4021 207.429 26.7863 209.646 23.2124C210.397 22.0116 211.105 20.8504 211.772 19.7319C211.307 19.5879 210.923 19.5078 210.619 19.4937ZM429.982 18.6206C430.43 18.6259 430.728 18.8244 430.876 19.2173C430.977 19.6545 430.784 20.2974 430.298 21.145C429.87 21.8667 429.224 22.6862 428.36 23.604C427.544 24.4777 426.648 25.3374 425.673 26.1831C424.703 26.9878 423.725 27.7127 422.737 28.3569C421.75 29.0011 420.897 29.4124 420.18 29.5903C419.709 29.7488 419.356 29.7963 419.12 29.7339C418.89 29.6306 418.725 29.5021 418.625 29.3481C418.53 29.1534 418.498 28.954 418.526 28.7495C418.555 28.545 418.578 28.3811 418.596 28.2583C418.73 27.8835 419.026 27.374 419.483 26.731C419.982 26.0847 420.567 25.4116 421.236 24.7114C421.912 23.9703 422.625 23.2462 423.377 22.5396C424.176 21.7887 424.961 21.1405 425.73 20.5942C426.095 20.3228 426.524 20.0257 427.018 19.7036C427.553 19.3782 428.079 19.1142 428.597 18.9116C429.114 18.709 429.576 18.6121 429.982 18.6206ZM218.89 4.09033C218.472 4.1639 217.588 4.94226 216.237 6.42432C214.934 7.86242 213.316 9.79021 211.385 12.2085C210.372 13.4769 209.3 14.8568 208.166 16.3462C210.04 16.2316 211.949 16.1406 213.891 16.0718C214.392 15.1756 214.864 14.3122 215.301 13.479C216.807 10.6086 217.885 8.31827 218.534 6.60791C219.189 4.85659 219.307 4.01698 218.89 4.09033Z" fill="#B8AA8C"/>
</g>
<defs>
<clipPath id="clip0_103_2051">
<rect width="466.52" height="116.23" fill="white" transform="translate(0.191406 0.115234)"/>
</clipPath>
</defs>
</svg>
